;TYPE=NON_PLATED
;Layer: NPTH_Through
;EasyEDA Pro Client v2.2.40.8, 2026-04-30 17:25:35
;Gerber Generator version 0.3
M48
METRIC,LZ,0000.00000
;Hole size 1 = 0.70002 METRIC
T01C0.70002
;Hole size 2 = 1.00000 METRIC
T02C1.00000
;Hole size 3 = 1.30002 METRIC
T03C1.30002
;Hole size 4 = 2.00000 METRIC
T04C2.00000
;Hole size 5 = 2.99999 METRIC
T05C2.99999
;Hole size 6 = 3.19999 METRIC
T06C3.19999
;Hole size 7 = 3.20000 METRIC
T07C3.20000
;Hole size 8 = 3.30002 METRIC
T08C3.30002
%
G05
G90
T01
X114.64608Y-47.72088
X114.64608Y-41.94086
X114.64608Y-35.78288
X114.64608Y-30.00286
T02
X103.51097Y-95.23501
X95.51099Y-95.23501
T03
X32.004Y-1.8001
X32.004Y-8.80008
T04
X-1.48146Y-95.20046
X123.40146Y-90.20046
X-1.48146Y-2.46254
X123.40146Y-7.46254
T05
X43.99616Y-74.62172
X74.3959Y-74.62172
T06
X43.99606Y-77.92375
X74.396Y-77.92375
T07
X3.683Y-97.028
X118.11Y-97.028
X118.11Y-0.889
X3.683Y-0.889
T08
X12.35596Y-71.374
X12.35596Y-82.804
M30