;TYPE=PLATED
;Layer: PTH_Through_Via
;EasyEDA Pro Client v2.2.40.8, 2026-04-30 17:25:35
;Gerber Generator version 0.3
M48
METRIC,LZ,0000.00000
;Hole size 1 = 0.30000 METRIC
T01C0.30000
%
G05
G90
T01
X42.41808Y-28.19397
X41.021Y-26.035
X114.427Y-33.14306
X114.427Y-32.131
X8.763Y-48.514
X8.255Y-45.72
X8.9535Y-46.9265
X8.89Y-45.212
X102.6795Y-85.6615
X101.62448Y-87.39111
X82.7405Y-97.3455
X49.784Y-66.22576
X110.586Y-27.686
X109.85929Y-26.15771
X101.408Y-33.528
X101.885Y-34.05579
X102.362Y-33.528
X102.87Y-34.036
X103.378Y-33.528
X103.886Y-34.036
X104.394Y-33.528
X104.902Y-34.036
X105.41Y-33.528
X106.426Y-33.528
X106.934Y-34.036
X85.217Y-17.907
X83.947Y-17.907
X38.958Y-20.797
X38.33677Y-18.0015
X37.592Y-17.495
X35.052Y-18.003
X107.093Y-22.53615
X105.918Y-34.036
X91.313Y-75.311
X91.4075Y-76.454
X92.456Y-75.311
X93.17429Y-74.33871
X91.44Y-74.422
X16.002Y-90.805
X20.3835Y-91.282
X16.891Y-91.313
X19.939Y-90.805
X102.108Y-60.706
X103.378Y-59.436
X48.641Y-65.405
X96.012Y-23.241
X104.775Y-72.898
X92.202Y-74.549
X98.31779Y-68.72679
X97.64321Y-68.72679
X57.404Y-66.548
X75.438Y-95.123
X37.211Y-98.044
X62.22389Y-89.662
X65.151Y-89.662
X57.895Y-54.69632
X49.911Y-71.247
X51.181Y-69.977
X63.2655Y-54.3755
X69.469Y-48.26
X81.39Y-35.433
X81.534Y-38.2484
X96.25Y-9.144
X96.25Y-8.509
X108.585Y-34.163
X52.89296Y-45.40504
X44.577Y-44.45
X57.7215Y-50.9905
X46.50179Y-45.19221
X70.485Y-60.198
X66.8655Y-56.5785
X64.53579Y-52.05021
X39.751Y-62.103
X43.942Y-68.326
X41.783Y-70.485
X48.0695Y-75.2475
X51.689Y-78.867
X55.118Y-82.296
X75.057Y-64.77
X73.66Y-70.866
X69.215Y-75.311
X65.786Y-78.994
X82.423Y-91.694
X105.41Y-84.074
X112.587Y-45.593
X112.40942Y-44.704
X37.465Y-23.622
X37.084Y-22.194
X10.287Y-36.449
X10.3505Y-37.7825
X70.485Y-42.545
X110.871Y-52.197
X28.45652Y-98.67048
X38.354Y-98.298
X54.737Y-98.1265
X54.737Y-96.52
X71.882Y-98.552
X63.5Y-98.425
X81.407Y-97.536
X94.49698Y-79.85612
X113.157Y-57.658
X30.85041Y-26.543
X15.367Y-46.99
X89.631Y-29.464
X43.688Y-14.28013
X43.688Y-10.541
X35.68713Y-20.44687
X38.608Y-22.656
X31.115Y-21.082
X39.01869Y-18.954
X52.324Y-18.923
X15.621Y-36.068
X21.3673Y-64.2534
X23.622Y-61.849
X41.021Y-70.358
X41.021Y-66.802
X47.752Y-65.405
X47.752Y-68.422
X68.072Y-81.915
X106.00032Y-25.462
X106.60761Y-25.39471
X109.093Y-30.988
X100.711Y-25.146
X101.473Y-18.542
X96.393Y-18.542
X96.139Y-13.26896
X97.028Y-17.58696
X103.886Y-20.066
X94.885Y-9.652
X110.617Y-24.257
X87.41999Y-24.74397
X73.406Y-19.431
X70.231Y-18.288
X90.59384Y-27.34784
X85.598Y-27.07
X82.6556Y-27.07
X71.882Y-33.909
X76.25761Y-35.052
X75.53317Y-37.71386
X69.088Y-51.785
X74.549Y-60.325
X63.373Y-59.92485
X66.421Y-64.135
X77.724Y-70.104
X70.612Y-68.072
X50.673Y-72.136
X51.689Y-61.341
X43.18Y-60.325
X39.37Y-54.356
X14.605Y-58.674
X25.99164Y-58.166
X27.559Y-74.93
X16.82976Y-8.001
X12.39568Y-11.25637
X4.50393Y-7.42863
X46.609Y-41.06481
X45.466Y-45.085
X44.78694Y-50.038
X52.959Y-43.03079
X54.864Y-43.434
X85.217Y-12.954
X45.847Y-89.916
X45.339Y-82.169
X49.149Y-84.582
X70.485Y-78.105
X74.549Y-98.171
X76.2Y-96.52
X23.749Y-66.802
X23.749Y-68.99928
X23.749Y-74.676
X26.543Y-79.248
X6.604Y-47.371
X92.202Y-65.151
X110.49Y-82.423
X94.361Y-52.324
X110.109Y-39.878
X109.982Y-45.212
X110.109Y-49.68785
X105.664Y-58.166
X103.2795Y-68.961
X100.838Y-72.754
X106.172Y-79.756
X59.36233Y-95.84571
X55.626Y-91.01588
X62.374Y-52.07
X58.86602Y-37.211
X91.186Y-25.273
X88.00601Y-80.29612
X88.00601Y-82.36713
X50.292Y-95.377
X17.399Y-76.581
X21.082Y-71.755
X17.907Y-54.356
X13.081Y-57.15
X6.096Y-57.658
X7.112Y-59.817
X16.76Y-50.038
X30.226Y-36.576
X21.59Y-10.795
X77.216Y-43.688
X93.345Y-44.704
X101.981Y-41.50171
X101.346Y-39.878
X100.838Y-37.084
X98.044Y-29.28264
X98.679Y-25.273
X98.679Y-9.144
X26.035Y-92.71
X93.345Y-59.817
X56.515Y-51.435
X104.648Y-68.97502
X43.307Y-98.171
X81.534Y-95.377
X81.534Y-93.22247
X57.912Y-52.197
X51.181Y-51.562
X16.764Y-66.167
X16.764Y-65.405
X16.764Y-62.01923
X51.435Y-53.83499
X58.26151Y-51.562
X63.48021Y-51.548
X97.56801Y-74.58101
X97.68279Y-75.18301
X100.965Y-75.18301
X96.32819Y-79.85612
X98.16638Y-79.85612
X99.949Y-79.85612
X101.8026Y-79.85612
X102.616Y-78.105
X78.232Y-40.3841
X78.48301Y-39.30055
X104.521Y-79.121
X102.77658Y-79.121
X101.981Y-77.089
X104.648Y-76.454
X105.156Y-77.089
X105.918Y-77.343
X103.632Y-81.915
X102.51156Y-81.915
X104.66989Y-81.915
X106.299Y-82.423
X107.34434Y-82.423
X106.807Y-82.931
X87.503Y-85.344
X88.265Y-86.487
X91.218Y-80.23
X91.218Y-82.384
X91.218Y-83.461
X92.803Y-90.456
X93.88Y-90.456
X92.803Y-91.533
X93.88Y-91.533
X92.803Y-92.61
X93.88Y-92.61
X108.95801Y-92.61
X93.88Y-93.687
X93.88Y-94.764
X93.88Y-95.841
X93.88Y-96.91801
X93.88Y-97.99501
X91.726Y-99.07201
X92.803Y-99.07201
X93.88Y-99.07201
X94.957Y-99.07201
X96.034Y-99.07201
X97.111Y-99.07201
X98.18801Y-99.07201
X99.26501Y-99.07201
X100.34201Y-99.07201
X101.41901Y-99.07201
X102.49601Y-99.07201
X103.57301Y-99.07201
X104.65001Y-99.07201
X105.72701Y-99.07201
X106.80401Y-99.07201
X107.88101Y-99.07201
X108.95801Y-99.07201
X110.03501Y-99.07201
X111.11201Y-99.07201
X112.18901Y-99.07201
X113.26601Y-99.07201
X114.34301Y-99.07201
X115.42002Y-99.07201
X116.49702Y-99.07201
X112.168Y-26.956
X113.245Y-26.956
X112.168Y-28.033
X119.70701Y-30.187
X119.70701Y-31.264
X119.70701Y-32.341
X119.70701Y-33.41801
X119.70701Y-34.49501
X111.091Y-35.57201
X119.70701Y-35.57201
X110.014Y-36.64901
X112.168Y-36.64901
X110.014Y-37.72601
X111.091Y-37.72601
X110.014Y-38.80301
X111.091Y-38.80301
X113.245Y-38.80301
X114.322Y-38.80301
X115.399Y-38.80301
X118.63001Y-38.80301
X119.70701Y-38.80301
X111.091Y-39.88001
X110.014Y-40.95701
X111.091Y-40.95701
X119.70701Y-42.03401
X110.014Y-43.11101
X119.70701Y-43.11101
X110.014Y-44.18801
X119.70701Y-44.18801
X119.70701Y-45.26501
X110.014Y-46.34201
X119.70701Y-46.34201
X119.70701Y-47.41901
X110.014Y-48.49601
X110.014Y-50.65002
X113.245Y-50.65002
X119.70701Y-50.65002
X110.014Y-51.72702
X119.70701Y-51.72702
X110.014Y-52.80402
X119.70701Y-52.80402
X110.014Y-53.88102
X113.245Y-53.88102
X114.322Y-53.88102
X119.70701Y-53.88102
X119.70701Y-54.95802
X119.70701Y-56.03502
X119.70701Y-57.11202
X119.70701Y-58.18902
X119.70701Y-59.26602
X119.70701Y-60.34302
X110.014Y-61.42002
X111.091Y-61.42002
X119.70701Y-61.42002
X119.70701Y-62.49702
X119.70701Y-63.57402
X119.70701Y-64.65102
X114.322Y-65.72802
X119.70701Y-65.72802
X114.322Y-66.80503
X119.70701Y-66.80503
X114.322Y-67.88203
X119.70701Y-67.88203
X114.322Y-68.95903
X119.70701Y-68.95903
X114.322Y-70.03603
X119.70701Y-70.03603
X114.322Y-71.11303
X119.70701Y-71.11303
X114.322Y-72.19003
X119.70701Y-72.19003
X114.322Y-73.26703
X119.70701Y-73.26703
X114.322Y-74.34403
X119.70701Y-74.34403
X114.322Y-75.42103
X119.70701Y-75.42103
X114.322Y-76.49803
X119.70701Y-76.49803
X114.322Y-77.57503
X119.70701Y-77.57503
X114.322Y-78.65203
X119.70701Y-78.65203
X113.245Y-79.72903
X114.322Y-79.72903
X119.70701Y-79.72903
X113.245Y-80.80603
X114.322Y-80.80603
X119.70701Y-80.80603
X110.014Y-81.88303
X113.245Y-81.88303
X114.322Y-81.88303
X119.70701Y-81.88303
X110.014Y-82.96003
X113.245Y-82.96003
X114.322Y-82.96003
X119.70701Y-82.96003
X113.245Y-84.03704
X114.322Y-84.03704
X119.70701Y-84.03704
X114.322Y-85.11404
X118.63001Y-85.11404
X119.70701Y-85.11404
X113.245Y-88.34504
X115.399Y-88.34504
X111.633Y-59.817
X111.633Y-66.294
X111.633Y-68.41307
X111.252Y-70.104
X108.712Y-72.898
X2.821Y1.563
X4.975Y1.563
X6.052Y1.563
X7.12901Y1.563
X20.05301Y1.563
X21.13001Y1.563
X22.20701Y1.563
X23.28401Y1.563
X24.36102Y1.563
X27.59202Y1.563
X28.66902Y1.563
X29.74602Y1.563
X31.90002Y1.563
X32.97702Y1.563
X34.05402Y1.563
X35.13102Y1.563
X36.20802Y1.563
X37.28502Y1.563
X38.36202Y1.563
X39.43902Y1.563
X40.51603Y1.563
X41.59303Y1.563
X42.67003Y1.563
X43.74703Y1.563
X44.82403Y1.563
X45.90103Y1.563
X46.97803Y1.563
X48.05503Y1.563
X49.13203Y1.563
X50.20903Y1.563
X51.28603Y1.563
X52.36303Y1.563
X53.44003Y1.563
X54.51703Y1.563
X55.59403Y1.563
X56.67103Y1.563
X57.74804Y1.563
X58.82504Y1.563
X59.90204Y1.563
X60.97904Y1.563
X62.05604Y1.563
X63.13304Y1.563
X64.21004Y1.563
X65.28704Y1.563
X66.36404Y1.563
X67.44104Y1.563
X68.51804Y1.563
X69.59504Y1.563
X70.67204Y1.563
X71.74904Y1.563
X72.82604Y1.563
X73.90304Y1.563
X74.98005Y1.563
X76.05705Y1.563
X77.13405Y1.563
X78.21105Y1.563
X79.28805Y1.563
X80.36505Y1.563
X81.44205Y1.563
X82.51905Y1.563
X83.59605Y1.563
X84.67305Y1.563
X85.75005Y1.563
X86.82705Y1.563
X87.90405Y1.563
X106.21306Y1.563
X107.29006Y1.563
X108.36707Y1.563
X109.44407Y1.563
X110.52107Y1.563
X111.59807Y1.563
X112.67507Y1.563
X113.75207Y1.563
X114.82907Y1.563
X6.052Y0.486
X20.05301Y0.486
X24.36102Y0.486
X27.59202Y0.486
X28.66902Y0.486
X29.74602Y0.486
X31.90002Y0.486
X32.97702Y0.486
X34.05402Y0.486
X35.13102Y0.486
X36.20802Y0.486
X37.28502Y0.486
X38.36202Y0.486
X39.43902Y0.486
X40.51603Y0.486
X41.59303Y0.486
X42.67003Y0.486
X43.74703Y0.486
X44.82403Y0.486
X45.90103Y0.486
X46.97803Y0.486
X48.05503Y0.486
X49.13203Y0.486
X50.20903Y0.486
X51.28603Y0.486
X52.36303Y0.486
X53.44003Y0.486
X54.51703Y0.486
X55.59403Y0.486
X56.67103Y0.486
X57.74804Y0.486
X58.82504Y0.486
X59.90204Y0.486
X60.97904Y0.486
X62.05604Y0.486
X63.13304Y0.486
X64.21004Y0.486
X65.28704Y0.486
X66.36404Y0.486
X67.44104Y0.486
X68.51804Y0.486
X69.59504Y0.486
X70.67204Y0.486
X71.74904Y0.486
X72.82604Y0.486
X73.90304Y0.486
X74.98005Y0.486
X76.05705Y0.486
X77.13405Y0.486
X78.21105Y0.486
X79.28805Y0.486
X80.36505Y0.486
X81.44205Y0.486
X82.51905Y0.486
X83.59605Y0.486
X84.67305Y0.486
X85.75005Y0.486
X86.82705Y0.486
X87.90405Y0.486
X106.21306Y0.486
X107.29006Y0.486
X108.36707Y0.486
X109.44407Y0.486
X110.52107Y0.486
X111.59807Y0.486
X112.67507Y0.486
X113.75207Y0.486
X114.82907Y0.486
X6.052Y-0.591
X7.12901Y-0.591
X20.05301Y-0.591
X24.36102Y-0.591
X91.13506Y-0.591
X92.21206Y-0.591
X97.59706Y-0.591
X114.82907Y-0.591
X6.052Y-1.66801
X17.89901Y-1.66801
X20.05301Y-1.66801
X24.36102Y-1.66801
X92.21206Y-1.66801
X97.59706Y-1.66801
X114.82907Y-1.66801
X1.744Y-2.74501
X4.975Y-2.74501
X6.052Y-2.74501
X91.13506Y-2.74501
X92.21206Y-2.74501
X97.59706Y-2.74501
X114.82907Y-2.74501
X3.898Y-3.82201
X4.975Y-3.82201
X10.36001Y-3.82201
X92.21206Y-3.82201
X3.898Y-4.89901
X10.36001Y-4.89901
X12.51401Y-4.89901
X15.74501Y-4.89901
X17.89901Y-4.89901
X41.59303Y-4.89901
X42.67003Y-4.89901
X43.74703Y-4.89901
X44.82403Y-4.89901
X45.90103Y-4.89901
X46.97803Y-4.89901
X48.05503Y-4.89901
X49.13203Y-4.89901
X54.51703Y-4.89901
X57.74804Y-4.89901
X64.21004Y-4.89901
X69.59504Y-4.89901
X73.90304Y-4.89901
X92.21206Y-4.89901
X106.21306Y-4.89901
X107.29006Y-4.89901
X108.36707Y-4.89901
X109.44407Y-4.89901
X110.52107Y-4.89901
X111.59807Y-4.89901
X3.898Y-5.97601
X4.975Y-5.97601
X10.36001Y-5.97601
X12.51401Y-5.97601
X15.74501Y-5.97601
X17.89901Y-5.97601
X41.59303Y-5.97601
X57.74804Y-5.97601
X80.36505Y-5.97601
X81.44205Y-5.97601
X86.82705Y-5.97601
X87.90405Y-5.97601
X106.21306Y-5.97601
X3.898Y-7.05301
X4.975Y-7.05301
X10.36001Y-7.05301
X12.51401Y-7.05301
X13.59101Y-7.05301
X14.66801Y-7.05301
X15.74501Y-7.05301
X17.89901Y-7.05301
X41.59303Y-7.05301
X60.97904Y-7.05301
X66.36404Y-7.05301
X67.44104Y-7.05301
X69.59504Y-7.05301
X80.36505Y-7.05301
X86.82705Y-7.05301
X87.90405Y-7.05301
X3.898Y-8.13001
X4.975Y-8.13001
X17.89901Y-8.13001
X68.51804Y-8.13001
X80.36505Y-8.13001
X81.44205Y-8.13001
X86.82705Y-8.13001
X87.90405Y-8.13001
X101.90506Y-8.13001
X102.98206Y-8.13001
X104.05906Y-8.13001
X111.59807Y-8.13001
X114.82907Y-8.13001
X3.898Y-9.20701
X26.51502Y-9.20701
X45.90103Y-9.20701
X49.13203Y-9.20701
X54.51703Y-9.20701
X73.90304Y-9.20701
X79.28805Y-9.20701
X80.36505Y-9.20701
X81.44205Y-9.20701
X86.82705Y-9.20701
X87.90405Y-9.20701
X91.13506Y-9.20701
X94.36606Y-9.20701
X97.59706Y-9.20701
X101.90506Y-9.20701
X102.98206Y-9.20701
X104.05906Y-9.20701
X114.82907Y-9.20701
X26.51502Y-10.28401
X31.90002Y-10.28401
X32.97702Y-10.28401
X49.13203Y-10.28401
X50.20903Y-10.28401
X53.44003Y-10.28401
X54.51703Y-10.28401
X86.82705Y-10.28401
X87.90405Y-10.28401
X91.13506Y-10.28401
X94.36606Y-10.28401
X97.59706Y-10.28401
X98.67406Y-10.28401
X101.90506Y-10.28401
X102.98206Y-10.28401
X114.82907Y-10.28401
X24.36102Y-11.36101
X26.51502Y-11.36101
X31.90002Y-11.36101
X32.97702Y-11.36101
X38.36202Y-11.36101
X39.43902Y-11.36101
X91.13506Y-11.36101
X98.67406Y-11.36101
X101.90506Y-11.36101
X102.98206Y-11.36101
X114.82907Y-11.36101
X40.51603Y-12.43801
X86.82705Y-12.43801
X87.90405Y-12.43801
X88.98105Y-12.43801
X91.13506Y-12.43801
X98.67406Y-12.43801
X101.90506Y-12.43801
X102.98206Y-12.43801
X114.82907Y-12.43801
X56.67103Y-13.51501
X57.74804Y-13.51501
X88.98105Y-13.51501
X91.13506Y-13.51501
X98.67406Y-13.51501
X101.90506Y-13.51501
X102.98206Y-13.51501
X114.82907Y-13.51501
X48.05503Y-14.59201
X88.98105Y-14.59201
X97.59706Y-14.59201
X98.67406Y-14.59201
X101.90506Y-14.59201
X102.98206Y-14.59201
X114.82907Y-14.59201
X48.05503Y-15.66901
X88.98105Y-15.66901
X101.90506Y-15.66901
X102.98206Y-15.66901
X114.82907Y-15.66901
X15.74501Y-16.74601
X16.82201Y-16.74601
X17.89901Y-16.74601
X18.97601Y-16.74601
X20.05301Y-16.74601
X21.13001Y-16.74601
X57.74804Y-16.74601
X86.82705Y-16.74601
X87.90405Y-16.74601
X88.98105Y-16.74601
X101.90506Y-16.74601
X102.98206Y-16.74601
X106.21306Y-16.74601
X107.29006Y-16.74601
X114.82907Y-16.74601
X10.36001Y-17.82301
X11.43701Y-17.82301
X12.51401Y-17.82301
X15.74501Y-17.82301
X21.13001Y-17.82301
X86.82705Y-17.82301
X87.90405Y-17.82301
X88.98105Y-17.82301
X102.98206Y-17.82301
X106.21306Y-17.82301
X107.29006Y-17.82301
X114.82907Y-17.82301
X10.36001Y-18.90002
X11.43701Y-18.90002
X12.51401Y-18.90002
X15.74501Y-18.90002
X21.13001Y-18.90002
X114.82907Y-18.90002
X10.36001Y-19.97702
X11.43701Y-19.97702
X12.51401Y-19.97702
X15.74501Y-19.97702
X21.13001Y-19.97702
X109.44407Y-19.97702
X110.52107Y-19.97702
X111.59807Y-19.97702
X112.67507Y-19.97702
X113.75207Y-19.97702
X114.82907Y-19.97702
X10.36001Y-21.05402
X11.43701Y-21.05402
X12.51401Y-21.05402
X15.74501Y-21.05402
X21.13001Y-21.05402
X10.36001Y-22.13102
X11.43701Y-22.13102
X12.51401Y-22.13102
X15.74501Y-22.13102
X21.13001Y-22.13102
X113.75207Y-22.13102
X10.36001Y-23.20802
X11.43701Y-23.20802
X12.51401Y-23.20802
X15.74501Y-23.20802
X21.13001Y-23.20802
X42.67003Y-23.20802
X77.13405Y-23.20802
X113.75207Y-23.20802
X114.82907Y-23.20802
X10.36001Y-24.28502
X11.43701Y-24.28502
X12.51401Y-24.28502
X15.74501Y-24.28502
X21.13001Y-24.28502
X42.67003Y-24.28502
X77.13405Y-24.28502
X92.21206Y-24.28502
X93.28906Y-24.28502
X98.67406Y-24.28502
X114.82907Y-24.28502
X10.36001Y-25.36202
X11.43701Y-25.36202
X12.51401Y-25.36202
X15.74501Y-25.36202
X42.67003Y-25.36202
X77.13405Y-25.36202
X78.21105Y-25.36202
X113.75207Y-25.36202
X10.36001Y-26.43902
X15.74501Y-26.43902
X16.82201Y-26.43902
X17.89901Y-26.43902
X77.13405Y-26.43902
X113.75207Y-26.43902
X119.13707Y-26.43902
X120.21407Y-26.43902
X25.43802Y-27.51602
X39.43902Y-27.51602
X92.21206Y-27.51602
X100.82806Y-27.51602
X111.59807Y-27.51602
X112.67507Y-27.51602
X120.21407Y-27.51602
X25.43802Y-28.59302
X39.43902Y-28.59302
X92.21206Y-28.59302
X120.21407Y-28.59302
X25.43802Y-29.67002
X64.21004Y-29.67002
X72.82604Y-29.67002
X73.90304Y-29.67002
X100.82806Y-29.67002
X118.06007Y-29.67002
X119.13707Y-29.67002
X120.21407Y-29.67002
X110.617Y-26.543
X114.935Y-22.098
X111.887Y-21.971
X15.80101Y-31.782
X67.49704Y-31.782
X73.95905Y-31.782
X75.03605Y-31.782
X76.11305Y-31.782
X15.80101Y-32.859
X24.41702Y-32.859
X45.95703Y-32.859
X47.03403Y-32.859
X48.11103Y-32.859
X49.18803Y-32.859
X53.49603Y-32.859
X54.57304Y-32.859
X61.03504Y-32.859
X62.11204Y-32.859
X67.49704Y-32.859
X1.8Y-33.936
X2.877Y-33.936
X3.95401Y-33.936
X12.57001Y-33.936
X13.64701Y-33.936
X14.72401Y-33.936
X15.80101Y-33.936
X24.41702Y-33.936
X29.80202Y-33.936
X39.49503Y-33.936
X45.95703Y-33.936
X47.03403Y-33.936
X48.11103Y-33.936
X49.18803Y-33.936
X61.03504Y-33.936
X67.49704Y-33.936
X1.8Y-35.013
X14.72401Y-35.013
X15.80101Y-35.013
X39.49503Y-35.013
X43.80303Y-35.013
X52.41903Y-35.013
X61.03504Y-35.013
X67.49704Y-35.013
X1.8Y-36.09
X6.10801Y-36.09
X39.49503Y-36.09
X43.80303Y-36.09
X53.49603Y-36.09
X61.03504Y-36.09
X67.49704Y-36.09
X92.26806Y-36.09
X30.87902Y-37.167
X43.80303Y-37.167
X53.49603Y-37.167
X54.57304Y-37.167
X67.49704Y-37.167
X77.19005Y-37.167
X92.26806Y-37.167
X15.80101Y-38.24401
X30.87902Y-38.24401
X53.49603Y-38.24401
X54.57304Y-38.24401
X67.49704Y-38.24401
X76.11305Y-38.24401
X92.26806Y-38.24401
X15.80101Y-39.32101
X29.80202Y-39.32101
X30.87902Y-39.32101
X59.95804Y-39.32101
X64.26604Y-39.32101
X66.42004Y-39.32101
X92.26806Y-39.32101
X2.877Y-40.39801
X12.57001Y-40.39801
X13.64701Y-40.39801
X15.80101Y-40.39801
X30.87902Y-40.39801
X45.95703Y-40.39801
X47.03403Y-40.39801
X48.11103Y-40.39801
X49.18803Y-40.39801
X58.88104Y-40.39801
X59.95804Y-40.39801
X92.26806Y-40.39801
X2.877Y-41.47501
X10.41601Y-41.47501
X11.49301Y-41.47501
X12.57001Y-41.47501
X13.64701Y-41.47501
X15.80101Y-41.47501
X45.95703Y-41.47501
X48.11103Y-41.47501
X49.18803Y-41.47501
X59.95804Y-41.47501
X92.26806Y-41.47501
X2.877Y-42.55201
X10.41601Y-42.55201
X11.49301Y-42.55201
X15.80101Y-42.55201
X53.49603Y-42.55201
X58.88104Y-42.55201
X59.95804Y-42.55201
X61.03504Y-42.55201
X62.11204Y-42.55201
X63.18904Y-42.55201
X64.26604Y-42.55201
X65.34304Y-42.55201
X66.42004Y-42.55201
X92.26806Y-42.55201
X8.26201Y-43.62901
X15.80101Y-43.62901
X15.80101Y-44.70601
X64.26604Y-44.70601
X91.19106Y-44.70601
X94.42206Y-44.70601
X28.72502Y-46.86001
X64.26604Y-46.86001
X6.10801Y-47.93701
X7.18501Y-47.93701
X1.8Y-50.09101
X42.72603Y-50.09101
X43.80303Y-50.09101
X45.95703Y-50.09101
X47.03403Y-50.09101
X95.49906Y-50.09101
X1.8Y-51.16801
X5.03101Y-51.16801
X6.10801Y-51.16801
X9.33901Y-51.16801
X10.41601Y-51.16801
X43.80303Y-51.16801
X44.88003Y-51.16801
X45.95703Y-51.16801
X1.8Y-52.24501
X16.87801Y-52.24501
X19.03201Y-52.24501
X44.88003Y-52.24501
X95.49906Y-52.24501
X103.03806Y-52.24501
X1.8Y-53.32201
X1.8Y-54.39901
X6.10801Y-54.39901
X1.8Y-55.47602
X3.95401Y-55.47602
X6.10801Y-55.47602
X1.8Y-56.55302
X106.26907Y-56.55302
X1.8Y-57.63002
X25.49402Y-57.63002
X87.96006Y-57.63002
X23.34002Y-58.70702
X54.57304Y-58.70702
X55.65004Y-58.70702
X62.11204Y-58.70702
X9.33901Y-59.78402
X12.57001Y-59.78402
X13.64701Y-59.78402
X23.34002Y-59.78402
X42.72603Y-59.78402
X53.49603Y-59.78402
X55.65004Y-59.78402
X62.11204Y-59.78402
X80.42105Y-59.78402
X81.438Y-59.78402
X92.26806Y-59.78402
X94.42206Y-59.78402
X1.8Y-60.86102
X53.49603Y-60.86102
X54.57304Y-60.86102
X55.65004Y-60.86102
X62.11204Y-60.86102
X63.18904Y-60.86102
X64.26604Y-60.86102
X79.34405Y-60.86102
X1.8Y-61.93802
X3.95401Y-61.93802
X65.34304Y-61.93802
X78.26705Y-61.93802
X79.34405Y-61.93802
X92.26806Y-61.93802
X103.03806Y-61.93802
X1.8Y-63.01502
X65.34304Y-63.01502
X66.42004Y-63.01502
X89.03706Y-63.01502
X92.26806Y-63.01502
X1.8Y-64.09202
X67.49704Y-64.09202
X92.26806Y-64.09202
X1.8Y-65.16902
X3.95401Y-65.16902
X6.10801Y-65.16902
X7.18501Y-65.16902
X17.95501Y-65.16902
X59.95804Y-65.16902
X67.49704Y-65.16902
X68.57404Y-65.16902
X89.03706Y-65.16902
X1.8Y-66.24602
X3.95401Y-66.24602
X6.10801Y-66.24602
X7.18501Y-66.24602
X17.95501Y-66.24602
X58.88104Y-66.24602
X69.65104Y-66.24602
X72.88205Y-66.24602
X73.95905Y-66.24602
X76.11305Y-66.24602
X77.19005Y-66.24602
X78.26705Y-66.24602
X79.34405Y-66.24602
X92.26806Y-66.24602
X104.11506Y-66.24602
X105.19207Y-66.24602
X1.8Y-67.32302
X50.26503Y-67.32302
X51.34203Y-67.32302
X52.41903Y-67.32302
X55.65004Y-67.32302
X56.72704Y-67.32302
X69.65104Y-67.32302
X70.72804Y-67.32302
X71.80505Y-67.32302
X72.88205Y-67.32302
X73.95905Y-67.32302
X1.8Y-68.40002
X23.34002Y-68.40002
X49.18803Y-68.40002
X69.65104Y-68.40002
X72.88205Y-68.40002
X73.95905Y-68.40002
X1.8Y-69.47702
X13.64701Y-69.47702
X22.26302Y-69.47702
X48.11103Y-69.47702
X49.18803Y-69.47702
X50.26503Y-69.47702
X68.57404Y-69.47702
X92.26806Y-69.47702
X1.8Y-70.55402
X52.41903Y-70.55402
X67.49704Y-70.55402
X77.19005Y-70.55402
X78.26705Y-70.55402
X79.34405Y-70.55402
X80.42105Y-70.55402
X90.11406Y-70.55402
X91.19106Y-70.55402
X92.26806Y-70.55402
X97.65306Y-70.55402
X1.8Y-71.63103
X52.41903Y-71.63103
X66.42004Y-71.63103
X97.65306Y-71.63103
X1.8Y-72.70803
X53.49603Y-72.70803
X65.34304Y-72.70803
X98.73006Y-72.70803
X99.80706Y-72.70803
X1.8Y-73.78503
X11.49301Y-73.78503
X12.57001Y-73.78503
X13.64701Y-73.78503
X54.57304Y-73.78503
X64.26604Y-73.78503
X79.34405Y-73.78503
X1.8Y-74.86203
X7.18501Y-74.86203
X55.65004Y-74.86203
X79.34405Y-74.86203
X1.8Y-75.93903
X56.72704Y-75.93903
X62.11204Y-75.93903
X76.11305Y-75.93903
X79.34405Y-75.93903
X1.8Y-77.01603
X7.18501Y-77.01603
X11.49301Y-77.01603
X12.57001Y-77.01603
X13.64701Y-77.01603
X79.34405Y-77.01603
X1.8Y-78.09303
X58.88104Y-78.09303
X59.95804Y-78.09303
X79.34405Y-78.09303
X1.8Y-79.17003
X58.88104Y-79.17003
X76.11305Y-79.17003
X79.34405Y-79.17003
X1.8Y-80.24703
X9.33901Y-80.24703
X75.03605Y-80.24703
X76.11305Y-80.24703
X79.34405Y-80.24703
X1.8Y-81.32403
X9.33901Y-81.32403
X67.49704Y-81.32403
X76.11305Y-81.32403
X79.34405Y-81.32403
X1.8Y-82.40103
X9.33901Y-82.40103
X58.88104Y-82.40103
X67.49704Y-82.40103
X68.57404Y-82.40103
X79.34405Y-82.40103
X1.8Y-83.47803
X20.10901Y-83.47803
X21.18602Y-83.47803
X67.49704Y-83.47803
X68.57404Y-83.47803
X69.65104Y-83.47803
X1.8Y-84.55503
X10.41601Y-84.55503
X20.10901Y-84.55503
X21.18602Y-84.55503
X39.49503Y-84.55503
X62.11204Y-84.55503
X1.8Y-85.63203
X9.33901Y-85.63203
X12.57001Y-85.63203
X20.10901Y-85.63203
X21.18602Y-85.63203
X62.11204Y-85.63203
X91.19106Y-85.63203
X104.11506Y-85.63203
X105.19207Y-85.63203
X108.42307Y-85.63203
X1.8Y-86.70903
X12.57001Y-86.70903
X13.64701Y-86.70903
X15.80101Y-86.70903
X20.10901Y-86.70903
X21.18602Y-86.70903
X62.11204Y-86.70903
X1.8Y-87.78603
X8.26201Y-87.78603
X9.33901Y-87.78603
X10.41601Y-87.78603
X13.64701Y-87.78603
X14.72401Y-87.78603
X15.80101Y-87.78603
X20.10901Y-87.78603
X53.49603Y-87.78603
X54.57304Y-87.78603
X62.11204Y-87.78603
X1.8Y-88.86304
X9.33901Y-88.86304
X10.41601Y-88.86304
X13.64701Y-88.86304
X14.72401Y-88.86304
X15.80101Y-88.86304
X38.41803Y-88.86304
X39.49503Y-88.86304
X45.95703Y-88.86304
X1.744Y-89.948
X7.12901Y-89.948
X10.36001Y-89.948
X11.43701Y-89.948
X12.51401Y-89.948
X13.59101Y-89.948
X14.66801Y-89.948
X15.74501Y-89.948
X16.82201Y-89.948
X21.13001Y-89.948
X24.36102Y-89.948
X25.43802Y-89.948
X39.43902Y-89.948
X80.36505Y-89.948
X81.44205Y-89.948
X1.744Y-91.025
X24.36102Y-91.025
X25.43802Y-91.025
X26.51502Y-91.025
X58.82504Y-91.025
X59.90204Y-91.025
X1.744Y-92.102
X4.975Y-92.102
X6.052Y-92.102
X7.12901Y-92.102
X8.20601Y-92.102
X9.28301Y-92.102
X10.36001Y-92.102
X11.43701Y-92.102
X12.51401Y-92.102
X15.74501Y-92.102
X21.13001Y-92.102
X25.43802Y-92.102
X77.13405Y-92.102
X78.21105Y-92.102
X79.28805Y-92.102
X1.744Y-93.179
X4.975Y-93.179
X6.052Y-93.179
X7.12901Y-93.179
X8.20601Y-93.179
X9.28301Y-93.179
X12.51401Y-93.179
X15.74501Y-93.179
X1.744Y-94.256
X15.74501Y-94.256
X55.59403Y-94.256
X66.36404Y-94.256
X67.44104Y-94.256
X68.51804Y-94.256
X69.59504Y-94.256
X70.67204Y-94.256
X1.744Y-95.333
X46.97803Y-95.333
X48.05503Y-95.333
X49.13203Y-95.333
X51.28603Y-95.333
X52.36303Y-95.333
X53.44003Y-95.333
X6.052Y-96.41001
X7.12901Y-96.41001
X9.28301Y-96.41001
X6.052Y-97.48701
X7.12901Y-97.48701
X9.28301Y-97.48701
X6.052Y-98.56401
X7.12901Y-98.56401
X8.20601Y-98.56401
X9.28301Y-98.56401
X31.40099Y-92.456
X93.853Y-17.272
X95.504Y-18.415
X70.612Y-34.925
X70.739Y-35.941
X70.739Y-34.09114
X75.68656Y-33.45783
X51.943Y-29.083
X46.99Y-30.734
X76.073Y-92.075
X48.26Y-66.167
X26.416Y-88.646
X20.574Y-92.71
X25.4Y-85.725
X26.035Y-84.074
X26.543Y-75.946
X18.923Y-61.976
X11.938Y-60.325
X43.307Y-82.169
X76.581Y-2.159
X119.72802Y-94.764
X119.72802Y-93.687
X63.18904Y-74.86203
X61.03504Y-77.01603
X57.80404Y-77.01603
X61.03504Y-64.09202
X57.80404Y-67.32302
X76.11305Y-67.32302
X76.11305Y-68.40002
X103.632Y-56.007
X24.257Y-10.16
X18.923Y-10.51
X46.482Y-28.067
X103.251Y-48.006
X103.251Y-45.847
X104.14Y-50.165
X104.648Y-62.484
X55.118Y-30.353
X59.436Y-30.48
X75.63328Y-60.39037
X96.774Y-83.058
X99.812Y-85.598
X98.735Y-85.598
X97.658Y-85.598
X96.581Y-85.598
X95.504Y-85.598
X19.939Y-80.899
X60.071Y-82.55
X90.424Y-75.311
X88.519Y-74.549
X57.15Y-78.613
X54.483Y-75.946
X76.632Y-56.134
X75.555Y-56.134
X74.478Y-56.134
X73.401Y-56.134
X71.247Y-56.134
X75.946Y-21.59
X48.26Y-27.559
X64.897Y-19.558
X65.39229Y-20.066
X65.93066Y-20.50599
X62.103Y-19.637
X61.44821Y-19.32379
X67.437Y-18.923
X79.31504Y-17.78
X78.29418Y-17.78
X76.708Y-11.938
X74.422Y-12.954
X76.073Y-14.478
X64.262Y-20.972
X59.944Y-20.955
X57.73125Y-20.955
X55.55403Y-20.955
X53.39901Y-20.955
X51.26622Y-20.955
X49.149Y-20.955
X43.688Y-22.098
X63.09965Y-18.8345
X76.2Y-89.027
X81.534Y-89.027
X70.485Y-76.708
X55.626Y-49.403
X6.604Y-86.233
X17.907Y-68.58
X36.71703Y-34.48218
X105.791Y-2.159
X39.878Y-17.399
X43.307Y-19.05
X43.18Y-17.272
X45.72Y-16.383
X31.369Y-15.113
X28.067Y-13.97
X36.195Y-13.462
X40.02309Y-19.177
X38.989Y-17.526
X27.2495Y-41.402
X27.4725Y-42.164
X25.96241Y-43.815
X29.337Y-29.464
X27.051Y-53.848
X38.862Y-54.991
X94.361Y-24.257
X98.679Y-16.637
X70.104Y-51.689
X71.501Y-51.181
X9.398Y-37.211
X21.082Y-41.275
X24.384Y-41.529
X92.329Y-81.56278
X28.16448Y-60.72431
X28.27729Y-61.38471
X24.765Y-56.134
X25.4Y-55.626
X24.511Y-61.849
X27.432Y-82.55
X27.559Y-73.914
X30.82302Y0.486
X114.808Y-3.81
X114.808Y-4.81572
X114.808Y-5.92264
X114.808Y-6.97191
X71.755Y-42.545
X30.82302Y1.563
X92.837Y-18.288
X43.688Y-61.849
X88.519Y-56.007
X46.44378Y-66.72526
X95.504Y-65.11509
X30.861Y-11.811
X32.512Y-12.7
M30