G04 Layer: TopPasteMaskLayer*
G04 EasyEDA Pro v2.2.40.8, 2026-04-30 17:25:34*
G04 Gerber Generator version 0.3*
G04 Scale: 100 percent, Rotated: No, Reflected: No*
G04 Dimensions in millimeters*
G04 Leading zeros omitted, absolute positions, 4 integers and 5 decimals*
G04 Panelize: V-CUT, Column: 1, Row: 1, Board Size: 119.883mm x 102.738mm, Panelized Board Size: 129.883mm x 102.738mm, Panelized Method: Only Board Outline*
G04 Generated by one-click*
%FSLAX45Y45*%
%MOMM*%
%AMOval*1,1,$1,$2,$3*1,1,$1,$4,$5*20,1,$1,$2,$3,$4,$5,0*%
%AMRect*21,1,$1,$2,0,0,$3*%
%ADD10C,1.0*%
%ADD11R,2.40005X2.40005*%
%ADD12R,1.25001X0.7*%
%ADD13R,1.07X0.6*%
%ADD14R,0.7X1.25001*%
%ADD15Oval,0.28001X-0.60811X0.60811X0.60811X-0.60811*%
%ADD16Oval,0.28001X-0.60811X-0.60811X0.60811X0.60811*%
%ADD17Rect,1.4X1.2X135.0*%
%ADD18R,1.0511X0.7*%
%ADD19R,1.05001X0.7*%
%ADD20O,1.865X0.63*%
%ADD21O,2.25001X0.63*%
%ADD22R,0.5X0.8*%
%ADD23O,2.03551X0.57399*%
%ADD24O,1.95021X0.5684*%
%ADD25R,0.7X1.05001*%
%ADD26Rect,1.15001X1.7X45.0*%
%ADD27R,0.9X0.8*%
%ADD28R,1.4X1.2*%
%ADD29R,0.67201X1.575*%
%ADD30R,1.0X3.49999*%
%ADD31R,1.5X3.49999*%
%ADD32O,1.692X0.36401*%
%ADD33Rect,0.8X0.9X45.0*%
%ADD34Rect,0.8X0.9X135.0*%
%ADD35R,0.8X0.9*%
%ADD36R,0.8X0.8*%
%ADD37R,0.9X1.5*%
%ADD38R,1.4X1.55001*%
%ADD39R,1.1X2.79999*%
%ADD40R,1.0X0.75001*%
%ADD41R,1.6X3.49999*%
%ADD42R,0.532X0.8*%
%ADD43R,1.2X2.2*%
%ADD44R,1.6X1.5*%
%ADD45R,1.2X1.5*%
%ADD46R,0.70002X1.6*%
%ADD47R,0.4X1.25001*%
%ADD48R,1.8X2.0*%
%ADD49R,2.3X1.6*%
%ADD50O,0.57399X2.03799*%
%ADD51R,0.8X1.6*%
%ADD52R,2.1X2.99999*%
%ADD53R,0.5X0.78001*%
%ADD54R,0.5X1.4*%
%ADD55R,1.2X2.0*%
G75*


G04 Panelize Start*
G54D10*
G01X-148146Y-9020046D03*
G01X12340146Y-8520046D03*
G01X-148146Y-746254D03*
G01X12340146Y-1246254D03*
G04 Panelize End*

G04 PolygonModel Start*
G36*
G01X937962Y-2778513D02*
G01X1057962Y-2778513D01*
G01X1057962Y-3018510D01*
G01X1077962Y-3018510D01*
G01X1077962Y-3048513D01*
G01X917962Y-3048513D01*
G01X917962Y-3018513D01*
G01X937962Y-3018513D01*
G01X937962Y-2778513D01*
G37*
G36*
G01X2461863Y-1678513D02*
G01X2461863Y-1558513D01*
G01X2625838Y-1558513D01*
G01X2625838Y-1538513D01*
G01X2655840Y-1538513D01*
G01X2655840Y-1698513D01*
G01X2625840Y-1698513D01*
G01X2625840Y-1678513D01*
G01X2461863Y-1678513D01*
G37*
G36*
G01X1137962Y-2778513D02*
G01X1257961Y-2778513D01*
G01X1257961Y-3018510D01*
G01X1277961Y-3018510D01*
G01X1277961Y-3048513D01*
G01X1117962Y-3048513D01*
G01X1117962Y-3018513D01*
G01X1137962Y-3018513D01*
G01X1137962Y-2778513D01*
G37*
G36*
G01X1337961Y-2778513D02*
G01X1457961Y-2778513D01*
G01X1457961Y-3018510D01*
G01X1477964Y-3018510D01*
G01X1477964Y-3048513D01*
G01X1317964Y-3048513D01*
G01X1317964Y-3018513D01*
G01X1337961Y-3018513D01*
G01X1337961Y-2778513D01*
G37*
G36*
G01X1537961Y-2778513D02*
G01X1657961Y-2778513D01*
G01X1657961Y-3018510D01*
G01X1677961Y-3018510D01*
G01X1677961Y-3048513D01*
G01X1517961Y-3048513D01*
G01X1517961Y-3018513D01*
G01X1537961Y-3018513D01*
G01X1537961Y-2778513D01*
G37*
G36*
G01X1737960Y-2778513D02*
G01X1857960Y-2778513D01*
G01X1857960Y-3018510D01*
G01X1877960Y-3018510D01*
G01X1877960Y-3048513D01*
G01X1717960Y-3048513D01*
G01X1717960Y-3018513D01*
G01X1737960Y-3018513D01*
G01X1737960Y-2778513D01*
G37*
G36*
G01X1937960Y-2778513D02*
G01X2057960Y-2778513D01*
G01X2057960Y-3018510D01*
G01X2077960Y-3018510D01*
G01X2077960Y-3048513D01*
G01X1917960Y-3048513D01*
G01X1917960Y-3018513D01*
G01X1937960Y-3018513D01*
G01X1937960Y-2778513D01*
G37*
G36*
G01X2137960Y-2778513D02*
G01X2257959Y-2778513D01*
G01X2257959Y-3018510D01*
G01X2277959Y-3018510D01*
G01X2277959Y-3048513D01*
G01X2117960Y-3048513D01*
G01X2117960Y-3018513D01*
G01X2137960Y-3018513D01*
G01X2137960Y-2778513D01*
G37*
G36*
G01X2337962Y-2778511D02*
G01X2457962Y-2778511D01*
G01X2457962Y-3018510D01*
G01X2477962Y-3018510D01*
G01X2477962Y-3048513D01*
G01X2317962Y-3048513D01*
G01X2317962Y-3018513D01*
G01X2337962Y-3018513D01*
G01X2337962Y-2778511D01*
G37*
G36*
G01X1057759Y-1458516D02*
G01X937759Y-1458516D01*
G01X937759Y-1218519D01*
G01X917759Y-1218519D01*
G01X917759Y-1188517D01*
G01X1077759Y-1188517D01*
G01X1077759Y-1218516D01*
G01X1057759Y-1218516D01*
G01X1057759Y-1458516D01*
G37*
G36*
G01X1257758Y-1458516D02*
G01X1137758Y-1458516D01*
G01X1137758Y-1218519D01*
G01X1117758Y-1218519D01*
G01X1117758Y-1188517D01*
G01X1277758Y-1188517D01*
G01X1277758Y-1218516D01*
G01X1257758Y-1218516D01*
G01X1257758Y-1458516D01*
G37*
G36*
G01X1457758Y-1458516D02*
G01X1337758Y-1458516D01*
G01X1337758Y-1218519D01*
G01X1317758Y-1218519D01*
G01X1317758Y-1188517D01*
G01X1477758Y-1188517D01*
G01X1477758Y-1218516D01*
G01X1457758Y-1218516D01*
G01X1457758Y-1458516D01*
G37*
G36*
G01X1657757Y-1458516D02*
G01X1537758Y-1458516D01*
G01X1537758Y-1218519D01*
G01X1517758Y-1218519D01*
G01X1517758Y-1188517D01*
G01X1677757Y-1188517D01*
G01X1677757Y-1218516D01*
G01X1657757Y-1218516D01*
G01X1657757Y-1458516D01*
G37*
G36*
G01X1857757Y-1458516D02*
G01X1737757Y-1458516D01*
G01X1737757Y-1218519D01*
G01X1717757Y-1218519D01*
G01X1717757Y-1188517D01*
G01X1877757Y-1188517D01*
G01X1877757Y-1218516D01*
G01X1857757Y-1218516D01*
G01X1857757Y-1458516D01*
G37*
G36*
G01X2057757Y-1458516D02*
G01X1937757Y-1458516D01*
G01X1937757Y-1218519D01*
G01X1917757Y-1218519D01*
G01X1917757Y-1188517D01*
G01X2077757Y-1188517D01*
G01X2077757Y-1218516D01*
G01X2057757Y-1218516D01*
G01X2057757Y-1458516D01*
G37*
G36*
G01X2257756Y-1458513D02*
G01X2137756Y-1458513D01*
G01X2137756Y-1218516D01*
G01X2117756Y-1218516D01*
G01X2117756Y-1188514D01*
G01X2277756Y-1188514D01*
G01X2277756Y-1218514D01*
G01X2257756Y-1218514D01*
G01X2257756Y-1458513D01*
G37*
G36*
G01X2457781Y-1458516D02*
G01X2337781Y-1458516D01*
G01X2337781Y-1218519D01*
G01X2317781Y-1218519D01*
G01X2317781Y-1188517D01*
G01X2477781Y-1188517D01*
G01X2477781Y-1218516D01*
G01X2457781Y-1218516D01*
G01X2457781Y-1458516D01*
G37*
G36*
G01X2461787Y-1878513D02*
G01X2461787Y-1758513D01*
G01X2625762Y-1758513D01*
G01X2625762Y-1738513D01*
G01X2655764Y-1738513D01*
G01X2655764Y-1898513D01*
G01X2625764Y-1898513D01*
G01X2625764Y-1878513D01*
G01X2461787Y-1878513D01*
G37*
G36*
G01X2461787Y-2078512D02*
G01X2461787Y-1958512D01*
G01X2625762Y-1958512D01*
G01X2625762Y-1938513D01*
G01X2655764Y-1938513D01*
G01X2655764Y-2098512D01*
G01X2625764Y-2098512D01*
G01X2625764Y-2078512D01*
G01X2461787Y-2078512D01*
G37*
G36*
G01X2461787Y-2278512D02*
G01X2461787Y-2158512D01*
G01X2625762Y-2158512D01*
G01X2625762Y-2138512D01*
G01X2655764Y-2138512D01*
G01X2655764Y-2298512D01*
G01X2625764Y-2298512D01*
G01X2625764Y-2278512D01*
G01X2461787Y-2278512D01*
G37*
G36*
G01X2461736Y-2478511D02*
G01X2461736Y-2358512D01*
G01X2625711Y-2358512D01*
G01X2625711Y-2338512D01*
G01X2655713Y-2338512D01*
G01X2655713Y-2498511D01*
G01X2625713Y-2498511D01*
G01X2625713Y-2478511D01*
G01X2461736Y-2478511D01*
G37*
G36*
G01X2461888Y-2678511D02*
G01X2461888Y-2558511D01*
G01X2625863Y-2558511D01*
G01X2625863Y-2538511D01*
G01X2655866Y-2538511D01*
G01X2655866Y-2698511D01*
G01X2625866Y-2698511D01*
G01X2625866Y-2678511D01*
G01X2461888Y-2678511D01*
G37*
G36*
G01X11412596Y-4343093D02*
G01X11302596Y-4343093D01*
G01X11302596Y-4373095D01*
G01X11412596Y-4373095D01*
G01X11412596Y-4343093D01*
G37*
G36*
G01X11302596Y-4323083D02*
G01X11412596Y-4323083D01*
G01X11412596Y-4293080D01*
G01X11302596Y-4293080D01*
G01X11302596Y-4323083D01*
G37*
G36*
G01X11302596Y-4833102D02*
G01X11412596Y-4833102D01*
G01X11412596Y-4773102D01*
G01X11302596Y-4773102D01*
G01X11302596Y-4833102D01*
G37*
G36*
G01X11412596Y-4393105D02*
G01X11302596Y-4393105D01*
G01X11302596Y-4423108D01*
G01X11412596Y-4423108D01*
G01X11412596Y-4393105D01*
G37*
G36*
G01X11302596Y-4273083D02*
G01X11412596Y-4273083D01*
G01X11412596Y-4213083D01*
G01X11302596Y-4213083D01*
G01X11302596Y-4273083D01*
G37*
G36*
G01X11412596Y-4133098D02*
G01X11302596Y-4133098D01*
G01X11302596Y-4193098D01*
G01X11412596Y-4193098D01*
G01X11412596Y-4133098D01*
G37*
G36*
G01X11412596Y-4443092D02*
G01X11302596Y-4443092D01*
G01X11302596Y-4473095D01*
G01X11412596Y-4473095D01*
G01X11412596Y-4443092D01*
G37*
G36*
G01X11412596Y-4493105D02*
G01X11302596Y-4493105D01*
G01X11302596Y-4523108D01*
G01X11412596Y-4523108D01*
G01X11412596Y-4493105D01*
G37*
G36*
G01X11302596Y-4753092D02*
G01X11412596Y-4753092D01*
G01X11412596Y-4693092D01*
G01X11302596Y-4693092D01*
G01X11302596Y-4753092D01*
G37*
G36*
G01X11412596Y-4543092D02*
G01X11302596Y-4543092D01*
G01X11302596Y-4573095D01*
G01X11412596Y-4573095D01*
G01X11412596Y-4543092D01*
G37*
G36*
G01X11412596Y-4593079D02*
G01X11302596Y-4593079D01*
G01X11302596Y-4623082D01*
G01X11412596Y-4623082D01*
G01X11412596Y-4593079D01*
G37*
G36*
G01X11412596Y-4643092D02*
G01X11302596Y-4643092D01*
G01X11302596Y-4673095D01*
G01X11412596Y-4673095D01*
G01X11412596Y-4643092D01*
G37*
G36*
G01X11312756Y-4046118D02*
G01X11312606Y-4049105D01*
G01X11312606Y-4052098D01*
G01X11312756Y-4055085D01*
G01X11313053Y-4058061D01*
G01X11313500Y-4061021D01*
G01X11314092Y-4063952D01*
G01X11314831Y-4066852D01*
G01X11315713Y-4069710D01*
G01X11316736Y-4072522D01*
G01X11317897Y-4075278D01*
G01X11319195Y-4077975D01*
G01X11320628Y-4080601D01*
G01X11322187Y-4083154D01*
G01X11323871Y-4085626D01*
G01X11325680Y-4088011D01*
G01X11327602Y-4090302D01*
G01X11329637Y-4092496D01*
G01X11331778Y-4094584D01*
G01X11334021Y-4096565D01*
G01X11336360Y-4098430D01*
G01X11338789Y-4100175D01*
G01X11341303Y-4101798D01*
G01X11343894Y-4103294D01*
G01X11346556Y-4104660D01*
G01X11349281Y-4105890D01*
G01X11352068Y-4106982D01*
G01X11354902Y-4107937D01*
G01X11357783Y-4108747D01*
G01X11360699Y-4109413D01*
G01X11363645Y-4109931D01*
G01X11366614Y-4110304D01*
G01X11369599Y-4110528D01*
G01X11372588Y-4110601D01*
G01X11452588Y-4110601D01*
G01X11455578Y-4110528D01*
G01X11458562Y-4110304D01*
G01X11461532Y-4109931D01*
G01X11464478Y-4109413D01*
G01X11467394Y-4108747D01*
G01X11470274Y-4107937D01*
G01X11473109Y-4106982D01*
G01X11475895Y-4105890D01*
G01X11478621Y-4104660D01*
G01X11481283Y-4103294D01*
G01X11483873Y-4101798D01*
G01X11486388Y-4100175D01*
G01X11488816Y-4098430D01*
G01X11491156Y-4096565D01*
G01X11493398Y-4094584D01*
G01X11495540Y-4092496D01*
G01X11497574Y-4090302D01*
G01X11499497Y-4088011D01*
G01X11501305Y-4085626D01*
G01X11502989Y-4083154D01*
G01X11504549Y-4080601D01*
G01X11505982Y-4077975D01*
G01X11507280Y-4075278D01*
G01X11508440Y-4072522D01*
G01X11509464Y-4069710D01*
G01X11510345Y-4066852D01*
G01X11511084Y-4063952D01*
G01X11511676Y-4061021D01*
G01X11512123Y-4058061D01*
G01X11512420Y-4055085D01*
G01X11512570Y-4052098D01*
G01X11512570Y-4049105D01*
G01X11512420Y-4046118D01*
G01X11512123Y-4043142D01*
G01X11511676Y-4040182D01*
G01X11511084Y-4037251D01*
G01X11510345Y-4034351D01*
G01X11509464Y-4031493D01*
G01X11508440Y-4028681D01*
G01X11507280Y-4025925D01*
G01X11505982Y-4023228D01*
G01X11504549Y-4020602D01*
G01X11502989Y-4018049D01*
G01X11501305Y-4015577D01*
G01X11499497Y-4013192D01*
G01X11497574Y-4010901D01*
G01X11495540Y-4008707D01*
G01X11493398Y-4006619D01*
G01X11491156Y-4004638D01*
G01X11488816Y-4002773D01*
G01X11486388Y-4001028D01*
G01X11483873Y-3999405D01*
G01X11481283Y-3997909D01*
G01X11478621Y-3996543D01*
G01X11475895Y-3995313D01*
G01X11473109Y-3994221D01*
G01X11470274Y-3993266D01*
G01X11467394Y-3992456D01*
G01X11464478Y-3991790D01*
G01X11461532Y-3991272D01*
G01X11458562Y-3990899D01*
G01X11455578Y-3990675D01*
G01X11452588Y-3990602D01*
G01X11372588Y-3990602D01*
G01X11369599Y-3990675D01*
G01X11366614Y-3990899D01*
G01X11363645Y-3991272D01*
G01X11360699Y-3991790D01*
G01X11357783Y-3992456D01*
G01X11354902Y-3993266D01*
G01X11352068Y-3994221D01*
G01X11349281Y-3995313D01*
G01X11346556Y-3996543D01*
G01X11343894Y-3997909D01*
G01X11341303Y-3999405D01*
G01X11338789Y-4001028D01*
G01X11336360Y-4002773D01*
G01X11334021Y-4004638D01*
G01X11331778Y-4006619D01*
G01X11329637Y-4008707D01*
G01X11327602Y-4010901D01*
G01X11325680Y-4013192D01*
G01X11323871Y-4015577D01*
G01X11322187Y-4018049D01*
G01X11320628Y-4020602D01*
G01X11319195Y-4023228D01*
G01X11317897Y-4025925D01*
G01X11316736Y-4028681D01*
G01X11315713Y-4031493D01*
G01X11314831Y-4034351D01*
G01X11314092Y-4037251D01*
G01X11313500Y-4040182D01*
G01X11313053Y-4043142D01*
G01X11312756Y-4046118D01*
G37*
G36*
G01X11312606Y-4917095D02*
G01X11312756Y-4920082D01*
G01X11313053Y-4923058D01*
G01X11313500Y-4926018D01*
G01X11314092Y-4928949D01*
G01X11314831Y-4931849D01*
G01X11315713Y-4934707D01*
G01X11316736Y-4937519D01*
G01X11317897Y-4940275D01*
G01X11319195Y-4942972D01*
G01X11320628Y-4945598D01*
G01X11322187Y-4948151D01*
G01X11323871Y-4950623D01*
G01X11325680Y-4953008D01*
G01X11327602Y-4955299D01*
G01X11329637Y-4957493D01*
G01X11331778Y-4959581D01*
G01X11334021Y-4961562D01*
G01X11336360Y-4963427D01*
G01X11338789Y-4965172D01*
G01X11341303Y-4966795D01*
G01X11343894Y-4968291D01*
G01X11346556Y-4969657D01*
G01X11349281Y-4970887D01*
G01X11352068Y-4971979D01*
G01X11354902Y-4972934D01*
G01X11357783Y-4973744D01*
G01X11360699Y-4974410D01*
G01X11363645Y-4974928D01*
G01X11366614Y-4975301D01*
G01X11369599Y-4975525D01*
G01X11372588Y-4975598D01*
G01X11452588Y-4975598D01*
G01X11455578Y-4975525D01*
G01X11458562Y-4975301D01*
G01X11461532Y-4974928D01*
G01X11464478Y-4974410D01*
G01X11467394Y-4973744D01*
G01X11470274Y-4972934D01*
G01X11473109Y-4971979D01*
G01X11475895Y-4970887D01*
G01X11478621Y-4969657D01*
G01X11481283Y-4968291D01*
G01X11483873Y-4966795D01*
G01X11486388Y-4965172D01*
G01X11488816Y-4963427D01*
G01X11491156Y-4961562D01*
G01X11493398Y-4959581D01*
G01X11495540Y-4957493D01*
G01X11497574Y-4955299D01*
G01X11499497Y-4953008D01*
G01X11501305Y-4950623D01*
G01X11502989Y-4948151D01*
G01X11504549Y-4945598D01*
G01X11505982Y-4942972D01*
G01X11507280Y-4940275D01*
G01X11508440Y-4937519D01*
G01X11509464Y-4934707D01*
G01X11510345Y-4931849D01*
G01X11511084Y-4928949D01*
G01X11511676Y-4926018D01*
G01X11512123Y-4923058D01*
G01X11512420Y-4920082D01*
G01X11512570Y-4917095D01*
G01X11512570Y-4914102D01*
G01X11512420Y-4911115D01*
G01X11512123Y-4908139D01*
G01X11511676Y-4905179D01*
G01X11511084Y-4902248D01*
G01X11510345Y-4899348D01*
G01X11509464Y-4896490D01*
G01X11508440Y-4893678D01*
G01X11507280Y-4890922D01*
G01X11505982Y-4888225D01*
G01X11504549Y-4885599D01*
G01X11502989Y-4883046D01*
G01X11501305Y-4880574D01*
G01X11499497Y-4878189D01*
G01X11497574Y-4875898D01*
G01X11495540Y-4873704D01*
G01X11493398Y-4871616D01*
G01X11491156Y-4869635D01*
G01X11488816Y-4867770D01*
G01X11486388Y-4866025D01*
G01X11483873Y-4864402D01*
G01X11481283Y-4862906D01*
G01X11478621Y-4861540D01*
G01X11475895Y-4860310D01*
G01X11473109Y-4859218D01*
G01X11470274Y-4858263D01*
G01X11467394Y-4857453D01*
G01X11464478Y-4856787D01*
G01X11461532Y-4856269D01*
G01X11458562Y-4855896D01*
G01X11455578Y-4855672D01*
G01X11452588Y-4855599D01*
G01X11372588Y-4855599D01*
G01X11369599Y-4855672D01*
G01X11366614Y-4855896D01*
G01X11363645Y-4856269D01*
G01X11360699Y-4856787D01*
G01X11357783Y-4857453D01*
G01X11354902Y-4858263D01*
G01X11352068Y-4859218D01*
G01X11349281Y-4860310D01*
G01X11346556Y-4861540D01*
G01X11343894Y-4862906D01*
G01X11341303Y-4864402D01*
G01X11338789Y-4866025D01*
G01X11336360Y-4867770D01*
G01X11334021Y-4869635D01*
G01X11331778Y-4871616D01*
G01X11329637Y-4873704D01*
G01X11327602Y-4875898D01*
G01X11325680Y-4878189D01*
G01X11323871Y-4880574D01*
G01X11322187Y-4883046D01*
G01X11320628Y-4885599D01*
G01X11319195Y-4888225D01*
G01X11317897Y-4890922D01*
G01X11316736Y-4893678D01*
G01X11315713Y-4896490D01*
G01X11314831Y-4899348D01*
G01X11314092Y-4902248D01*
G01X11313500Y-4905179D01*
G01X11313053Y-4908139D01*
G01X11312756Y-4911115D01*
G01X11312606Y-4914102D01*
G01X11312606Y-4917095D01*
G37*
G36*
G01X11757772Y-4911115D02*
G01X11757622Y-4914102D01*
G01X11757622Y-4917095D01*
G01X11757772Y-4920082D01*
G01X11758069Y-4923058D01*
G01X11758516Y-4926018D01*
G01X11759108Y-4928949D01*
G01X11759847Y-4931849D01*
G01X11760728Y-4934707D01*
G01X11761752Y-4937519D01*
G01X11762913Y-4940275D01*
G01X11764211Y-4942972D01*
G01X11765643Y-4945598D01*
G01X11767203Y-4948151D01*
G01X11768887Y-4950623D01*
G01X11770695Y-4953008D01*
G01X11772618Y-4955299D01*
G01X11774653Y-4957493D01*
G01X11776794Y-4959581D01*
G01X11779037Y-4961562D01*
G01X11781376Y-4963427D01*
G01X11783804Y-4965172D01*
G01X11786319Y-4966795D01*
G01X11788910Y-4968291D01*
G01X11791572Y-4969657D01*
G01X11794297Y-4970887D01*
G01X11797083Y-4971979D01*
G01X11799918Y-4972934D01*
G01X11802798Y-4973744D01*
G01X11805714Y-4974410D01*
G01X11808661Y-4974928D01*
G01X11811630Y-4975301D01*
G01X11814614Y-4975525D01*
G01X11817604Y-4975598D01*
G01X11847604Y-4975598D01*
G01X11850594Y-4975525D01*
G01X11853578Y-4975301D01*
G01X11856547Y-4974928D01*
G01X11859494Y-4974410D01*
G01X11862410Y-4973744D01*
G01X11865290Y-4972934D01*
G01X11868125Y-4971979D01*
G01X11870911Y-4970887D01*
G01X11873636Y-4969657D01*
G01X11876298Y-4968291D01*
G01X11878889Y-4966795D01*
G01X11881404Y-4965172D01*
G01X11883832Y-4963427D01*
G01X11886171Y-4961562D01*
G01X11888414Y-4959581D01*
G01X11890555Y-4957493D01*
G01X11892590Y-4955299D01*
G01X11894513Y-4953008D01*
G01X11896321Y-4950623D01*
G01X11898005Y-4948151D01*
G01X11899565Y-4945598D01*
G01X11900997Y-4942972D01*
G01X11902295Y-4940275D01*
G01X11903456Y-4937519D01*
G01X11904480Y-4934707D01*
G01X11905361Y-4931849D01*
G01X11906100Y-4928949D01*
G01X11906692Y-4926018D01*
G01X11907139Y-4923058D01*
G01X11907436Y-4920082D01*
G01X11907586Y-4917095D01*
G01X11907586Y-4914102D01*
G01X11907436Y-4911115D01*
G01X11907139Y-4908139D01*
G01X11906692Y-4905179D01*
G01X11906100Y-4902248D01*
G01X11905361Y-4899348D01*
G01X11904480Y-4896490D01*
G01X11903456Y-4893678D01*
G01X11902295Y-4890922D01*
G01X11900997Y-4888225D01*
G01X11899565Y-4885599D01*
G01X11898005Y-4883046D01*
G01X11896321Y-4880574D01*
G01X11894513Y-4878189D01*
G01X11892590Y-4875898D01*
G01X11890555Y-4873704D01*
G01X11888414Y-4871616D01*
G01X11886171Y-4869635D01*
G01X11883832Y-4867770D01*
G01X11881404Y-4866025D01*
G01X11878889Y-4864402D01*
G01X11876298Y-4862906D01*
G01X11873636Y-4861540D01*
G01X11870911Y-4860310D01*
G01X11868125Y-4859218D01*
G01X11865290Y-4858263D01*
G01X11862410Y-4857453D01*
G01X11859494Y-4856787D01*
G01X11856547Y-4856269D01*
G01X11853578Y-4855896D01*
G01X11850594Y-4855672D01*
G01X11847604Y-4855599D01*
G01X11817604Y-4855599D01*
G01X11814614Y-4855672D01*
G01X11811630Y-4855896D01*
G01X11808661Y-4856269D01*
G01X11805714Y-4856787D01*
G01X11802798Y-4857453D01*
G01X11799918Y-4858263D01*
G01X11797083Y-4859218D01*
G01X11794297Y-4860310D01*
G01X11791572Y-4861540D01*
G01X11788910Y-4862906D01*
G01X11786319Y-4864402D01*
G01X11783804Y-4866025D01*
G01X11781376Y-4867770D01*
G01X11779037Y-4869635D01*
G01X11776794Y-4871616D01*
G01X11774653Y-4873704D01*
G01X11772618Y-4875898D01*
G01X11770695Y-4878189D01*
G01X11768887Y-4880574D01*
G01X11767203Y-4883046D01*
G01X11765643Y-4885599D01*
G01X11764211Y-4888225D01*
G01X11762913Y-4890922D01*
G01X11761752Y-4893678D01*
G01X11760728Y-4896490D01*
G01X11759847Y-4899348D01*
G01X11759108Y-4902248D01*
G01X11758516Y-4905179D01*
G01X11758069Y-4908139D01*
G01X11757772Y-4911115D01*
G37*
G36*
G01X11757622Y-4052098D02*
G01X11757772Y-4055085D01*
G01X11758069Y-4058061D01*
G01X11758516Y-4061021D01*
G01X11759108Y-4063952D01*
G01X11759847Y-4066852D01*
G01X11760728Y-4069710D01*
G01X11761752Y-4072522D01*
G01X11762913Y-4075278D01*
G01X11764211Y-4077975D01*
G01X11765643Y-4080601D01*
G01X11767203Y-4083154D01*
G01X11768887Y-4085626D01*
G01X11770695Y-4088011D01*
G01X11772618Y-4090302D01*
G01X11774653Y-4092496D01*
G01X11776794Y-4094584D01*
G01X11779037Y-4096565D01*
G01X11781376Y-4098430D01*
G01X11783804Y-4100175D01*
G01X11786319Y-4101798D01*
G01X11788910Y-4103294D01*
G01X11791572Y-4104660D01*
G01X11794297Y-4105890D01*
G01X11797083Y-4106982D01*
G01X11799918Y-4107937D01*
G01X11802798Y-4108747D01*
G01X11805714Y-4109413D01*
G01X11808661Y-4109931D01*
G01X11811630Y-4110304D01*
G01X11814614Y-4110528D01*
G01X11817604Y-4110601D01*
G01X11847604Y-4110601D01*
G01X11850594Y-4110528D01*
G01X11853578Y-4110304D01*
G01X11856547Y-4109931D01*
G01X11859494Y-4109413D01*
G01X11862410Y-4108747D01*
G01X11865290Y-4107937D01*
G01X11868125Y-4106982D01*
G01X11870911Y-4105890D01*
G01X11873636Y-4104660D01*
G01X11876298Y-4103294D01*
G01X11878889Y-4101798D01*
G01X11881404Y-4100175D01*
G01X11883832Y-4098430D01*
G01X11886171Y-4096565D01*
G01X11888414Y-4094584D01*
G01X11890555Y-4092496D01*
G01X11892590Y-4090302D01*
G01X11894513Y-4088011D01*
G01X11896321Y-4085626D01*
G01X11898005Y-4083154D01*
G01X11899565Y-4080601D01*
G01X11900997Y-4077975D01*
G01X11902295Y-4075278D01*
G01X11903456Y-4072522D01*
G01X11904480Y-4069710D01*
G01X11905361Y-4066852D01*
G01X11906100Y-4063952D01*
G01X11906692Y-4061021D01*
G01X11907139Y-4058061D01*
G01X11907436Y-4055085D01*
G01X11907586Y-4052098D01*
G01X11907586Y-4049105D01*
G01X11907436Y-4046118D01*
G01X11907139Y-4043142D01*
G01X11906692Y-4040182D01*
G01X11906100Y-4037251D01*
G01X11905361Y-4034351D01*
G01X11904480Y-4031493D01*
G01X11903456Y-4028681D01*
G01X11902295Y-4025925D01*
G01X11900997Y-4023228D01*
G01X11899565Y-4020602D01*
G01X11898005Y-4018049D01*
G01X11896321Y-4015577D01*
G01X11894513Y-4013192D01*
G01X11892590Y-4010901D01*
G01X11890555Y-4008707D01*
G01X11888414Y-4006619D01*
G01X11886171Y-4004638D01*
G01X11883832Y-4002773D01*
G01X11881404Y-4001028D01*
G01X11878889Y-3999405D01*
G01X11876298Y-3997909D01*
G01X11873636Y-3996543D01*
G01X11870911Y-3995313D01*
G01X11868125Y-3994221D01*
G01X11865290Y-3993266D01*
G01X11862410Y-3992456D01*
G01X11859494Y-3991790D01*
G01X11856547Y-3991272D01*
G01X11853578Y-3990899D01*
G01X11850594Y-3990675D01*
G01X11847604Y-3990602D01*
G01X11817604Y-3990602D01*
G01X11814614Y-3990675D01*
G01X11811630Y-3990899D01*
G01X11808661Y-3991272D01*
G01X11805714Y-3991790D01*
G01X11802798Y-3992456D01*
G01X11799918Y-3993266D01*
G01X11797083Y-3994221D01*
G01X11794297Y-3995313D01*
G01X11791572Y-3996543D01*
G01X11788910Y-3997909D01*
G01X11786319Y-3999405D01*
G01X11783804Y-4001028D01*
G01X11781376Y-4002773D01*
G01X11779037Y-4004638D01*
G01X11776794Y-4006619D01*
G01X11774653Y-4008707D01*
G01X11772618Y-4010901D01*
G01X11770695Y-4013192D01*
G01X11768887Y-4015577D01*
G01X11767203Y-4018049D01*
G01X11765643Y-4020602D01*
G01X11764211Y-4023228D01*
G01X11762913Y-4025925D01*
G01X11761752Y-4028681D01*
G01X11760728Y-4031493D01*
G01X11759847Y-4034351D01*
G01X11759108Y-4037251D01*
G01X11758516Y-4040182D01*
G01X11758069Y-4043142D01*
G01X11757772Y-4046118D01*
G01X11757622Y-4049105D01*
G01X11757622Y-4052098D01*
G37*
G36*
G01X11412596Y-3149293D02*
G01X11302596Y-3149293D01*
G01X11302596Y-3179295D01*
G01X11412596Y-3179295D01*
G01X11412596Y-3149293D01*
G37*
G36*
G01X11302596Y-3129283D02*
G01X11412596Y-3129283D01*
G01X11412596Y-3099280D01*
G01X11302596Y-3099280D01*
G01X11302596Y-3129283D01*
G37*
G36*
G01X11302596Y-3639302D02*
G01X11412596Y-3639302D01*
G01X11412596Y-3579302D01*
G01X11302596Y-3579302D01*
G01X11302596Y-3639302D01*
G37*
G36*
G01X11412596Y-3199305D02*
G01X11302596Y-3199305D01*
G01X11302596Y-3229308D01*
G01X11412596Y-3229308D01*
G01X11412596Y-3199305D01*
G37*
G36*
G01X11302596Y-3079283D02*
G01X11412596Y-3079283D01*
G01X11412596Y-3019283D01*
G01X11302596Y-3019283D01*
G01X11302596Y-3079283D01*
G37*
G36*
G01X11412596Y-2939298D02*
G01X11302596Y-2939298D01*
G01X11302596Y-2999298D01*
G01X11412596Y-2999298D01*
G01X11412596Y-2939298D01*
G37*
G36*
G01X11412596Y-3249292D02*
G01X11302596Y-3249292D01*
G01X11302596Y-3279295D01*
G01X11412596Y-3279295D01*
G01X11412596Y-3249292D01*
G37*
G36*
G01X11412596Y-3299305D02*
G01X11302596Y-3299305D01*
G01X11302596Y-3329308D01*
G01X11412596Y-3329308D01*
G01X11412596Y-3299305D01*
G37*
G36*
G01X11302596Y-3559292D02*
G01X11412596Y-3559292D01*
G01X11412596Y-3499292D01*
G01X11302596Y-3499292D01*
G01X11302596Y-3559292D01*
G37*
G36*
G01X11412596Y-3349292D02*
G01X11302596Y-3349292D01*
G01X11302596Y-3379295D01*
G01X11412596Y-3379295D01*
G01X11412596Y-3349292D01*
G37*
G36*
G01X11412596Y-3399279D02*
G01X11302596Y-3399279D01*
G01X11302596Y-3429282D01*
G01X11412596Y-3429282D01*
G01X11412596Y-3399279D01*
G37*
G36*
G01X11412596Y-3449292D02*
G01X11302596Y-3449292D01*
G01X11302596Y-3479295D01*
G01X11412596Y-3479295D01*
G01X11412596Y-3449292D01*
G37*
G36*
G01X11312756Y-2852318D02*
G01X11312606Y-2855305D01*
G01X11312606Y-2858298D01*
G01X11312756Y-2861285D01*
G01X11313053Y-2864261D01*
G01X11313500Y-2867221D01*
G01X11314092Y-2870152D01*
G01X11314831Y-2873052D01*
G01X11315713Y-2875910D01*
G01X11316736Y-2878722D01*
G01X11317897Y-2881478D01*
G01X11319195Y-2884175D01*
G01X11320628Y-2886801D01*
G01X11322187Y-2889354D01*
G01X11323871Y-2891826D01*
G01X11325680Y-2894211D01*
G01X11327602Y-2896502D01*
G01X11329637Y-2898696D01*
G01X11331778Y-2900784D01*
G01X11334021Y-2902765D01*
G01X11336360Y-2904630D01*
G01X11338789Y-2906375D01*
G01X11341303Y-2907998D01*
G01X11343894Y-2909494D01*
G01X11346556Y-2910860D01*
G01X11349281Y-2912090D01*
G01X11352068Y-2913182D01*
G01X11354902Y-2914137D01*
G01X11357783Y-2914947D01*
G01X11360699Y-2915613D01*
G01X11363645Y-2916131D01*
G01X11366614Y-2916504D01*
G01X11369599Y-2916728D01*
G01X11372588Y-2916801D01*
G01X11452588Y-2916801D01*
G01X11455578Y-2916728D01*
G01X11458562Y-2916504D01*
G01X11461532Y-2916131D01*
G01X11464478Y-2915613D01*
G01X11467394Y-2914947D01*
G01X11470274Y-2914137D01*
G01X11473109Y-2913182D01*
G01X11475895Y-2912090D01*
G01X11478621Y-2910860D01*
G01X11481283Y-2909494D01*
G01X11483873Y-2907998D01*
G01X11486388Y-2906375D01*
G01X11488816Y-2904630D01*
G01X11491156Y-2902765D01*
G01X11493398Y-2900784D01*
G01X11495540Y-2898696D01*
G01X11497574Y-2896502D01*
G01X11499497Y-2894211D01*
G01X11501305Y-2891826D01*
G01X11502989Y-2889354D01*
G01X11504549Y-2886801D01*
G01X11505982Y-2884175D01*
G01X11507280Y-2881478D01*
G01X11508440Y-2878722D01*
G01X11509464Y-2875910D01*
G01X11510345Y-2873052D01*
G01X11511084Y-2870152D01*
G01X11511676Y-2867221D01*
G01X11512123Y-2864261D01*
G01X11512420Y-2861285D01*
G01X11512570Y-2858298D01*
G01X11512570Y-2855305D01*
G01X11512420Y-2852318D01*
G01X11512123Y-2849342D01*
G01X11511676Y-2846382D01*
G01X11511084Y-2843451D01*
G01X11510345Y-2840551D01*
G01X11509464Y-2837693D01*
G01X11508440Y-2834881D01*
G01X11507280Y-2832125D01*
G01X11505982Y-2829428D01*
G01X11504549Y-2826802D01*
G01X11502989Y-2824249D01*
G01X11501305Y-2821777D01*
G01X11499497Y-2819392D01*
G01X11497574Y-2817101D01*
G01X11495540Y-2814907D01*
G01X11493398Y-2812819D01*
G01X11491156Y-2810838D01*
G01X11488816Y-2808973D01*
G01X11486388Y-2807228D01*
G01X11483873Y-2805605D01*
G01X11481283Y-2804109D01*
G01X11478621Y-2802743D01*
G01X11475895Y-2801513D01*
G01X11473109Y-2800421D01*
G01X11470274Y-2799466D01*
G01X11467394Y-2798656D01*
G01X11464478Y-2797990D01*
G01X11461532Y-2797472D01*
G01X11458562Y-2797099D01*
G01X11455578Y-2796875D01*
G01X11452588Y-2796802D01*
G01X11372588Y-2796802D01*
G01X11369599Y-2796875D01*
G01X11366614Y-2797099D01*
G01X11363645Y-2797472D01*
G01X11360699Y-2797990D01*
G01X11357783Y-2798656D01*
G01X11354902Y-2799466D01*
G01X11352068Y-2800421D01*
G01X11349281Y-2801513D01*
G01X11346556Y-2802743D01*
G01X11343894Y-2804109D01*
G01X11341303Y-2805605D01*
G01X11338789Y-2807228D01*
G01X11336360Y-2808973D01*
G01X11334021Y-2810838D01*
G01X11331778Y-2812819D01*
G01X11329637Y-2814907D01*
G01X11327602Y-2817101D01*
G01X11325680Y-2819392D01*
G01X11323871Y-2821777D01*
G01X11322187Y-2824249D01*
G01X11320628Y-2826802D01*
G01X11319195Y-2829428D01*
G01X11317897Y-2832125D01*
G01X11316736Y-2834881D01*
G01X11315713Y-2837693D01*
G01X11314831Y-2840551D01*
G01X11314092Y-2843451D01*
G01X11313500Y-2846382D01*
G01X11313053Y-2849342D01*
G01X11312756Y-2852318D01*
G37*
G36*
G01X11312606Y-3723295D02*
G01X11312756Y-3726282D01*
G01X11313053Y-3729258D01*
G01X11313500Y-3732218D01*
G01X11314092Y-3735149D01*
G01X11314831Y-3738049D01*
G01X11315713Y-3740907D01*
G01X11316736Y-3743719D01*
G01X11317897Y-3746475D01*
G01X11319195Y-3749172D01*
G01X11320628Y-3751798D01*
G01X11322187Y-3754351D01*
G01X11323871Y-3756823D01*
G01X11325680Y-3759208D01*
G01X11327602Y-3761499D01*
G01X11329637Y-3763693D01*
G01X11331778Y-3765781D01*
G01X11334021Y-3767762D01*
G01X11336360Y-3769627D01*
G01X11338789Y-3771372D01*
G01X11341303Y-3772995D01*
G01X11343894Y-3774491D01*
G01X11346556Y-3775857D01*
G01X11349281Y-3777087D01*
G01X11352068Y-3778179D01*
G01X11354902Y-3779134D01*
G01X11357783Y-3779944D01*
G01X11360699Y-3780610D01*
G01X11363645Y-3781128D01*
G01X11366614Y-3781501D01*
G01X11369599Y-3781725D01*
G01X11372588Y-3781798D01*
G01X11452588Y-3781798D01*
G01X11455578Y-3781725D01*
G01X11458562Y-3781501D01*
G01X11461532Y-3781128D01*
G01X11464478Y-3780610D01*
G01X11467394Y-3779944D01*
G01X11470274Y-3779134D01*
G01X11473109Y-3778179D01*
G01X11475895Y-3777087D01*
G01X11478621Y-3775857D01*
G01X11481283Y-3774491D01*
G01X11483873Y-3772995D01*
G01X11486388Y-3771372D01*
G01X11488816Y-3769627D01*
G01X11491156Y-3767762D01*
G01X11493398Y-3765781D01*
G01X11495540Y-3763693D01*
G01X11497574Y-3761499D01*
G01X11499497Y-3759208D01*
G01X11501305Y-3756823D01*
G01X11502989Y-3754351D01*
G01X11504549Y-3751798D01*
G01X11505982Y-3749172D01*
G01X11507280Y-3746475D01*
G01X11508440Y-3743719D01*
G01X11509464Y-3740907D01*
G01X11510345Y-3738049D01*
G01X11511084Y-3735149D01*
G01X11511676Y-3732218D01*
G01X11512123Y-3729258D01*
G01X11512420Y-3726282D01*
G01X11512570Y-3723295D01*
G01X11512570Y-3720302D01*
G01X11512420Y-3717315D01*
G01X11512123Y-3714339D01*
G01X11511676Y-3711379D01*
G01X11511084Y-3708448D01*
G01X11510345Y-3705548D01*
G01X11509464Y-3702690D01*
G01X11508440Y-3699878D01*
G01X11507280Y-3697122D01*
G01X11505982Y-3694425D01*
G01X11504549Y-3691799D01*
G01X11502989Y-3689246D01*
G01X11501305Y-3686774D01*
G01X11499497Y-3684389D01*
G01X11497574Y-3682098D01*
G01X11495540Y-3679904D01*
G01X11493398Y-3677816D01*
G01X11491156Y-3675835D01*
G01X11488816Y-3673970D01*
G01X11486388Y-3672225D01*
G01X11483873Y-3670602D01*
G01X11481283Y-3669106D01*
G01X11478621Y-3667740D01*
G01X11475895Y-3666510D01*
G01X11473109Y-3665418D01*
G01X11470274Y-3664463D01*
G01X11467394Y-3663653D01*
G01X11464478Y-3662987D01*
G01X11461532Y-3662469D01*
G01X11458562Y-3662096D01*
G01X11455578Y-3661872D01*
G01X11452588Y-3661799D01*
G01X11372588Y-3661799D01*
G01X11369599Y-3661872D01*
G01X11366614Y-3662096D01*
G01X11363645Y-3662469D01*
G01X11360699Y-3662987D01*
G01X11357783Y-3663653D01*
G01X11354902Y-3664463D01*
G01X11352068Y-3665418D01*
G01X11349281Y-3666510D01*
G01X11346556Y-3667740D01*
G01X11343894Y-3669106D01*
G01X11341303Y-3670602D01*
G01X11338789Y-3672225D01*
G01X11336360Y-3673970D01*
G01X11334021Y-3675835D01*
G01X11331778Y-3677816D01*
G01X11329637Y-3679904D01*
G01X11327602Y-3682098D01*
G01X11325680Y-3684389D01*
G01X11323871Y-3686774D01*
G01X11322187Y-3689246D01*
G01X11320628Y-3691799D01*
G01X11319195Y-3694425D01*
G01X11317897Y-3697122D01*
G01X11316736Y-3699878D01*
G01X11315713Y-3702690D01*
G01X11314831Y-3705548D01*
G01X11314092Y-3708448D01*
G01X11313500Y-3711379D01*
G01X11313053Y-3714339D01*
G01X11312756Y-3717315D01*
G01X11312606Y-3720302D01*
G01X11312606Y-3723295D01*
G37*
G36*
G01X11757772Y-3717315D02*
G01X11757622Y-3720302D01*
G01X11757622Y-3723295D01*
G01X11757772Y-3726282D01*
G01X11758069Y-3729258D01*
G01X11758516Y-3732218D01*
G01X11759108Y-3735149D01*
G01X11759847Y-3738049D01*
G01X11760728Y-3740907D01*
G01X11761752Y-3743719D01*
G01X11762913Y-3746475D01*
G01X11764211Y-3749172D01*
G01X11765643Y-3751798D01*
G01X11767203Y-3754351D01*
G01X11768887Y-3756823D01*
G01X11770695Y-3759208D01*
G01X11772618Y-3761499D01*
G01X11774653Y-3763693D01*
G01X11776794Y-3765781D01*
G01X11779037Y-3767762D01*
G01X11781376Y-3769627D01*
G01X11783804Y-3771372D01*
G01X11786319Y-3772995D01*
G01X11788910Y-3774491D01*
G01X11791572Y-3775857D01*
G01X11794297Y-3777087D01*
G01X11797083Y-3778179D01*
G01X11799918Y-3779134D01*
G01X11802798Y-3779944D01*
G01X11805714Y-3780610D01*
G01X11808661Y-3781128D01*
G01X11811630Y-3781501D01*
G01X11814614Y-3781725D01*
G01X11817604Y-3781798D01*
G01X11847604Y-3781798D01*
G01X11850594Y-3781725D01*
G01X11853578Y-3781501D01*
G01X11856547Y-3781128D01*
G01X11859494Y-3780610D01*
G01X11862410Y-3779944D01*
G01X11865290Y-3779134D01*
G01X11868125Y-3778179D01*
G01X11870911Y-3777087D01*
G01X11873636Y-3775857D01*
G01X11876298Y-3774491D01*
G01X11878889Y-3772995D01*
G01X11881404Y-3771372D01*
G01X11883832Y-3769627D01*
G01X11886171Y-3767762D01*
G01X11888414Y-3765781D01*
G01X11890555Y-3763693D01*
G01X11892590Y-3761499D01*
G01X11894513Y-3759208D01*
G01X11896321Y-3756823D01*
G01X11898005Y-3754351D01*
G01X11899565Y-3751798D01*
G01X11900997Y-3749172D01*
G01X11902295Y-3746475D01*
G01X11903456Y-3743719D01*
G01X11904480Y-3740907D01*
G01X11905361Y-3738049D01*
G01X11906100Y-3735149D01*
G01X11906692Y-3732218D01*
G01X11907139Y-3729258D01*
G01X11907436Y-3726282D01*
G01X11907586Y-3723295D01*
G01X11907586Y-3720302D01*
G01X11907436Y-3717315D01*
G01X11907139Y-3714339D01*
G01X11906692Y-3711379D01*
G01X11906100Y-3708448D01*
G01X11905361Y-3705548D01*
G01X11904480Y-3702690D01*
G01X11903456Y-3699878D01*
G01X11902295Y-3697122D01*
G01X11900997Y-3694425D01*
G01X11899565Y-3691799D01*
G01X11898005Y-3689246D01*
G01X11896321Y-3686774D01*
G01X11894513Y-3684389D01*
G01X11892590Y-3682098D01*
G01X11890555Y-3679904D01*
G01X11888414Y-3677816D01*
G01X11886171Y-3675835D01*
G01X11883832Y-3673970D01*
G01X11881404Y-3672225D01*
G01X11878889Y-3670602D01*
G01X11876298Y-3669106D01*
G01X11873636Y-3667740D01*
G01X11870911Y-3666510D01*
G01X11868125Y-3665418D01*
G01X11865290Y-3664463D01*
G01X11862410Y-3663653D01*
G01X11859494Y-3662987D01*
G01X11856547Y-3662469D01*
G01X11853578Y-3662096D01*
G01X11850594Y-3661872D01*
G01X11847604Y-3661799D01*
G01X11817604Y-3661799D01*
G01X11814614Y-3661872D01*
G01X11811630Y-3662096D01*
G01X11808661Y-3662469D01*
G01X11805714Y-3662987D01*
G01X11802798Y-3663653D01*
G01X11799918Y-3664463D01*
G01X11797083Y-3665418D01*
G01X11794297Y-3666510D01*
G01X11791572Y-3667740D01*
G01X11788910Y-3669106D01*
G01X11786319Y-3670602D01*
G01X11783804Y-3672225D01*
G01X11781376Y-3673970D01*
G01X11779037Y-3675835D01*
G01X11776794Y-3677816D01*
G01X11774653Y-3679904D01*
G01X11772618Y-3682098D01*
G01X11770695Y-3684389D01*
G01X11768887Y-3686774D01*
G01X11767203Y-3689246D01*
G01X11765643Y-3691799D01*
G01X11764211Y-3694425D01*
G01X11762913Y-3697122D01*
G01X11761752Y-3699878D01*
G01X11760728Y-3702690D01*
G01X11759847Y-3705548D01*
G01X11759108Y-3708448D01*
G01X11758516Y-3711379D01*
G01X11758069Y-3714339D01*
G01X11757772Y-3717315D01*
G37*
G36*
G01X11757622Y-2858298D02*
G01X11757772Y-2861285D01*
G01X11758069Y-2864261D01*
G01X11758516Y-2867221D01*
G01X11759108Y-2870152D01*
G01X11759847Y-2873052D01*
G01X11760728Y-2875910D01*
G01X11761752Y-2878722D01*
G01X11762913Y-2881478D01*
G01X11764211Y-2884175D01*
G01X11765643Y-2886801D01*
G01X11767203Y-2889354D01*
G01X11768887Y-2891826D01*
G01X11770695Y-2894211D01*
G01X11772618Y-2896502D01*
G01X11774653Y-2898696D01*
G01X11776794Y-2900784D01*
G01X11779037Y-2902765D01*
G01X11781376Y-2904630D01*
G01X11783804Y-2906375D01*
G01X11786319Y-2907998D01*
G01X11788910Y-2909494D01*
G01X11791572Y-2910860D01*
G01X11794297Y-2912090D01*
G01X11797083Y-2913182D01*
G01X11799918Y-2914137D01*
G01X11802798Y-2914947D01*
G01X11805714Y-2915613D01*
G01X11808661Y-2916131D01*
G01X11811630Y-2916504D01*
G01X11814614Y-2916728D01*
G01X11817604Y-2916801D01*
G01X11847604Y-2916801D01*
G01X11850594Y-2916728D01*
G01X11853578Y-2916504D01*
G01X11856547Y-2916131D01*
G01X11859494Y-2915613D01*
G01X11862410Y-2914947D01*
G01X11865290Y-2914137D01*
G01X11868125Y-2913182D01*
G01X11870911Y-2912090D01*
G01X11873636Y-2910860D01*
G01X11876298Y-2909494D01*
G01X11878889Y-2907998D01*
G01X11881404Y-2906375D01*
G01X11883832Y-2904630D01*
G01X11886171Y-2902765D01*
G01X11888414Y-2900784D01*
G01X11890555Y-2898696D01*
G01X11892590Y-2896502D01*
G01X11894513Y-2894211D01*
G01X11896321Y-2891826D01*
G01X11898005Y-2889354D01*
G01X11899565Y-2886801D01*
G01X11900997Y-2884175D01*
G01X11902295Y-2881478D01*
G01X11903456Y-2878722D01*
G01X11904480Y-2875910D01*
G01X11905361Y-2873052D01*
G01X11906100Y-2870152D01*
G01X11906692Y-2867221D01*
G01X11907139Y-2864261D01*
G01X11907436Y-2861285D01*
G01X11907586Y-2858298D01*
G01X11907586Y-2855305D01*
G01X11907436Y-2852318D01*
G01X11907139Y-2849342D01*
G01X11906692Y-2846382D01*
G01X11906100Y-2843451D01*
G01X11905361Y-2840551D01*
G01X11904480Y-2837693D01*
G01X11903456Y-2834881D01*
G01X11902295Y-2832125D01*
G01X11900997Y-2829428D01*
G01X11899565Y-2826802D01*
G01X11898005Y-2824249D01*
G01X11896321Y-2821777D01*
G01X11894513Y-2819392D01*
G01X11892590Y-2817101D01*
G01X11890555Y-2814907D01*
G01X11888414Y-2812819D01*
G01X11886171Y-2810838D01*
G01X11883832Y-2808973D01*
G01X11881404Y-2807228D01*
G01X11878889Y-2805605D01*
G01X11876298Y-2804109D01*
G01X11873636Y-2802743D01*
G01X11870911Y-2801513D01*
G01X11868125Y-2800421D01*
G01X11865290Y-2799466D01*
G01X11862410Y-2798656D01*
G01X11859494Y-2797990D01*
G01X11856547Y-2797472D01*
G01X11853578Y-2797099D01*
G01X11850594Y-2796875D01*
G01X11847604Y-2796802D01*
G01X11817604Y-2796802D01*
G01X11814614Y-2796875D01*
G01X11811630Y-2797099D01*
G01X11808661Y-2797472D01*
G01X11805714Y-2797990D01*
G01X11802798Y-2798656D01*
G01X11799918Y-2799466D01*
G01X11797083Y-2800421D01*
G01X11794297Y-2801513D01*
G01X11791572Y-2802743D01*
G01X11788910Y-2804109D01*
G01X11786319Y-2805605D01*
G01X11783804Y-2807228D01*
G01X11781376Y-2808973D01*
G01X11779037Y-2810838D01*
G01X11776794Y-2812819D01*
G01X11774653Y-2814907D01*
G01X11772618Y-2817101D01*
G01X11770695Y-2819392D01*
G01X11768887Y-2821777D01*
G01X11767203Y-2824249D01*
G01X11765643Y-2826802D01*
G01X11764211Y-2829428D01*
G01X11762913Y-2832125D01*
G01X11761752Y-2834881D01*
G01X11760728Y-2837693D01*
G01X11759847Y-2840551D01*
G01X11759108Y-2843451D01*
G01X11758516Y-2846382D01*
G01X11758069Y-2849342D01*
G01X11757772Y-2852318D01*
G01X11757622Y-2855305D01*
G01X11757622Y-2858298D01*
G37*
G36*
G01X2024723Y-6537344D02*
G01X2024723Y-6313333D01*
G01X2248734Y-6313333D01*
G01X2248734Y-6537344D01*
G01X2024723Y-6537344D01*
G37*
G36*
G01X2286727Y-6245325D02*
G02X2266727Y-6245325I-10000J0D01*
G01X2266727Y-6195330D01*
G02X2286727Y-6195330I10000J0D01*
G01X2286727Y-6245325D01*
G37*
G36*
G01X2246722Y-6245325D02*
G02X2226722Y-6245325I-10000J0D01*
G01X2226722Y-6195330D01*
G02X2246722Y-6195330I10000J0D01*
G01X2246722Y-6245325D01*
G37*
G36*
G01X2206714Y-6245325D02*
G02X2186714Y-6245325I-10000J0D01*
G01X2186714Y-6195330D01*
G02X2206714Y-6195330I10000J0D01*
G01X2206714Y-6245325D01*
G37*
G36*
G01X2166712Y-6245325D02*
G02X2146709Y-6245325I-10001J0D01*
G01X2146709Y-6195330D01*
G02X2166712Y-6195330I10001J0D01*
G01X2166712Y-6245325D01*
G37*
G36*
G01X2126730Y-6245325D02*
G02X2106730Y-6245325I-10000J0D01*
G01X2106730Y-6195330D01*
G02X2126730Y-6195330I10000J0D01*
G01X2126730Y-6245325D01*
G37*
G36*
G01X2086725Y-6245325D02*
G02X2066725Y-6245325I-10000J0D01*
G01X2066725Y-6195330D01*
G02X2086725Y-6195330I10000J0D01*
G01X2086725Y-6245325D01*
G37*
G36*
G01X2046722Y-6245325D02*
G02X2026722Y-6245325I-10000J0D01*
G01X2026722Y-6195330D01*
G02X2046722Y-6195330I10000J0D01*
G01X2046722Y-6245325D01*
G37*
G36*
G01X2006717Y-6245325D02*
G02X1986717Y-6245325I-10000J0D01*
G01X1986717Y-6195330D01*
G02X2006717Y-6195330I10000J0D01*
G01X2006717Y-6245325D01*
G37*
G36*
G01X2006717Y-6655337D02*
G02X1986717Y-6655337I-10000J0D01*
G01X1986717Y-6605332D01*
G02X2006717Y-6605332I10000J0D01*
G01X2006717Y-6655337D01*
G37*
G36*
G01X2046722Y-6655337D02*
G02X2026722Y-6655337I-10000J0D01*
G01X2026722Y-6605332D01*
G02X2046722Y-6605332I10000J0D01*
G01X2046722Y-6655337D01*
G37*
G36*
G01X2086725Y-6655337D02*
G02X2066725Y-6655337I-10000J0D01*
G01X2066725Y-6605332D01*
G02X2086725Y-6605332I10000J0D01*
G01X2086725Y-6655337D01*
G37*
G36*
G01X2126730Y-6655337D02*
G02X2106730Y-6655337I-10000J0D01*
G01X2106730Y-6605332D01*
G02X2126730Y-6605332I10000J0D01*
G01X2126730Y-6655337D01*
G37*
G36*
G01X2166712Y-6655337D02*
G02X2146709Y-6655337I-10001J0D01*
G01X2146709Y-6605332D01*
G02X2166712Y-6605332I10001J0D01*
G01X2166712Y-6655337D01*
G37*
G36*
G01X2206714Y-6655337D02*
G02X2186714Y-6655337I-10000J0D01*
G01X2186714Y-6605332D01*
G02X2206714Y-6605332I10000J0D01*
G01X2206714Y-6655337D01*
G37*
G36*
G01X2246722Y-6655337D02*
G02X2226722Y-6655337I-10000J0D01*
G01X2226722Y-6605332D01*
G02X2246722Y-6605332I10000J0D01*
G01X2246722Y-6655337D01*
G37*
G36*
G01X2286727Y-6655337D02*
G02X2266727Y-6655337I-10000J0D01*
G01X2266727Y-6605332D01*
G02X2286727Y-6605332I10000J0D01*
G01X2286727Y-6655337D01*
G37*
G36*
G01X2316727Y-6575342D02*
G02X2316727Y-6555337I0J10003D01*
G01X2366727Y-6555337D01*
G02X2366727Y-6575342I0J-10003D01*
G01X2316727Y-6575342D01*
G37*
G36*
G01X2316727Y-6535355D02*
G02X2316727Y-6515362I276J9996D01*
G01X2366727Y-6515362D01*
G02X2366727Y-6535355I-276J-9996D01*
G01X2316727Y-6535355D01*
G37*
G36*
G01X2316727Y-6495357D02*
G02X2316727Y-6475352I0J10003D01*
G01X2366727Y-6475352D01*
G02X2366727Y-6495357I0J-10003D01*
G01X2316727Y-6495357D01*
G37*
G36*
G01X2316727Y-6455347D02*
G02X2316727Y-6435352I225J9997D01*
G01X2366727Y-6435352D01*
G02X2366727Y-6455347I-225J-9997D01*
G01X2316727Y-6455347D01*
G37*
G36*
G01X2316727Y-6415337D02*
G02X2316727Y-6395345I276J9996D01*
G01X2366727Y-6395345D01*
G02X2366727Y-6415337I-276J-9996D01*
G01X2316727Y-6415337D01*
G37*
G36*
G01X2316727Y-6375340D02*
G02X2316727Y-6355345I225J9997D01*
G01X2366727Y-6355345D01*
G02X2366727Y-6375340I-225J-9997D01*
G01X2316727Y-6375340D01*
G37*
G36*
G01X2316727Y-6335353D02*
G02X2316727Y-6315360I276J9996D01*
G01X2366727Y-6315360D01*
G02X2366727Y-6335353I-276J-9996D01*
G01X2316727Y-6335353D01*
G37*
G36*
G01X2316727Y-6295355D02*
G02X2316727Y-6275360I225J9997D01*
G01X2366727Y-6275360D01*
G02X2366727Y-6295355I-225J-9997D01*
G01X2316727Y-6295355D01*
G37*
G36*
G01X1906720Y-6295355D02*
G02X1906720Y-6275360I225J9997D01*
G01X1956720Y-6275360D01*
G02X1956720Y-6295355I-225J-9997D01*
G01X1906720Y-6295355D01*
G37*
G36*
G01X1906720Y-6335353D02*
G02X1906720Y-6315360I276J9996D01*
G01X1956720Y-6315360D01*
G02X1956720Y-6335353I-276J-9996D01*
G01X1906720Y-6335353D01*
G37*
G36*
G01X1906720Y-6375340D02*
G02X1906720Y-6355345I225J9997D01*
G01X1956720Y-6355345D01*
G02X1956720Y-6375340I-225J-9997D01*
G01X1906720Y-6375340D01*
G37*
G36*
G01X1906720Y-6415337D02*
G02X1906720Y-6395345I276J9996D01*
G01X1956720Y-6395345D01*
G02X1956720Y-6415337I-276J-9996D01*
G01X1906720Y-6415337D01*
G37*
G36*
G01X1906720Y-6455347D02*
G02X1906720Y-6435352I225J9997D01*
G01X1956720Y-6435352D01*
G02X1956720Y-6455347I-225J-9997D01*
G01X1906720Y-6455347D01*
G37*
G36*
G01X1906720Y-6495357D02*
G02X1906720Y-6475352I0J10003D01*
G01X1956720Y-6475352D01*
G02X1956720Y-6495357I0J-10003D01*
G01X1906720Y-6495357D01*
G37*
G36*
G01X1906720Y-6535355D02*
G02X1906720Y-6515362I276J9996D01*
G01X1956720Y-6515362D01*
G02X1956720Y-6535355I-276J-9996D01*
G01X1906720Y-6535355D01*
G37*
G36*
G01X1906720Y-6575342D02*
G02X1906720Y-6555337I0J10003D01*
G01X1956720Y-6555337D01*
G02X1956720Y-6575342I0J-10003D01*
G01X1906720Y-6575342D01*
G37*
G36*
G01X3500704Y-1976694D02*
G01X3636706Y-1976694D01*
G01X3636706Y-2112696D01*
G01X3500704Y-2112696D01*
G01X3500704Y-1976694D01*
G37*
G36*
G01X3498693Y-2154697D02*
G01X3478693Y-2154697D01*
G01X3478693Y-2234697D01*
G01X3498693Y-2234697D01*
G01X3498693Y-2154697D01*
G37*
G36*
G01X3538698Y-2154697D02*
G01X3518698Y-2154697D01*
G01X3518698Y-2234697D01*
G01X3538698Y-2234697D01*
G01X3538698Y-2154697D01*
G37*
G36*
G01X3578677Y-2154697D02*
G01X3558677Y-2154697D01*
G01X3558677Y-2234697D01*
G01X3578677Y-2234697D01*
G01X3578677Y-2154697D01*
G37*
G36*
G01X3618682Y-2154697D02*
G01X3598682Y-2154697D01*
G01X3598682Y-2234697D01*
G01X3618682Y-2234697D01*
G01X3618682Y-2154697D01*
G37*
G36*
G01X3658687Y-2154697D02*
G01X3638687Y-2154697D01*
G01X3638687Y-2234697D01*
G01X3658687Y-2234697D01*
G01X3658687Y-2154697D01*
G37*
G36*
G01X3498718Y-1854698D02*
G01X3478718Y-1854698D01*
G01X3478718Y-1934698D01*
G01X3498718Y-1934698D01*
G01X3498718Y-1854698D01*
G37*
G36*
G01X3538723Y-1854698D02*
G01X3518723Y-1854698D01*
G01X3518723Y-1934698D01*
G01X3538723Y-1934698D01*
G01X3538723Y-1854698D01*
G37*
G36*
G01X3578703Y-1854698D02*
G01X3558703Y-1854698D01*
G01X3558703Y-1934698D01*
G01X3578703Y-1934698D01*
G01X3578703Y-1854698D01*
G37*
G36*
G01X3618708Y-1854698D02*
G01X3598708Y-1854698D01*
G01X3598708Y-1934698D01*
G01X3618708Y-1934698D01*
G01X3618708Y-1854698D01*
G37*
G36*
G01X3658713Y-1854698D02*
G01X3638713Y-1854698D01*
G01X3638713Y-1934698D01*
G01X3658713Y-1934698D01*
G01X3658713Y-1854698D01*
G37*
G36*
G01X3678697Y-2114707D02*
G01X3678697Y-2134707D01*
G01X3758697Y-2134707D01*
G01X3758697Y-2114707D01*
G01X3678697Y-2114707D01*
G37*
G36*
G01X3678697Y-2074702D02*
G01X3678697Y-2094702D01*
G01X3758697Y-2094702D01*
G01X3758697Y-2074702D01*
G01X3678697Y-2074702D01*
G37*
G36*
G01X3678697Y-2034723D02*
G01X3678697Y-2054723D01*
G01X3758697Y-2054723D01*
G01X3758697Y-2034723D01*
G01X3678697Y-2034723D01*
G37*
G36*
G01X3678697Y-1994718D02*
G01X3678697Y-2014718D01*
G01X3758697Y-2014718D01*
G01X3758697Y-1994718D01*
G01X3678697Y-1994718D01*
G37*
G36*
G01X3678697Y-1954713D02*
G01X3678697Y-1974713D01*
G01X3758697Y-1974713D01*
G01X3758697Y-1954713D01*
G01X3678697Y-1954713D01*
G37*
G36*
G01X3378698Y-2114707D02*
G01X3378698Y-2134707D01*
G01X3458698Y-2134707D01*
G01X3458698Y-2114707D01*
G01X3378698Y-2114707D01*
G37*
G36*
G01X3378698Y-2074702D02*
G01X3378698Y-2094702D01*
G01X3458698Y-2094702D01*
G01X3458698Y-2074702D01*
G01X3378698Y-2074702D01*
G37*
G36*
G01X3378698Y-2034723D02*
G01X3378698Y-2054723D01*
G01X3458698Y-2054723D01*
G01X3458698Y-2034723D01*
G01X3378698Y-2034723D01*
G37*
G36*
G01X3378698Y-1994718D02*
G01X3378698Y-2014718D01*
G01X3458698Y-2014718D01*
G01X3458698Y-1994718D01*
G01X3378698Y-1994718D01*
G37*
G36*
G01X3378698Y-1954713D02*
G01X3378698Y-1974713D01*
G01X3458698Y-1974713D01*
G01X3458698Y-1954713D01*
G01X3378698Y-1954713D01*
G37*
G36*
G01X10874299Y-2383579D02*
G01X10944301Y-2383579D01*
G01X10944301Y-2363579D01*
G01X10874299Y-2363579D01*
G01X10874299Y-2383579D01*
G37*
G36*
G01X10944301Y-2323600D02*
G01X10874299Y-2323600D01*
G01X10874299Y-2343600D01*
G01X10944301Y-2343600D01*
G01X10944301Y-2323600D01*
G37*
G36*
G01X10874299Y-2143600D02*
G01X10944301Y-2143600D01*
G01X10944301Y-2123600D01*
G01X10874299Y-2123600D01*
G01X10874299Y-2143600D01*
G37*
G36*
G01X10874299Y-2183580D02*
G01X10944301Y-2183580D01*
G01X10944301Y-2163580D01*
G01X10874299Y-2163580D01*
G01X10874299Y-2183580D01*
G37*
G36*
G01X10874299Y-2223610D02*
G01X10944301Y-2223610D01*
G01X10944301Y-2203610D01*
G01X10874299Y-2203610D01*
G01X10874299Y-2223610D01*
G37*
G36*
G01X10944301Y-2283569D02*
G01X10874299Y-2283569D01*
G01X10874299Y-2303569D01*
G01X10944301Y-2303569D01*
G01X10944301Y-2283569D01*
G37*
G36*
G01X10874299Y-2263590D02*
G01X10944301Y-2263590D01*
G01X10944301Y-2243590D01*
G01X10874299Y-2243590D01*
G01X10874299Y-2263590D01*
G37*
G36*
G01X10601300Y-2361593D02*
G01X10817299Y-2361593D01*
G01X10817299Y-2145591D01*
G01X10601300Y-2145591D01*
G01X10601300Y-2361593D01*
G37*
G36*
G01X10839290Y-2018589D02*
G01X10819290Y-2018589D01*
G01X10819290Y-2088591D01*
G01X10839290Y-2088591D01*
G01X10839290Y-2018589D01*
G37*
G36*
G01X10819290Y-2488590D02*
G01X10839290Y-2488590D01*
G01X10839290Y-2418588D01*
G01X10819290Y-2418588D01*
G01X10819290Y-2488590D01*
G37*
G36*
G01X10799310Y-2018589D02*
G01X10779310Y-2018589D01*
G01X10779310Y-2088591D01*
G01X10799310Y-2088591D01*
G01X10799310Y-2018589D01*
G37*
G36*
G01X10779310Y-2488590D02*
G01X10799310Y-2488590D01*
G01X10799310Y-2418588D01*
G01X10779310Y-2418588D01*
G01X10779310Y-2488590D01*
G37*
G36*
G01X10759280Y-2018589D02*
G01X10739280Y-2018589D01*
G01X10739280Y-2088591D01*
G01X10759280Y-2088591D01*
G01X10759280Y-2018589D01*
G37*
G36*
G01X10739280Y-2488590D02*
G01X10759280Y-2488590D01*
G01X10759280Y-2418588D01*
G01X10739280Y-2418588D01*
G01X10739280Y-2488590D01*
G37*
G36*
G01X10719300Y-2018614D02*
G01X10699300Y-2018614D01*
G01X10699300Y-2088617D01*
G01X10719300Y-2088617D01*
G01X10719300Y-2018614D01*
G37*
G36*
G01X10699300Y-2488514D02*
G01X10719300Y-2488514D01*
G01X10719300Y-2418512D01*
G01X10699300Y-2418512D01*
G01X10699300Y-2488514D01*
G37*
G36*
G01X10679321Y-2018589D02*
G01X10659321Y-2018589D01*
G01X10659321Y-2088591D01*
G01X10679321Y-2088591D01*
G01X10679321Y-2018589D01*
G37*
G36*
G01X10659295Y-2488590D02*
G01X10679295Y-2488590D01*
G01X10679295Y-2418588D01*
G01X10659295Y-2418588D01*
G01X10659295Y-2488590D01*
G37*
G36*
G01X10639290Y-2018589D02*
G01X10619290Y-2018589D01*
G01X10619290Y-2088591D01*
G01X10639290Y-2088591D01*
G01X10639290Y-2018589D01*
G37*
G36*
G01X10619290Y-2488590D02*
G01X10639290Y-2488590D01*
G01X10639290Y-2418588D01*
G01X10619290Y-2418588D01*
G01X10619290Y-2488590D01*
G37*
G36*
G01X10599311Y-2018589D02*
G01X10579311Y-2018589D01*
G01X10579311Y-2088591D01*
G01X10599311Y-2088591D01*
G01X10599311Y-2018589D01*
G37*
G36*
G01X10599311Y-2418588D02*
G01X10579311Y-2418588D01*
G01X10579311Y-2488590D01*
G01X10599311Y-2488590D01*
G01X10599311Y-2418588D01*
G37*
G36*
G01X10474300Y-2143600D02*
G01X10544302Y-2143600D01*
G01X10544302Y-2123600D01*
G01X10474300Y-2123600D01*
G01X10474300Y-2143600D01*
G37*
G36*
G01X10544302Y-2243488D02*
G01X10474300Y-2243488D01*
G01X10474300Y-2263488D01*
G01X10544302Y-2263488D01*
G01X10544302Y-2243488D01*
G37*
G36*
G01X10474300Y-2183580D02*
G01X10544302Y-2183580D01*
G01X10544302Y-2163580D01*
G01X10474300Y-2163580D01*
G01X10474300Y-2183580D01*
G37*
G36*
G01X10474300Y-2223610D02*
G01X10544302Y-2223610D01*
G01X10544302Y-2203610D01*
G01X10474300Y-2203610D01*
G01X10474300Y-2223610D01*
G37*
G36*
G01X10474300Y-2383579D02*
G01X10544302Y-2383579D01*
G01X10544302Y-2363579D01*
G01X10474300Y-2363579D01*
G01X10474300Y-2383579D01*
G37*
G36*
G01X10544302Y-2283595D02*
G01X10474300Y-2283595D01*
G01X10474300Y-2303595D01*
G01X10544302Y-2303595D01*
G01X10544302Y-2283595D01*
G37*
G36*
G01X10474300Y-2343600D02*
G01X10544302Y-2343600D01*
G01X10544302Y-2323600D01*
G01X10474300Y-2323600D01*
G01X10474300Y-2343600D01*
G37*
G36*
G01X10319202Y-6941698D02*
G01X10319202Y-7021698D01*
G01X10324203Y-7026699D01*
G01X10347000Y-7026699D01*
G01X10347000Y-6989699D01*
G01X10380000Y-6989699D01*
G01X10380000Y-7026699D01*
G01X10404203Y-7026699D01*
G01X10409202Y-7021698D01*
G01X10409202Y-6941698D01*
G01X10404203Y-6936699D01*
G01X10324203Y-6936699D01*
G01X10319202Y-6941698D01*
G37*
G36*
G01X10409199Y-7180702D02*
G01X10409199Y-7100702D01*
G01X10404198Y-7095701D01*
G01X10381402Y-7095701D01*
G01X10381402Y-7132701D01*
G01X10348402Y-7132701D01*
G01X10348402Y-7095701D01*
G01X10324198Y-7095701D01*
G01X10319200Y-7100702D01*
G01X10319200Y-7180702D01*
G01X10324198Y-7185701D01*
G01X10404198Y-7185701D01*
G01X10409199Y-7180702D01*
G37*
G36*
G01X10409199Y-7790302D02*
G01X10409199Y-7710302D01*
G01X10404198Y-7705301D01*
G01X10381402Y-7705301D01*
G01X10381402Y-7742301D01*
G01X10348402Y-7742301D01*
G01X10348402Y-7705301D01*
G01X10324198Y-7705301D01*
G01X10319200Y-7710302D01*
G01X10319200Y-7790302D01*
G01X10324198Y-7795301D01*
G01X10404198Y-7795301D01*
G01X10409199Y-7790302D01*
G37*
G36*
G01X10319202Y-7551298D02*
G01X10319202Y-7631298D01*
G01X10324203Y-7636299D01*
G01X10347000Y-7636299D01*
G01X10347000Y-7599299D01*
G01X10380000Y-7599299D01*
G01X10380000Y-7636299D01*
G01X10404203Y-7636299D01*
G01X10409202Y-7631298D01*
G01X10409202Y-7551298D01*
G01X10404203Y-7546299D01*
G01X10324203Y-7546299D01*
G01X10319202Y-7551298D01*
G37*
G36*
G01X10409199Y-8107802D02*
G01X10409199Y-8027802D01*
G01X10404198Y-8022801D01*
G01X10381402Y-8022801D01*
G01X10381402Y-8059801D01*
G01X10348402Y-8059801D01*
G01X10348402Y-8022801D01*
G01X10324198Y-8022801D01*
G01X10319200Y-8027802D01*
G01X10319200Y-8107802D01*
G01X10324198Y-8112801D01*
G01X10404198Y-8112801D01*
G01X10409199Y-8107802D01*
G37*
G36*
G01X10319202Y-7868798D02*
G01X10319202Y-7948798D01*
G01X10324203Y-7953799D01*
G01X10347000Y-7953799D01*
G01X10347000Y-7916799D01*
G01X10380000Y-7916799D01*
G01X10380000Y-7953799D01*
G01X10404203Y-7953799D01*
G01X10409202Y-7948798D01*
G01X10409202Y-7868798D01*
G01X10404203Y-7863799D01*
G01X10324203Y-7863799D01*
G01X10319202Y-7868798D01*
G37*
G36*
G01X10409199Y-7485502D02*
G01X10409199Y-7405502D01*
G01X10404198Y-7400501D01*
G01X10381402Y-7400501D01*
G01X10381402Y-7437501D01*
G01X10348402Y-7437501D01*
G01X10348402Y-7400501D01*
G01X10324198Y-7400501D01*
G01X10319200Y-7405502D01*
G01X10319200Y-7485502D01*
G01X10324198Y-7490501D01*
G01X10404198Y-7490501D01*
G01X10409199Y-7485502D01*
G37*
G36*
G01X10319202Y-7246498D02*
G01X10319202Y-7326498D01*
G01X10324203Y-7331499D01*
G01X10347000Y-7331499D01*
G01X10347000Y-7294499D01*
G01X10380000Y-7294499D01*
G01X10380000Y-7331499D01*
G01X10404203Y-7331499D01*
G01X10409202Y-7326498D01*
G01X10409202Y-7246498D01*
G01X10404203Y-7241499D01*
G01X10324203Y-7241499D01*
G01X10319202Y-7246498D01*
G37*
G36*
G01X6693352Y-4401698D02*
G01X6693352Y-4481698D01*
G01X6698353Y-4486699D01*
G01X6721150Y-4486699D01*
G01X6721150Y-4449699D01*
G01X6754150Y-4449699D01*
G01X6754150Y-4486699D01*
G01X6778353Y-4486699D01*
G01X6783352Y-4481698D01*
G01X6783352Y-4401698D01*
G01X6778353Y-4396699D01*
G01X6698353Y-4396699D01*
G01X6693352Y-4401698D01*
G37*
G36*
G01X6783349Y-4640702D02*
G01X6783349Y-4560702D01*
G01X6778348Y-4555701D01*
G01X6755552Y-4555701D01*
G01X6755552Y-4592701D01*
G01X6722552Y-4592701D01*
G01X6722552Y-4555701D01*
G01X6698348Y-4555701D01*
G01X6693350Y-4560702D01*
G01X6693350Y-4640702D01*
G01X6698348Y-4645701D01*
G01X6778348Y-4645701D01*
G01X6783349Y-4640702D01*
G37*
G36*
G01X6851101Y-4401698D02*
G01X6851101Y-4481698D01*
G01X6856103Y-4486699D01*
G01X6878899Y-4486699D01*
G01X6878899Y-4449699D01*
G01X6911899Y-4449699D01*
G01X6911899Y-4486699D01*
G01X6936102Y-4486699D01*
G01X6941101Y-4481698D01*
G01X6941101Y-4401698D01*
G01X6936102Y-4396699D01*
G01X6856103Y-4396699D01*
G01X6851101Y-4401698D01*
G37*
G36*
G01X6941099Y-4640702D02*
G01X6941099Y-4560702D01*
G01X6936097Y-4555701D01*
G01X6913301Y-4555701D01*
G01X6913301Y-4592701D01*
G01X6880301Y-4592701D01*
G01X6880301Y-4555701D01*
G01X6856098Y-4555701D01*
G01X6851099Y-4560702D01*
G01X6851099Y-4640702D01*
G01X6856098Y-4645701D01*
G01X6936097Y-4645701D01*
G01X6941099Y-4640702D01*
G37*
G36*
G01X11118301Y-4566798D02*
G01X11118301Y-4646798D01*
G01X11123303Y-4651799D01*
G01X11146099Y-4651799D01*
G01X11146099Y-4614799D01*
G01X11179099Y-4614799D01*
G01X11179099Y-4651799D01*
G01X11203302Y-4651799D01*
G01X11208301Y-4646798D01*
G01X11208301Y-4566798D01*
G01X11203302Y-4561799D01*
G01X11123303Y-4561799D01*
G01X11118301Y-4566798D01*
G37*
G36*
G01X11208299Y-4805802D02*
G01X11208299Y-4725802D01*
G01X11203297Y-4720801D01*
G01X11180501Y-4720801D01*
G01X11180501Y-4757801D01*
G01X11147501Y-4757801D01*
G01X11147501Y-4720801D01*
G01X11123298Y-4720801D01*
G01X11118299Y-4725802D01*
G01X11118299Y-4805802D01*
G01X11123298Y-4810801D01*
G01X11203297Y-4810801D01*
G01X11208299Y-4805802D01*
G37*
G36*
G01X11208299Y-4348602D02*
G01X11208299Y-4268602D01*
G01X11203297Y-4263601D01*
G01X11180501Y-4263601D01*
G01X11180501Y-4300601D01*
G01X11147501Y-4300601D01*
G01X11147501Y-4263601D01*
G01X11123298Y-4263601D01*
G01X11118299Y-4268602D01*
G01X11118299Y-4348602D01*
G01X11123298Y-4353601D01*
G01X11203297Y-4353601D01*
G01X11208299Y-4348602D01*
G37*
G36*
G01X11118301Y-4109598D02*
G01X11118301Y-4189598D01*
G01X11123303Y-4194599D01*
G01X11146099Y-4194599D01*
G01X11146099Y-4157599D01*
G01X11179099Y-4157599D01*
G01X11179099Y-4194599D01*
G01X11203302Y-4194599D01*
G01X11208301Y-4189598D01*
G01X11208301Y-4109598D01*
G01X11203302Y-4104599D01*
G01X11123303Y-4104599D01*
G01X11118301Y-4109598D01*
G37*
G36*
G01X11131001Y-3372998D02*
G01X11131001Y-3452998D01*
G01X11136003Y-3457999D01*
G01X11158799Y-3457999D01*
G01X11158799Y-3420999D01*
G01X11191799Y-3420999D01*
G01X11191799Y-3457999D01*
G01X11216002Y-3457999D01*
G01X11221001Y-3452998D01*
G01X11221001Y-3372998D01*
G01X11216002Y-3367999D01*
G01X11136003Y-3367999D01*
G01X11131001Y-3372998D01*
G37*
G36*
G01X11220999Y-3612002D02*
G01X11220999Y-3532002D01*
G01X11215997Y-3527001D01*
G01X11193201Y-3527001D01*
G01X11193201Y-3564001D01*
G01X11160201Y-3564001D01*
G01X11160201Y-3527001D01*
G01X11135998Y-3527001D01*
G01X11130999Y-3532002D01*
G01X11130999Y-3612002D01*
G01X11135998Y-3617001D01*
G01X11215997Y-3617001D01*
G01X11220999Y-3612002D01*
G37*
G36*
G01X11220999Y-3154802D02*
G01X11220999Y-3074802D01*
G01X11215997Y-3069801D01*
G01X11193201Y-3069801D01*
G01X11193201Y-3106801D01*
G01X11160201Y-3106801D01*
G01X11160201Y-3069801D01*
G01X11135998Y-3069801D01*
G01X11130999Y-3074802D01*
G01X11130999Y-3154802D01*
G01X11135998Y-3159801D01*
G01X11215997Y-3159801D01*
G01X11220999Y-3154802D01*
G37*
G36*
G01X11131001Y-2915798D02*
G01X11131001Y-2995798D01*
G01X11136003Y-3000799D01*
G01X11158799Y-3000799D01*
G01X11158799Y-2963799D01*
G01X11191799Y-2963799D01*
G01X11191799Y-3000799D01*
G01X11216002Y-3000799D01*
G01X11221001Y-2995798D01*
G01X11221001Y-2915798D01*
G01X11216002Y-2910799D01*
G01X11136003Y-2910799D01*
G01X11131001Y-2915798D01*
G37*
G36*
G01X9519798Y-1988099D02*
G01X9599798Y-1988099D01*
G01X9604799Y-1983097D01*
G01X9604799Y-1960301D01*
G01X9567799Y-1960301D01*
G01X9567799Y-1927301D01*
G01X9604799Y-1927301D01*
G01X9604799Y-1903098D01*
G01X9599798Y-1898099D01*
G01X9519798Y-1898099D01*
G01X9514799Y-1903098D01*
G01X9514799Y-1983097D01*
G01X9519798Y-1988099D01*
G37*
G36*
G01X9758802Y-1898101D02*
G01X9678802Y-1898101D01*
G01X9673801Y-1903103D01*
G01X9673801Y-1925899D01*
G01X9710801Y-1925899D01*
G01X9710801Y-1958899D01*
G01X9673801Y-1958899D01*
G01X9673801Y-1983102D01*
G01X9678802Y-1988101D01*
G01X9758802Y-1988101D01*
G01X9763801Y-1983102D01*
G01X9763801Y-1903103D01*
G01X9758802Y-1898101D01*
G37*
G36*
G01X9199947Y-2128398D02*
G01X9199947Y-2208398D01*
G01X9204948Y-2213399D01*
G01X9227744Y-2213399D01*
G01X9227744Y-2176399D01*
G01X9260744Y-2176399D01*
G01X9260744Y-2213399D01*
G01X9284948Y-2213399D01*
G01X9289946Y-2208398D01*
G01X9289946Y-2128398D01*
G01X9284948Y-2123399D01*
G01X9204948Y-2123399D01*
G01X9199947Y-2128398D01*
G37*
G36*
G01X9289944Y-2367402D02*
G01X9289944Y-2287402D01*
G01X9284943Y-2282401D01*
G01X9262146Y-2282401D01*
G01X9262146Y-2319401D01*
G01X9229146Y-2319401D01*
G01X9229146Y-2282401D01*
G01X9204943Y-2282401D01*
G01X9199944Y-2287402D01*
G01X9199944Y-2367402D01*
G01X9204943Y-2372401D01*
G01X9284943Y-2372401D01*
G01X9289944Y-2367402D01*
G37*
G36*
G01X9199947Y-1531498D02*
G01X9199947Y-1611498D01*
G01X9204948Y-1616499D01*
G01X9227744Y-1616499D01*
G01X9227744Y-1579499D01*
G01X9260744Y-1579499D01*
G01X9260744Y-1616499D01*
G01X9284948Y-1616499D01*
G01X9289946Y-1611498D01*
G01X9289946Y-1531498D01*
G01X9284948Y-1526499D01*
G01X9204948Y-1526499D01*
G01X9199947Y-1531498D01*
G37*
G36*
G01X9289944Y-1770502D02*
G01X9289944Y-1690502D01*
G01X9284943Y-1685501D01*
G01X9262146Y-1685501D01*
G01X9262146Y-1722501D01*
G01X9229146Y-1722501D01*
G01X9229146Y-1685501D01*
G01X9204943Y-1685501D01*
G01X9199944Y-1690502D01*
G01X9199944Y-1770502D01*
G01X9204943Y-1775501D01*
G01X9284943Y-1775501D01*
G01X9289944Y-1770502D01*
G37*
G36*
G01X10877001Y-8656198D02*
G01X10877001Y-8736198D01*
G01X10882003Y-8741199D01*
G01X10904799Y-8741199D01*
G01X10904799Y-8704199D01*
G01X10937799Y-8704199D01*
G01X10937799Y-8741199D01*
G01X10962002Y-8741199D01*
G01X10967001Y-8736198D01*
G01X10967001Y-8656198D01*
G01X10962002Y-8651199D01*
G01X10882003Y-8651199D01*
G01X10877001Y-8656198D01*
G37*
G36*
G01X10966999Y-8895202D02*
G01X10966999Y-8815202D01*
G01X10961997Y-8810201D01*
G01X10939201Y-8810201D01*
G01X10939201Y-8847201D01*
G01X10906201Y-8847201D01*
G01X10906201Y-8810201D01*
G01X10881998Y-8810201D01*
G01X10876999Y-8815202D01*
G01X10876999Y-8895202D01*
G01X10881998Y-8900201D01*
G01X10961997Y-8900201D01*
G01X10966999Y-8895202D01*
G37*
G36*
G01X1516533Y-5605701D02*
G01X1516533Y-5525701D01*
G01X1511531Y-5520700D01*
G01X1488735Y-5520700D01*
G01X1488735Y-5557700D01*
G01X1455735Y-5557700D01*
G01X1455735Y-5520700D01*
G01X1431532Y-5520700D01*
G01X1426533Y-5525701D01*
G01X1426533Y-5605701D01*
G01X1431532Y-5610700D01*
G01X1511531Y-5610700D01*
G01X1516533Y-5605701D01*
G37*
G36*
G01X1426535Y-5366697D02*
G01X1426535Y-5446697D01*
G01X1431537Y-5451699D01*
G01X1454333Y-5451699D01*
G01X1454333Y-5414698D01*
G01X1487333Y-5414698D01*
G01X1487333Y-5451699D01*
G01X1511536Y-5451699D01*
G01X1516535Y-5446697D01*
G01X1516535Y-5366697D01*
G01X1511536Y-5361699D01*
G01X1431537Y-5361699D01*
G01X1426535Y-5366697D01*
G37*
G36*
G01X1346320Y-5605701D02*
G01X1346320Y-5525701D01*
G01X1341319Y-5520700D01*
G01X1318523Y-5520700D01*
G01X1318523Y-5557700D01*
G01X1285523Y-5557700D01*
G01X1285523Y-5520700D01*
G01X1261319Y-5520700D01*
G01X1256321Y-5525701D01*
G01X1256321Y-5605701D01*
G01X1261319Y-5610700D01*
G01X1341319Y-5610700D01*
G01X1346320Y-5605701D01*
G37*
G36*
G01X1256323Y-5366697D02*
G01X1256323Y-5446697D01*
G01X1261324Y-5451699D01*
G01X1284121Y-5451699D01*
G01X1284121Y-5414698D01*
G01X1317121Y-5414698D01*
G01X1317121Y-5451699D01*
G01X1341324Y-5451699D01*
G01X1346323Y-5446697D01*
G01X1346323Y-5366697D01*
G01X1341324Y-5361699D01*
G01X1261324Y-5361699D01*
G01X1256323Y-5366697D01*
G37*
G36*
G01X2697201Y-8630798D02*
G01X2697201Y-8710798D01*
G01X2702202Y-8715799D01*
G01X2724998Y-8715799D01*
G01X2724998Y-8678799D01*
G01X2757998Y-8678799D01*
G01X2757998Y-8715799D01*
G01X2782202Y-8715799D01*
G01X2787200Y-8710798D01*
G01X2787200Y-8630798D01*
G01X2782202Y-8625799D01*
G01X2702202Y-8625799D01*
G01X2697201Y-8630798D01*
G37*
G36*
G01X2787198Y-8869802D02*
G01X2787198Y-8789802D01*
G01X2782197Y-8784801D01*
G01X2759400Y-8784801D01*
G01X2759400Y-8821801D01*
G01X2726400Y-8821801D01*
G01X2726400Y-8784801D01*
G01X2702197Y-8784801D01*
G01X2697198Y-8789802D01*
G01X2697198Y-8869802D01*
G01X2702197Y-8874801D01*
G01X2782197Y-8874801D01*
G01X2787198Y-8869802D01*
G37*
G36*
G01X6408004Y-9344876D02*
G01X6408004Y-9424876D01*
G01X6413006Y-9429877D01*
G01X6435802Y-9429877D01*
G01X6435802Y-9392877D01*
G01X6468802Y-9392877D01*
G01X6468802Y-9429877D01*
G01X6493006Y-9429877D01*
G01X6498004Y-9424876D01*
G01X6498004Y-9344876D01*
G01X6493006Y-9339877D01*
G01X6413006Y-9339877D01*
G01X6408004Y-9344876D01*
G37*
G36*
G01X6498002Y-9583880D02*
G01X6498002Y-9503880D01*
G01X6493000Y-9498879D01*
G01X6470204Y-9498879D01*
G01X6470204Y-9535879D01*
G01X6437204Y-9535879D01*
G01X6437204Y-9498879D01*
G01X6413001Y-9498879D01*
G01X6408002Y-9503880D01*
G01X6408002Y-9583880D01*
G01X6413001Y-9588879D01*
G01X6493000Y-9588879D01*
G01X6498002Y-9583880D01*
G37*
G36*
G01X5517601Y-8389498D02*
G01X5517601Y-8469498D01*
G01X5522603Y-8474499D01*
G01X5545399Y-8474499D01*
G01X5545399Y-8437499D01*
G01X5578399Y-8437499D01*
G01X5578399Y-8474499D01*
G01X5602602Y-8474499D01*
G01X5607601Y-8469498D01*
G01X5607601Y-8389498D01*
G01X5602602Y-8384499D01*
G01X5522603Y-8384499D01*
G01X5517601Y-8389498D01*
G37*
G36*
G01X5607599Y-8628502D02*
G01X5607599Y-8548502D01*
G01X5602597Y-8543501D01*
G01X5579801Y-8543501D01*
G01X5579801Y-8580501D01*
G01X5546801Y-8580501D01*
G01X5546801Y-8543501D01*
G01X5522598Y-8543501D01*
G01X5517599Y-8548502D01*
G01X5517599Y-8628502D01*
G01X5522598Y-8633501D01*
G01X5602597Y-8633501D01*
G01X5607599Y-8628502D01*
G37*
G36*
G01X6332902Y-9583880D02*
G01X6332902Y-9503880D01*
G01X6327900Y-9498879D01*
G01X6305104Y-9498879D01*
G01X6305104Y-9535879D01*
G01X6272104Y-9535879D01*
G01X6272104Y-9498879D01*
G01X6247901Y-9498879D01*
G01X6242902Y-9503880D01*
G01X6242902Y-9583880D01*
G01X6247901Y-9588879D01*
G01X6327900Y-9588879D01*
G01X6332902Y-9583880D01*
G37*
G36*
G01X6242904Y-9344876D02*
G01X6242904Y-9424876D01*
G01X6247906Y-9429877D01*
G01X6270702Y-9429877D01*
G01X6270702Y-9392877D01*
G01X6303702Y-9392877D01*
G01X6303702Y-9429877D01*
G01X6327906Y-9429877D01*
G01X6332904Y-9424876D01*
G01X6332904Y-9344876D01*
G01X6327906Y-9339877D01*
G01X6247906Y-9339877D01*
G01X6242904Y-9344876D01*
G37*
G36*
G01X5355002Y-9075880D02*
G01X5355002Y-8995880D01*
G01X5350000Y-8990879D01*
G01X5327204Y-8990879D01*
G01X5327204Y-9027879D01*
G01X5294204Y-9027879D01*
G01X5294204Y-8990879D01*
G01X5270001Y-8990879D01*
G01X5265002Y-8995880D01*
G01X5265002Y-9075880D01*
G01X5270001Y-9080879D01*
G01X5350000Y-9080879D01*
G01X5355002Y-9075880D01*
G37*
G36*
G01X5265004Y-8836876D02*
G01X5265004Y-8916876D01*
G01X5270006Y-8921877D01*
G01X5292802Y-8921877D01*
G01X5292802Y-8884877D01*
G01X5325802Y-8884877D01*
G01X5325802Y-8921877D01*
G01X5350006Y-8921877D01*
G01X5355004Y-8916876D01*
G01X5355004Y-8836876D01*
G01X5350006Y-8831877D01*
G01X5270006Y-8831877D01*
G01X5265004Y-8836876D01*
G37*
G36*
G01X7298102Y-9088580D02*
G01X7298102Y-9008580D01*
G01X7293100Y-9003579D01*
G01X7270304Y-9003579D01*
G01X7270304Y-9040579D01*
G01X7237304Y-9040579D01*
G01X7237304Y-9003579D01*
G01X7213101Y-9003579D01*
G01X7208102Y-9008580D01*
G01X7208102Y-9088580D01*
G01X7213101Y-9093579D01*
G01X7293100Y-9093579D01*
G01X7298102Y-9088580D01*
G37*
G36*
G01X7208104Y-8849576D02*
G01X7208104Y-8929576D01*
G01X7213106Y-8934577D01*
G01X7235902Y-8934577D01*
G01X7235902Y-8897577D01*
G01X7268902Y-8897577D01*
G01X7268902Y-8934577D01*
G01X7293106Y-8934577D01*
G01X7298104Y-8929576D01*
G01X7298104Y-8849576D01*
G01X7293106Y-8844577D01*
G01X7213106Y-8844577D01*
G01X7208104Y-8849576D01*
G37*
G36*
G01X6332902Y-9075880D02*
G01X6332902Y-8995880D01*
G01X6327900Y-8990879D01*
G01X6305104Y-8990879D01*
G01X6305104Y-9027879D01*
G01X6272104Y-9027879D01*
G01X6272104Y-8990879D01*
G01X6247901Y-8990879D01*
G01X6242902Y-8995880D01*
G01X6242902Y-9075880D01*
G01X6247901Y-9080879D01*
G01X6327900Y-9080879D01*
G01X6332902Y-9075880D01*
G37*
G36*
G01X6242904Y-8836876D02*
G01X6242904Y-8916876D01*
G01X6247906Y-8921877D01*
G01X6270702Y-8921877D01*
G01X6270702Y-8884877D01*
G01X6303702Y-8884877D01*
G01X6303702Y-8921877D01*
G01X6327906Y-8921877D01*
G01X6332904Y-8916876D01*
G01X6332904Y-8836876D01*
G01X6327906Y-8831877D01*
G01X6247906Y-8831877D01*
G01X6242904Y-8836876D01*
G37*
G36*
G01X6221852Y-9816023D02*
G01X6141852Y-9816023D01*
G01X6136851Y-9821024D01*
G01X6136851Y-9843821D01*
G01X6173851Y-9843821D01*
G01X6173851Y-9876820D01*
G01X6136851Y-9876820D01*
G01X6136851Y-9901024D01*
G01X6141852Y-9906023D01*
G01X6221852Y-9906023D01*
G01X6226851Y-9901024D01*
G01X6226851Y-9821024D01*
G01X6221852Y-9816023D01*
G37*
G36*
G01X5982848Y-9906020D02*
G01X6062848Y-9906020D01*
G01X6067849Y-9901019D01*
G01X6067849Y-9878223D01*
G01X6030849Y-9878223D01*
G01X6030849Y-9845223D01*
G01X6067849Y-9845223D01*
G01X6067849Y-9821019D01*
G01X6062848Y-9816020D01*
G01X5982848Y-9816020D01*
G01X5977849Y-9821019D01*
G01X5977849Y-9901019D01*
G01X5982848Y-9906020D01*
G37*
G36*
G01X5250302Y-9816023D02*
G01X5170302Y-9816023D01*
G01X5165301Y-9821024D01*
G01X5165301Y-9843821D01*
G01X5202301Y-9843821D01*
G01X5202301Y-9876820D01*
G01X5165301Y-9876820D01*
G01X5165301Y-9901024D01*
G01X5170302Y-9906023D01*
G01X5250302Y-9906023D01*
G01X5255301Y-9901024D01*
G01X5255301Y-9821024D01*
G01X5250302Y-9816023D01*
G37*
G36*
G01X5011298Y-9906020D02*
G01X5091298Y-9906020D01*
G01X5096299Y-9901019D01*
G01X5096299Y-9878223D01*
G01X5059299Y-9878223D01*
G01X5059299Y-9845223D01*
G01X5096299Y-9845223D01*
G01X5096299Y-9821019D01*
G01X5091298Y-9816020D01*
G01X5011298Y-9816020D01*
G01X5006299Y-9821019D01*
G01X5006299Y-9901019D01*
G01X5011298Y-9906020D01*
G37*
G36*
G01X7142602Y-9816023D02*
G01X7062602Y-9816023D01*
G01X7057601Y-9821024D01*
G01X7057601Y-9843821D01*
G01X7094601Y-9843821D01*
G01X7094601Y-9876820D01*
G01X7057601Y-9876820D01*
G01X7057601Y-9901024D01*
G01X7062602Y-9906023D01*
G01X7142602Y-9906023D01*
G01X7147601Y-9901024D01*
G01X7147601Y-9821024D01*
G01X7142602Y-9816023D01*
G37*
G36*
G01X6903598Y-9906020D02*
G01X6983598Y-9906020D01*
G01X6988599Y-9901019D01*
G01X6988599Y-9878223D01*
G01X6951599Y-9878223D01*
G01X6951599Y-9845223D01*
G01X6988599Y-9845223D01*
G01X6988599Y-9821019D01*
G01X6983598Y-9816020D01*
G01X6903598Y-9816020D01*
G01X6898599Y-9821019D01*
G01X6898599Y-9901019D01*
G01X6903598Y-9906020D01*
G37*
G36*
G01X5302505Y-3031279D02*
G01X5222505Y-3031279D01*
G01X5217504Y-3036281D01*
G01X5217504Y-3059077D01*
G01X5254504Y-3059077D01*
G01X5254504Y-3092077D01*
G01X5217504Y-3092077D01*
G01X5217504Y-3116281D01*
G01X5222505Y-3121279D01*
G01X5302505Y-3121279D01*
G01X5307504Y-3116281D01*
G01X5307504Y-3036281D01*
G01X5302505Y-3031279D01*
G37*
G36*
G01X5063501Y-3121277D02*
G01X5143501Y-3121277D01*
G01X5148502Y-3116275D01*
G01X5148502Y-3093479D01*
G01X5111502Y-3093479D01*
G01X5111502Y-3060479D01*
G01X5148502Y-3060479D01*
G01X5148502Y-3036276D01*
G01X5143501Y-3031277D01*
G01X5063501Y-3031277D01*
G01X5058502Y-3036276D01*
G01X5058502Y-3116275D01*
G01X5063501Y-3121277D01*
G37*
G36*
G01X6533601Y-4401698D02*
G01X6533601Y-4481698D01*
G01X6538603Y-4486699D01*
G01X6561399Y-4486699D01*
G01X6561399Y-4449699D01*
G01X6594399Y-4449699D01*
G01X6594399Y-4486699D01*
G01X6618602Y-4486699D01*
G01X6623601Y-4481698D01*
G01X6623601Y-4401698D01*
G01X6618602Y-4396699D01*
G01X6538603Y-4396699D01*
G01X6533601Y-4401698D01*
G37*
G36*
G01X6623599Y-4640702D02*
G01X6623599Y-4560702D01*
G01X6618597Y-4555701D01*
G01X6595801Y-4555701D01*
G01X6595801Y-4592701D01*
G01X6562801Y-4592701D01*
G01X6562801Y-4555701D01*
G01X6538598Y-4555701D01*
G01X6533599Y-4560702D01*
G01X6533599Y-4640702D01*
G01X6538598Y-4645701D01*
G01X6618597Y-4645701D01*
G01X6623599Y-4640702D01*
G37*
G36*
G01X7081016Y-1483927D02*
G01X7081016Y-1563927D01*
G01X7086017Y-1568929D01*
G01X7108813Y-1568929D01*
G01X7108813Y-1531928D01*
G01X7141813Y-1531928D01*
G01X7141813Y-1568929D01*
G01X7166017Y-1568929D01*
G01X7171015Y-1563927D01*
G01X7171015Y-1483927D01*
G01X7166017Y-1478929D01*
G01X7086017Y-1478929D01*
G01X7081016Y-1483927D01*
G37*
G36*
G01X7171013Y-1722931D02*
G01X7171013Y-1642931D01*
G01X7166012Y-1637930D01*
G01X7143215Y-1637930D01*
G01X7143215Y-1674930D01*
G01X7110215Y-1674930D01*
G01X7110215Y-1637930D01*
G01X7086012Y-1637930D01*
G01X7081013Y-1642931D01*
G01X7081013Y-1722931D01*
G01X7086012Y-1727930D01*
G01X7166012Y-1727930D01*
G01X7171013Y-1722931D01*
G37*
G36*
G01X7086723Y-1416218D02*
G01X7166723Y-1416218D01*
G01X7171724Y-1411216D01*
G01X7171724Y-1388420D01*
G01X7134724Y-1388420D01*
G01X7134724Y-1355420D01*
G01X7171724Y-1355420D01*
G01X7171724Y-1331217D01*
G01X7166723Y-1326218D01*
G01X7086723Y-1326218D01*
G01X7081724Y-1331217D01*
G01X7081724Y-1411216D01*
G01X7086723Y-1416218D01*
G37*
G36*
G01X7325727Y-1326220D02*
G01X7245727Y-1326220D01*
G01X7240726Y-1331222D01*
G01X7240726Y-1354018D01*
G01X7277726Y-1354018D01*
G01X7277726Y-1387018D01*
G01X7240726Y-1387018D01*
G01X7240726Y-1411221D01*
G01X7245727Y-1416220D01*
G01X7325727Y-1416220D01*
G01X7330725Y-1411221D01*
G01X7330725Y-1331222D01*
G01X7325727Y-1326220D01*
G37*
G36*
G01X7325727Y-1783420D02*
G01X7245727Y-1783420D01*
G01X7240726Y-1788422D01*
G01X7240726Y-1811218D01*
G01X7277726Y-1811218D01*
G01X7277726Y-1844218D01*
G01X7240726Y-1844218D01*
G01X7240726Y-1868421D01*
G01X7245727Y-1873420D01*
G01X7325727Y-1873420D01*
G01X7330725Y-1868421D01*
G01X7330725Y-1788422D01*
G01X7325727Y-1783420D01*
G37*
G36*
G01X7086723Y-1873418D02*
G01X7166723Y-1873418D01*
G01X7171724Y-1868416D01*
G01X7171724Y-1845620D01*
G01X7134724Y-1845620D01*
G01X7134724Y-1812620D01*
G01X7171724Y-1812620D01*
G01X7171724Y-1788417D01*
G01X7166723Y-1783418D01*
G01X7086723Y-1783418D01*
G01X7081724Y-1788417D01*
G01X7081724Y-1868416D01*
G01X7086723Y-1873418D01*
G37*
G36*
G01X196271Y-1137199D02*
G01X276271Y-1137199D01*
G01X281272Y-1132197D01*
G01X281272Y-1109401D01*
G01X244272Y-1109401D01*
G01X244272Y-1076401D01*
G01X281272Y-1076401D01*
G01X281272Y-1052198D01*
G01X276271Y-1047199D01*
G01X196271Y-1047199D01*
G01X191272Y-1052198D01*
G01X191272Y-1132197D01*
G01X196271Y-1137199D01*
G37*
G36*
G01X435275Y-1047201D02*
G01X355275Y-1047201D01*
G01X350274Y-1052203D01*
G01X350274Y-1074999D01*
G01X387274Y-1074999D01*
G01X387274Y-1107999D01*
G01X350274Y-1107999D01*
G01X350274Y-1132202D01*
G01X355275Y-1137201D01*
G01X435275Y-1137201D01*
G01X440273Y-1132202D01*
G01X440273Y-1052203D01*
G01X435275Y-1047201D01*
G37*
G36*
G01X754502Y-1047201D02*
G01X674502Y-1047201D01*
G01X669501Y-1052203D01*
G01X669501Y-1074999D01*
G01X706501Y-1074999D01*
G01X706501Y-1107999D01*
G01X669501Y-1107999D01*
G01X669501Y-1132202D01*
G01X674502Y-1137201D01*
G01X754502Y-1137201D01*
G01X759501Y-1132202D01*
G01X759501Y-1052203D01*
G01X754502Y-1047201D01*
G37*
G36*
G01X515498Y-1137199D02*
G01X595498Y-1137199D01*
G01X600499Y-1132197D01*
G01X600499Y-1109401D01*
G01X563499Y-1109401D01*
G01X563499Y-1076401D01*
G01X600499Y-1076401D01*
G01X600499Y-1052198D01*
G01X595498Y-1047199D01*
G01X515498Y-1047199D01*
G01X510499Y-1052198D01*
G01X510499Y-1132197D01*
G01X515498Y-1137199D01*
G37*
G36*
G01X1346878Y-829059D02*
G01X1346878Y-909059D01*
G01X1351879Y-914060D01*
G01X1374676Y-914060D01*
G01X1374676Y-877060D01*
G01X1407675Y-877060D01*
G01X1407675Y-914060D01*
G01X1431879Y-914060D01*
G01X1436878Y-909059D01*
G01X1436878Y-829059D01*
G01X1431879Y-824060D01*
G01X1351879Y-824060D01*
G01X1346878Y-829059D01*
G37*
G36*
G01X1436875Y-1068063D02*
G01X1436875Y-988063D01*
G01X1431874Y-983062D01*
G01X1409077Y-983062D01*
G01X1409077Y-1020062D01*
G01X1376078Y-1020062D01*
G01X1376078Y-983062D01*
G01X1351874Y-983062D01*
G01X1346875Y-988063D01*
G01X1346875Y-1068063D01*
G01X1351874Y-1073061D01*
G01X1431874Y-1073061D01*
G01X1436875Y-1068063D01*
G37*
G36*
G01X1511978Y-829059D02*
G01X1511978Y-909059D01*
G01X1516979Y-914060D01*
G01X1539776Y-914060D01*
G01X1539776Y-877060D01*
G01X1572775Y-877060D01*
G01X1572775Y-914060D01*
G01X1596979Y-914060D01*
G01X1601978Y-909059D01*
G01X1601978Y-829059D01*
G01X1596979Y-824060D01*
G01X1516979Y-824060D01*
G01X1511978Y-829059D01*
G37*
G36*
G01X1601975Y-1068063D02*
G01X1601975Y-988063D01*
G01X1596974Y-983062D01*
G01X1574177Y-983062D01*
G01X1574177Y-1020062D01*
G01X1541178Y-1020062D01*
G01X1541178Y-983062D01*
G01X1516974Y-983062D01*
G01X1511975Y-988063D01*
G01X1511975Y-1068063D01*
G01X1516974Y-1073061D01*
G01X1596974Y-1073061D01*
G01X1601975Y-1068063D01*
G37*
G36*
G01X1663377Y-829059D02*
G01X1663377Y-909059D01*
G01X1668378Y-914060D01*
G01X1691175Y-914060D01*
G01X1691175Y-877060D01*
G01X1724175Y-877060D01*
G01X1724175Y-914060D01*
G01X1748378Y-914060D01*
G01X1753377Y-909059D01*
G01X1753377Y-829059D01*
G01X1748378Y-824060D01*
G01X1668378Y-824060D01*
G01X1663377Y-829059D01*
G37*
G36*
G01X1753374Y-1068063D02*
G01X1753374Y-988063D01*
G01X1748373Y-983062D01*
G01X1725577Y-983062D01*
G01X1725577Y-1020062D01*
G01X1692577Y-1020062D01*
G01X1692577Y-983062D01*
G01X1668373Y-983062D01*
G01X1663375Y-988063D01*
G01X1663375Y-1068063D01*
G01X1668373Y-1073061D01*
G01X1748373Y-1073061D01*
G01X1753374Y-1068063D01*
G37*
G36*
G01X9290945Y-1370574D02*
G01X9290945Y-1290575D01*
G01X9285943Y-1285573D01*
G01X9263147Y-1285573D01*
G01X9263147Y-1322573D01*
G01X9230147Y-1322573D01*
G01X9230147Y-1285573D01*
G01X9205943Y-1285573D01*
G01X9200945Y-1290575D01*
G01X9200945Y-1370574D01*
G01X9205943Y-1375573D01*
G01X9285943Y-1375573D01*
G01X9290945Y-1370574D01*
G37*
G36*
G01X9200947Y-1131571D02*
G01X9200947Y-1211570D01*
G01X9205949Y-1216572D01*
G01X9228745Y-1216572D01*
G01X9228745Y-1179571D01*
G01X9261745Y-1179571D01*
G01X9261745Y-1216572D01*
G01X9285948Y-1216572D01*
G01X9290947Y-1211570D01*
G01X9290947Y-1131571D01*
G01X9285948Y-1126572D01*
G01X9205949Y-1126572D01*
G01X9200947Y-1131571D01*
G37*
G36*
G01X1630802Y-6169624D02*
G01X1550802Y-6169624D01*
G01X1545801Y-6174625D01*
G01X1545801Y-6197422D01*
G01X1582801Y-6197422D01*
G01X1582801Y-6230422D01*
G01X1545801Y-6230422D01*
G01X1545801Y-6254625D01*
G01X1550802Y-6259624D01*
G01X1630802Y-6259624D01*
G01X1635801Y-6254625D01*
G01X1635801Y-6174625D01*
G01X1630802Y-6169624D01*
G37*
G36*
G01X1391798Y-6259621D02*
G01X1471798Y-6259621D01*
G01X1476799Y-6254620D01*
G01X1476799Y-6231824D01*
G01X1439799Y-6231824D01*
G01X1439799Y-6198824D01*
G01X1476799Y-6198824D01*
G01X1476799Y-6174620D01*
G01X1471798Y-6169622D01*
G01X1391798Y-6169622D01*
G01X1386799Y-6174620D01*
G01X1386799Y-6254620D01*
G01X1391798Y-6259621D01*
G37*
G36*
G01X1630802Y-6031222D02*
G01X1550802Y-6031222D01*
G01X1545801Y-6036223D01*
G01X1545801Y-6059019D01*
G01X1582801Y-6059019D01*
G01X1582801Y-6092019D01*
G01X1545801Y-6092019D01*
G01X1545801Y-6116223D01*
G01X1550802Y-6121221D01*
G01X1630802Y-6121221D01*
G01X1635801Y-6116223D01*
G01X1635801Y-6036223D01*
G01X1630802Y-6031222D01*
G37*
G36*
G01X1391798Y-6121219D02*
G01X1471798Y-6121219D01*
G01X1476799Y-6116218D01*
G01X1476799Y-6093421D01*
G01X1439799Y-6093421D01*
G01X1439799Y-6060421D01*
G01X1476799Y-6060421D01*
G01X1476799Y-6036218D01*
G01X1471798Y-6031219D01*
G01X1391798Y-6031219D01*
G01X1386799Y-6036218D01*
G01X1386799Y-6116218D01*
G01X1391798Y-6121219D01*
G37*
G36*
G01X3866002Y-1580601D02*
G01X3786002Y-1580601D01*
G01X3781001Y-1585603D01*
G01X3781001Y-1608399D01*
G01X3818001Y-1608399D01*
G01X3818001Y-1641399D01*
G01X3781001Y-1641399D01*
G01X3781001Y-1665602D01*
G01X3786002Y-1670601D01*
G01X3866002Y-1670601D01*
G01X3871001Y-1665602D01*
G01X3871001Y-1585603D01*
G01X3866002Y-1580601D01*
G37*
G36*
G01X3626998Y-1670599D02*
G01X3706998Y-1670599D01*
G01X3711999Y-1665597D01*
G01X3711999Y-1642801D01*
G01X3674999Y-1642801D01*
G01X3674999Y-1609801D01*
G01X3711999Y-1609801D01*
G01X3711999Y-1585598D01*
G01X3706998Y-1580599D01*
G01X3626998Y-1580599D01*
G01X3621999Y-1585598D01*
G01X3621999Y-1665597D01*
G01X3626998Y-1670599D01*
G37*
G36*
G01X3866002Y-1440901D02*
G01X3786002Y-1440901D01*
G01X3781001Y-1445903D01*
G01X3781001Y-1468699D01*
G01X3818001Y-1468699D01*
G01X3818001Y-1501699D01*
G01X3781001Y-1501699D01*
G01X3781001Y-1525902D01*
G01X3786002Y-1530901D01*
G01X3866002Y-1530901D01*
G01X3871001Y-1525902D01*
G01X3871001Y-1445903D01*
G01X3866002Y-1440901D01*
G37*
G36*
G01X3626998Y-1530899D02*
G01X3706998Y-1530899D01*
G01X3711999Y-1525897D01*
G01X3711999Y-1503101D01*
G01X3674999Y-1503101D01*
G01X3674999Y-1470101D01*
G01X3711999Y-1470101D01*
G01X3711999Y-1445898D01*
G01X3706998Y-1440899D01*
G01X3626998Y-1440899D01*
G01X3621999Y-1445898D01*
G01X3621999Y-1525897D01*
G01X3626998Y-1530899D01*
G37*
G36*
G01X3898221Y-2556034D02*
G01X3898221Y-2476034D01*
G01X3893220Y-2471033D01*
G01X3870423Y-2471033D01*
G01X3870423Y-2508033D01*
G01X3837424Y-2508033D01*
G01X3837424Y-2471033D01*
G01X3813220Y-2471033D01*
G01X3808221Y-2476034D01*
G01X3808221Y-2556034D01*
G01X3813220Y-2561033D01*
G01X3893220Y-2561033D01*
G01X3898221Y-2556034D01*
G37*
G36*
G01X3808224Y-2317030D02*
G01X3808224Y-2397030D01*
G01X3813225Y-2402031D01*
G01X3836022Y-2402031D01*
G01X3836022Y-2365031D01*
G01X3869021Y-2365031D01*
G01X3869021Y-2402031D01*
G01X3893225Y-2402031D01*
G01X3898224Y-2397030D01*
G01X3898224Y-2317030D01*
G01X3893225Y-2312031D01*
G01X3813225Y-2312031D01*
G01X3808224Y-2317030D01*
G37*
G36*
G01X4183502Y-2469601D02*
G01X4103502Y-2469601D01*
G01X4098501Y-2474603D01*
G01X4098501Y-2497399D01*
G01X4135501Y-2497399D01*
G01X4135501Y-2530399D01*
G01X4098501Y-2530399D01*
G01X4098501Y-2554602D01*
G01X4103502Y-2559601D01*
G01X4183502Y-2559601D01*
G01X4188501Y-2554602D01*
G01X4188501Y-2474603D01*
G01X4183502Y-2469601D01*
G37*
G36*
G01X3944498Y-2559599D02*
G01X4024498Y-2559599D01*
G01X4029499Y-2554597D01*
G01X4029499Y-2531801D01*
G01X3992499Y-2531801D01*
G01X3992499Y-2498801D01*
G01X4029499Y-2498801D01*
G01X4029499Y-2474598D01*
G01X4024498Y-2469599D01*
G01X3944498Y-2469599D01*
G01X3939499Y-2474598D01*
G01X3939499Y-2554597D01*
G01X3944498Y-2559599D01*
G37*
G36*
G01X4188536Y-2329202D02*
G01X4108536Y-2329202D01*
G01X4103535Y-2334204D01*
G01X4103535Y-2357000D01*
G01X4140535Y-2357000D01*
G01X4140535Y-2390000D01*
G01X4103535Y-2390000D01*
G01X4103535Y-2414203D01*
G01X4108536Y-2419202D01*
G01X4188536Y-2419202D01*
G01X4193535Y-2414203D01*
G01X4193535Y-2334204D01*
G01X4188536Y-2329202D01*
G37*
G36*
G01X3949532Y-2419200D02*
G01X4029532Y-2419200D01*
G01X4034533Y-2414198D01*
G01X4034533Y-2391402D01*
G01X3997533Y-2391402D01*
G01X3997533Y-2358402D01*
G01X4034533Y-2358402D01*
G01X4034533Y-2334199D01*
G01X4029532Y-2329200D01*
G01X3949532Y-2329200D01*
G01X3944534Y-2334199D01*
G01X3944534Y-2414198D01*
G01X3949532Y-2419200D01*
G37*
G36*
G01X1452692Y-4857651D02*
G01X1480342Y-4857651D01*
G01X1509718Y-4885070D01*
G01X1509718Y-4935398D01*
G01X1503317Y-4941799D01*
G01X1429718Y-4941799D01*
G01X1423317Y-4935398D01*
G01X1423317Y-4885070D01*
G01X1452692Y-4857651D01*
G37*
G36*
G01X1451567Y-4806086D02*
G01X1479217Y-4806086D01*
G01X1508592Y-4778667D01*
G01X1508592Y-4728340D01*
G01X1502192Y-4721939D01*
G01X1428593Y-4721939D01*
G01X1422192Y-4728340D01*
G01X1422192Y-4778667D01*
G01X1451567Y-4806086D01*
G37*
G36*
G01X1341587Y-4819749D02*
G01X1313937Y-4819749D01*
G01X1284562Y-4792330D01*
G01X1284562Y-4742002D01*
G01X1290963Y-4735601D01*
G01X1364562Y-4735601D01*
G01X1370962Y-4742002D01*
G01X1370962Y-4792330D01*
G01X1341587Y-4819749D01*
G37*
G36*
G01X1342713Y-4871314D02*
G01X1315062Y-4871314D01*
G01X1285687Y-4898733D01*
G01X1285687Y-4949060D01*
G01X1292088Y-4955461D01*
G01X1365687Y-4955461D01*
G01X1372088Y-4949060D01*
G01X1372088Y-4898733D01*
G01X1342713Y-4871314D01*
G37*
G36*
G01X7300225Y-1574658D02*
G01X7272575Y-1574658D01*
G01X7243200Y-1547238D01*
G01X7243200Y-1496911D01*
G01X7249600Y-1490510D01*
G01X7323199Y-1490510D01*
G01X7329600Y-1496911D01*
G01X7329600Y-1547238D01*
G01X7300225Y-1574658D01*
G37*
G36*
G01X7301350Y-1626222D02*
G01X7273700Y-1626222D01*
G01X7244325Y-1653642D01*
G01X7244325Y-1703969D01*
G01X7250726Y-1710370D01*
G01X7324325Y-1710370D01*
G01X7330725Y-1703969D01*
G01X7330725Y-1653642D01*
G01X7301350Y-1626222D01*
G37*
G36*
G01X4994662Y-1748300D02*
G01X4967012Y-1748300D01*
G01X4937637Y-1720881D01*
G01X4937637Y-1670553D01*
G01X4944037Y-1664153D01*
G01X5017636Y-1664153D01*
G01X5024037Y-1670553D01*
G01X5024037Y-1720881D01*
G01X4994662Y-1748300D01*
G37*
G36*
G01X4995787Y-1799865D02*
G01X4968137Y-1799865D01*
G01X4938762Y-1827284D01*
G01X4938762Y-1877612D01*
G01X4945163Y-1884012D01*
G01X5018762Y-1884012D01*
G01X5025162Y-1877612D01*
G01X5025162Y-1827284D01*
G01X4995787Y-1799865D01*
G37*
G36*
G01X1371635Y-4569919D02*
G01X1371635Y-4597570D01*
G01X1344215Y-4626945D01*
G01X1293888Y-4626945D01*
G01X1287487Y-4620544D01*
G01X1287487Y-4546945D01*
G01X1293888Y-4540544D01*
G01X1344215Y-4540544D01*
G01X1371635Y-4569919D01*
G37*
G36*
G01X1423199Y-4568794D02*
G01X1423199Y-4596444D01*
G01X1450619Y-4625820D01*
G01X1500946Y-4625820D01*
G01X1507347Y-4619419D01*
G01X1507347Y-4545820D01*
G01X1500946Y-4539419D01*
G01X1450619Y-4539419D01*
G01X1423199Y-4568794D01*
G37*
G36*
G01X1138199Y-5987766D02*
G01X1138199Y-5907766D01*
G01X1133198Y-5902764D01*
G01X1110402Y-5902764D01*
G01X1110402Y-5939765D01*
G01X1077402Y-5939765D01*
G01X1077402Y-5902764D01*
G01X1053198Y-5902764D01*
G01X1048200Y-5907766D01*
G01X1048200Y-5987766D01*
G01X1053198Y-5992764D01*
G01X1133198Y-5992764D01*
G01X1138199Y-5987766D01*
G37*
G36*
G01X1048202Y-5748762D02*
G01X1048202Y-5828762D01*
G01X1053203Y-5833763D01*
G01X1076000Y-5833763D01*
G01X1076000Y-5796763D01*
G01X1109000Y-5796763D01*
G01X1109000Y-5833763D01*
G01X1133203Y-5833763D01*
G01X1138202Y-5828762D01*
G01X1138202Y-5748762D01*
G01X1133203Y-5743763D01*
G01X1053203Y-5743763D01*
G01X1048202Y-5748762D01*
G37*
G36*
G01X2634102Y-7965402D02*
G01X2554102Y-7965402D01*
G01X2549101Y-7970403D01*
G01X2549101Y-7993200D01*
G01X2586101Y-7993200D01*
G01X2586101Y-8026199D01*
G01X2549101Y-8026199D01*
G01X2549101Y-8050403D01*
G01X2554102Y-8055402D01*
G01X2634102Y-8055402D01*
G01X2639101Y-8050403D01*
G01X2639101Y-7970403D01*
G01X2634102Y-7965402D01*
G37*
G36*
G01X2395098Y-8055399D02*
G01X2475098Y-8055399D01*
G01X2480099Y-8050398D01*
G01X2480099Y-8027601D01*
G01X2443099Y-8027601D01*
G01X2443099Y-7994602D01*
G01X2480099Y-7994602D01*
G01X2480099Y-7970398D01*
G01X2475098Y-7965399D01*
G01X2395098Y-7965399D01*
G01X2390099Y-7970398D01*
G01X2390099Y-8050398D01*
G01X2395098Y-8055399D01*
G37*
G36*
G01X2788199Y-8209402D02*
G01X2788199Y-8129402D01*
G01X2783197Y-8124401D01*
G01X2760401Y-8124401D01*
G01X2760401Y-8161401D01*
G01X2727401Y-8161401D01*
G01X2727401Y-8124401D01*
G01X2703198Y-8124401D01*
G01X2698199Y-8129402D01*
G01X2698199Y-8209402D01*
G01X2703198Y-8214401D01*
G01X2783197Y-8214401D01*
G01X2788199Y-8209402D01*
G37*
G36*
G01X2698201Y-7970398D02*
G01X2698201Y-8050398D01*
G01X2703203Y-8055399D01*
G01X2725999Y-8055399D01*
G01X2725999Y-8018399D01*
G01X2758999Y-8018399D01*
G01X2758999Y-8055399D01*
G01X2783202Y-8055399D01*
G01X2788201Y-8050398D01*
G01X2788201Y-7970398D01*
G01X2783202Y-7965399D01*
G01X2703203Y-7965399D01*
G01X2698201Y-7970398D01*
G37*
G36*
G01X1138199Y-6305860D02*
G01X1138199Y-6225860D01*
G01X1133198Y-6220859D01*
G01X1110402Y-6220859D01*
G01X1110402Y-6257859D01*
G01X1077402Y-6257859D01*
G01X1077402Y-6220859D01*
G01X1053198Y-6220859D01*
G01X1048200Y-6225860D01*
G01X1048200Y-6305860D01*
G01X1053198Y-6310859D01*
G01X1133198Y-6310859D01*
G01X1138199Y-6305860D01*
G37*
G36*
G01X1048202Y-6066856D02*
G01X1048202Y-6146856D01*
G01X1053203Y-6151857D01*
G01X1076000Y-6151857D01*
G01X1076000Y-6114857D01*
G01X1109000Y-6114857D01*
G01X1109000Y-6151857D01*
G01X1133203Y-6151857D01*
G01X1138202Y-6146856D01*
G01X1138202Y-6066856D01*
G01X1133203Y-6061857D01*
G01X1053203Y-6061857D01*
G01X1048202Y-6066856D01*
G37*
G36*
G01X2698201Y-8325998D02*
G01X2698201Y-8405998D01*
G01X2703203Y-8410999D01*
G01X2725999Y-8410999D01*
G01X2725999Y-8373999D01*
G01X2758999Y-8373999D01*
G01X2758999Y-8410999D01*
G01X2783202Y-8410999D01*
G01X2788201Y-8405998D01*
G01X2788201Y-8325998D01*
G01X2783202Y-8320999D01*
G01X2703203Y-8320999D01*
G01X2698201Y-8325998D01*
G37*
G36*
G01X2788199Y-8565002D02*
G01X2788199Y-8485002D01*
G01X2783197Y-8480001D01*
G01X2760401Y-8480001D01*
G01X2760401Y-8517001D01*
G01X2727401Y-8517001D01*
G01X2727401Y-8480001D01*
G01X2703198Y-8480001D01*
G01X2698199Y-8485002D01*
G01X2698199Y-8565002D01*
G01X2703198Y-8570001D01*
G01X2783197Y-8570001D01*
G01X2788199Y-8565002D01*
G37*
G36*
G01X5190463Y-1588163D02*
G01X5190463Y-1508164D01*
G01X5185462Y-1503162D01*
G01X5162665Y-1503162D01*
G01X5162665Y-1540163D01*
G01X5129666Y-1540163D01*
G01X5129666Y-1503162D01*
G01X5105462Y-1503162D01*
G01X5100463Y-1508164D01*
G01X5100463Y-1588163D01*
G01X5105462Y-1593162D01*
G01X5185462Y-1593162D01*
G01X5190463Y-1588163D01*
G37*
G36*
G01X5100466Y-1349160D02*
G01X5100466Y-1429159D01*
G01X5105467Y-1434161D01*
G01X5128264Y-1434161D01*
G01X5128264Y-1397161D01*
G01X5161263Y-1397161D01*
G01X5161263Y-1434161D01*
G01X5185467Y-1434161D01*
G01X5190466Y-1429159D01*
G01X5190466Y-1349160D01*
G01X5185467Y-1344161D01*
G01X5105467Y-1344161D01*
G01X5100466Y-1349160D01*
G37*
G36*
G01X7802702Y-3873000D02*
G01X7802702Y-4000998D01*
G01X7797701Y-4005999D01*
G01X7682700Y-4005999D01*
G01X7677701Y-4000998D01*
G01X7677198Y-3959995D01*
G01X7722199Y-3959995D01*
G01X7722199Y-3914996D01*
G01X7678199Y-3914996D01*
G01X7677701Y-3873000D01*
G01X7682700Y-3867998D01*
G01X7797701Y-3867998D01*
G01X7802702Y-3873000D01*
G37*
G36*
G01X7587701Y-3873000D02*
G01X7587699Y-3914996D01*
G01X7543201Y-3914996D01*
G01X7543201Y-3959995D01*
G01X7587198Y-3959995D01*
G01X7587701Y-4000998D01*
G01X7582700Y-4005999D01*
G01X7467702Y-4005999D01*
G01X7462700Y-4000998D01*
G01X7462700Y-3873000D01*
G01X7467702Y-3867998D01*
G01X7582700Y-3867998D01*
G01X7587701Y-3873000D01*
G37*
G36*
G01X7531060Y-3465285D02*
G01X7531060Y-3385285D01*
G01X7526059Y-3380284D01*
G01X7503262Y-3380284D01*
G01X7503262Y-3417284D01*
G01X7470263Y-3417284D01*
G01X7470263Y-3380284D01*
G01X7446059Y-3380284D01*
G01X7441060Y-3385285D01*
G01X7441060Y-3465285D01*
G01X7446059Y-3470284D01*
G01X7526059Y-3470284D01*
G01X7531060Y-3465285D01*
G37*
G36*
G01X7441063Y-3226281D02*
G01X7441063Y-3306281D01*
G01X7446064Y-3311282D01*
G01X7468861Y-3311282D01*
G01X7468861Y-3274282D01*
G01X7501860Y-3274282D01*
G01X7501860Y-3311282D01*
G01X7526064Y-3311282D01*
G01X7531063Y-3306281D01*
G01X7531063Y-3226281D01*
G01X7526064Y-3221283D01*
G01X7446064Y-3221283D01*
G01X7441063Y-3226281D01*
G37*
G36*
G01X7606163Y-3226281D02*
G01X7606163Y-3306281D01*
G01X7611164Y-3311282D01*
G01X7633961Y-3311282D01*
G01X7633961Y-3274282D01*
G01X7666960Y-3274282D01*
G01X7666960Y-3311282D01*
G01X7691164Y-3311282D01*
G01X7696163Y-3306281D01*
G01X7696163Y-3226281D01*
G01X7691164Y-3221283D01*
G01X7611164Y-3221283D01*
G01X7606163Y-3226281D01*
G37*
G36*
G01X7696160Y-3465285D02*
G01X7696160Y-3385285D01*
G01X7691159Y-3380284D01*
G01X7668362Y-3380284D01*
G01X7668362Y-3417284D01*
G01X7635363Y-3417284D01*
G01X7635363Y-3380284D01*
G01X7611159Y-3380284D01*
G01X7606160Y-3385285D01*
G01X7606160Y-3465285D01*
G01X7611159Y-3470284D01*
G01X7691159Y-3470284D01*
G01X7696160Y-3465285D01*
G37*
G36*
G01X6718860Y-4114682D02*
G01X6798859Y-4114682D01*
G01X6803861Y-4109681D01*
G01X6803861Y-4086884D01*
G01X6766860Y-4086884D01*
G01X6766860Y-4053884D01*
G01X6803861Y-4053884D01*
G01X6803861Y-4029681D01*
G01X6798859Y-4024682D01*
G01X6718860Y-4024682D01*
G01X6713861Y-4029681D01*
G01X6713861Y-4109681D01*
G01X6718860Y-4114682D01*
G37*
G36*
G01X6957863Y-4024685D02*
G01X6877864Y-4024685D01*
G01X6872862Y-4029686D01*
G01X6872862Y-4052482D01*
G01X6909862Y-4052482D01*
G01X6909862Y-4085482D01*
G01X6872862Y-4085482D01*
G01X6872862Y-4109686D01*
G01X6877864Y-4114684D01*
G01X6957863Y-4114684D01*
G01X6962862Y-4109686D01*
G01X6962862Y-4029686D01*
G01X6957863Y-4024685D01*
G37*
G36*
G01X6719723Y-3937745D02*
G01X6799723Y-3937745D01*
G01X6804724Y-3932744D01*
G01X6804724Y-3909948D01*
G01X6767724Y-3909948D01*
G01X6767724Y-3876948D01*
G01X6804724Y-3876948D01*
G01X6804724Y-3852744D01*
G01X6799723Y-3847746D01*
G01X6719723Y-3847746D01*
G01X6714724Y-3852744D01*
G01X6714724Y-3932744D01*
G01X6719723Y-3937745D01*
G37*
G36*
G01X6958727Y-3847748D02*
G01X6878727Y-3847748D01*
G01X6873726Y-3852749D01*
G01X6873726Y-3875546D01*
G01X6910726Y-3875546D01*
G01X6910726Y-3908546D01*
G01X6873726Y-3908546D01*
G01X6873726Y-3932749D01*
G01X6878727Y-3937748D01*
G01X6958727Y-3937748D01*
G01X6963726Y-3932749D01*
G01X6963726Y-3852749D01*
G01X6958727Y-3847748D01*
G37*
G36*
G01X7841701Y-9481698D02*
G01X7841701Y-9561698D01*
G01X7846703Y-9566699D01*
G01X7869499Y-9566699D01*
G01X7869499Y-9529699D01*
G01X7902499Y-9529699D01*
G01X7902499Y-9566699D01*
G01X7926702Y-9566699D01*
G01X7931701Y-9561698D01*
G01X7931701Y-9481698D01*
G01X7926702Y-9476699D01*
G01X7846703Y-9476699D01*
G01X7841701Y-9481698D01*
G37*
G36*
G01X7931699Y-9720702D02*
G01X7931699Y-9640702D01*
G01X7926697Y-9635701D01*
G01X7903901Y-9635701D01*
G01X7903901Y-9672701D01*
G01X7870901Y-9672701D01*
G01X7870901Y-9635701D01*
G01X7846698Y-9635701D01*
G01X7841699Y-9640702D01*
G01X7841699Y-9720702D01*
G01X7846698Y-9725701D01*
G01X7926697Y-9725701D01*
G01X7931699Y-9720702D01*
G37*
G36*
G01X10135887Y-7868798D02*
G01X10135887Y-7948798D01*
G01X10140888Y-7953799D01*
G01X10163685Y-7953799D01*
G01X10163685Y-7916799D01*
G01X10196684Y-7916799D01*
G01X10196684Y-7953799D01*
G01X10220888Y-7953799D01*
G01X10225887Y-7948798D01*
G01X10225887Y-7868798D01*
G01X10220888Y-7863799D01*
G01X10140888Y-7863799D01*
G01X10135887Y-7868798D01*
G37*
G36*
G01X10225884Y-8107802D02*
G01X10225884Y-8027802D01*
G01X10220883Y-8022801D01*
G01X10198087Y-8022801D01*
G01X10198087Y-8059801D01*
G01X10165087Y-8059801D01*
G01X10165087Y-8022801D01*
G01X10140883Y-8022801D01*
G01X10135884Y-8027802D01*
G01X10135884Y-8107802D01*
G01X10140883Y-8112801D01*
G01X10220883Y-8112801D01*
G01X10225884Y-8107802D01*
G37*
G36*
G01X9953573Y-7868798D02*
G01X9953573Y-7948798D01*
G01X9958574Y-7953799D01*
G01X9981370Y-7953799D01*
G01X9981370Y-7916799D01*
G01X10014370Y-7916799D01*
G01X10014370Y-7953799D01*
G01X10038574Y-7953799D01*
G01X10043572Y-7948798D01*
G01X10043572Y-7868798D01*
G01X10038574Y-7863799D01*
G01X9958574Y-7863799D01*
G01X9953573Y-7868798D01*
G37*
G36*
G01X10043570Y-8107802D02*
G01X10043570Y-8027802D01*
G01X10038569Y-8022801D01*
G01X10015772Y-8022801D01*
G01X10015772Y-8059801D01*
G01X9982773Y-8059801D01*
G01X9982773Y-8022801D01*
G01X9958569Y-8022801D01*
G01X9953570Y-8027802D01*
G01X9953570Y-8107802D01*
G01X9958569Y-8112801D01*
G01X10038569Y-8112801D01*
G01X10043570Y-8107802D01*
G37*
G36*
G01X9771258Y-7868798D02*
G01X9771258Y-7948798D01*
G01X9776260Y-7953799D01*
G01X9799056Y-7953799D01*
G01X9799056Y-7916799D01*
G01X9832056Y-7916799D01*
G01X9832056Y-7953799D01*
G01X9856259Y-7953799D01*
G01X9861258Y-7948798D01*
G01X9861258Y-7868798D01*
G01X9856259Y-7863799D01*
G01X9776260Y-7863799D01*
G01X9771258Y-7868798D01*
G37*
G36*
G01X9861256Y-8107802D02*
G01X9861256Y-8027802D01*
G01X9856254Y-8022801D01*
G01X9833458Y-8022801D01*
G01X9833458Y-8059801D01*
G01X9800458Y-8059801D01*
G01X9800458Y-8022801D01*
G01X9776255Y-8022801D01*
G01X9771256Y-8027802D01*
G01X9771256Y-8107802D01*
G01X9776255Y-8112801D01*
G01X9856254Y-8112801D01*
G01X9861256Y-8107802D01*
G37*
G36*
G01X9588944Y-7868798D02*
G01X9588944Y-7948798D01*
G01X9593945Y-7953799D01*
G01X9616742Y-7953799D01*
G01X9616742Y-7916799D01*
G01X9649741Y-7916799D01*
G01X9649741Y-7953799D01*
G01X9673945Y-7953799D01*
G01X9678944Y-7948798D01*
G01X9678944Y-7868798D01*
G01X9673945Y-7863799D01*
G01X9593945Y-7863799D01*
G01X9588944Y-7868798D01*
G37*
G36*
G01X9678941Y-8107802D02*
G01X9678941Y-8027802D01*
G01X9673940Y-8022801D01*
G01X9651144Y-8022801D01*
G01X9651144Y-8059801D01*
G01X9618144Y-8059801D01*
G01X9618144Y-8022801D01*
G01X9593940Y-8022801D01*
G01X9588941Y-8027802D01*
G01X9588941Y-8107802D01*
G01X9593940Y-8112801D01*
G01X9673940Y-8112801D01*
G01X9678941Y-8107802D01*
G37*
G36*
G01X9406630Y-7868798D02*
G01X9406630Y-7948798D01*
G01X9411631Y-7953799D01*
G01X9434427Y-7953799D01*
G01X9434427Y-7916799D01*
G01X9467427Y-7916799D01*
G01X9467427Y-7953799D01*
G01X9491631Y-7953799D01*
G01X9496629Y-7948798D01*
G01X9496629Y-7868798D01*
G01X9491631Y-7863799D01*
G01X9411631Y-7863799D01*
G01X9406630Y-7868798D01*
G37*
G36*
G01X9496627Y-8107802D02*
G01X9496627Y-8027802D01*
G01X9491626Y-8022801D01*
G01X9468829Y-8022801D01*
G01X9468829Y-8059801D01*
G01X9435829Y-8059801D01*
G01X9435829Y-8022801D01*
G01X9411626Y-8022801D01*
G01X9406627Y-8027802D01*
G01X9406627Y-8107802D01*
G01X9411626Y-8112801D01*
G01X9491626Y-8112801D01*
G01X9496627Y-8107802D01*
G37*
G36*
G01X2717757Y-6946661D02*
G01X2745407Y-6946661D01*
G01X2774782Y-6974081D01*
G01X2774782Y-7024408D01*
G01X2768382Y-7030809D01*
G01X2694783Y-7030809D01*
G01X2688382Y-7024408D01*
G01X2688382Y-6974081D01*
G01X2717757Y-6946661D01*
G37*
G36*
G01X2716632Y-6895097D02*
G01X2744282Y-6895097D01*
G01X2773657Y-6867677D01*
G01X2773657Y-6817350D01*
G01X2767256Y-6810949D01*
G01X2693657Y-6810949D01*
G01X2687257Y-6817350D01*
G01X2687257Y-6867677D01*
G01X2716632Y-6895097D01*
G37*
G36*
G01X1395824Y-6496599D02*
G01X1475824Y-6496599D01*
G01X1480825Y-6491597D01*
G01X1480825Y-6468801D01*
G01X1443825Y-6468801D01*
G01X1443825Y-6435801D01*
G01X1480825Y-6435801D01*
G01X1480825Y-6411598D01*
G01X1475824Y-6406599D01*
G01X1395824Y-6406599D01*
G01X1390825Y-6411598D01*
G01X1390825Y-6491597D01*
G01X1395824Y-6496599D01*
G37*
G36*
G01X1634828Y-6406601D02*
G01X1554828Y-6406601D01*
G01X1549827Y-6411603D01*
G01X1549827Y-6434399D01*
G01X1586827Y-6434399D01*
G01X1586827Y-6467399D01*
G01X1549827Y-6467399D01*
G01X1549827Y-6491602D01*
G01X1554828Y-6496601D01*
G01X1634828Y-6496601D01*
G01X1639827Y-6491602D01*
G01X1639827Y-6411603D01*
G01X1634828Y-6406601D01*
G37*
G36*
G01X7507298Y-1736294D02*
G01X7479647Y-1736294D01*
G01X7450272Y-1708875D01*
G01X7450272Y-1658547D01*
G01X7456673Y-1652147D01*
G01X7530272Y-1652147D01*
G01X7536673Y-1658547D01*
G01X7536673Y-1708875D01*
G01X7507298Y-1736294D01*
G37*
G36*
G01X7508423Y-1787859D02*
G01X7480772Y-1787859D01*
G01X7451397Y-1815278D01*
G01X7451397Y-1865606D01*
G01X7457798Y-1872006D01*
G01X7531397Y-1872006D01*
G01X7537798Y-1865606D01*
G01X7537798Y-1815278D01*
G01X7508423Y-1787859D01*
G37*
G36*
G01X3111739Y-1611302D02*
G01X3111739Y-1638953D01*
G01X3084319Y-1668328D01*
G01X3033992Y-1668328D01*
G01X3027591Y-1661927D01*
G01X3027591Y-1588328D01*
G01X3033992Y-1581927D01*
G01X3084319Y-1581927D01*
G01X3111739Y-1611302D01*
G37*
G36*
G01X3163303Y-1610177D02*
G01X3163303Y-1637828D01*
G01X3190723Y-1667203D01*
G01X3241050Y-1667203D01*
G01X3247451Y-1660802D01*
G01X3247451Y-1587203D01*
G01X3241050Y-1580802D01*
G01X3190723Y-1580802D01*
G01X3163303Y-1610177D01*
G37*
G36*
G01X4127739Y-1725602D02*
G01X4127739Y-1753253D01*
G01X4100319Y-1782628D01*
G01X4049992Y-1782628D01*
G01X4043591Y-1776227D01*
G01X4043591Y-1702628D01*
G01X4049992Y-1696227D01*
G01X4100319Y-1696227D01*
G01X4127739Y-1725602D01*
G37*
G36*
G01X4179303Y-1724477D02*
G01X4179303Y-1752128D01*
G01X4206723Y-1781503D01*
G01X4257050Y-1781503D01*
G01X4263451Y-1775102D01*
G01X4263451Y-1701503D01*
G01X4257050Y-1695102D01*
G01X4206723Y-1695102D01*
G01X4179303Y-1724477D01*
G37*
G36*
G01X3561202Y-1275801D02*
G01X3481202Y-1275801D01*
G01X3476201Y-1280803D01*
G01X3476201Y-1303599D01*
G01X3513201Y-1303599D01*
G01X3513201Y-1336599D01*
G01X3476201Y-1336599D01*
G01X3476201Y-1360802D01*
G01X3481202Y-1365801D01*
G01X3561202Y-1365801D01*
G01X3566201Y-1360802D01*
G01X3566201Y-1280803D01*
G01X3561202Y-1275801D01*
G37*
G36*
G01X3322198Y-1365799D02*
G01X3402198Y-1365799D01*
G01X3407199Y-1360797D01*
G01X3407199Y-1338001D01*
G01X3370199Y-1338001D01*
G01X3370199Y-1305001D01*
G01X3407199Y-1305001D01*
G01X3407199Y-1280798D01*
G01X3402198Y-1275799D01*
G01X3322198Y-1275799D01*
G01X3317199Y-1280798D01*
G01X3317199Y-1360797D01*
G01X3322198Y-1365799D01*
G37*
G36*
G01X2837302Y-1225001D02*
G01X2757302Y-1225001D01*
G01X2752301Y-1230003D01*
G01X2752301Y-1252799D01*
G01X2789301Y-1252799D01*
G01X2789301Y-1285799D01*
G01X2752301Y-1285799D01*
G01X2752301Y-1310002D01*
G01X2757302Y-1315001D01*
G01X2837302Y-1315001D01*
G01X2842301Y-1310002D01*
G01X2842301Y-1230003D01*
G01X2837302Y-1225001D01*
G37*
G36*
G01X2598298Y-1314999D02*
G01X2678298Y-1314999D01*
G01X2683299Y-1309997D01*
G01X2683299Y-1287201D01*
G01X2646299Y-1287201D01*
G01X2646299Y-1254201D01*
G01X2683299Y-1254201D01*
G01X2683299Y-1229998D01*
G01X2678298Y-1224999D01*
G01X2598298Y-1224999D01*
G01X2593299Y-1229998D01*
G01X2593299Y-1309997D01*
G01X2598298Y-1314999D01*
G37*
G36*
G01X2775499Y-7358502D02*
G01X2775499Y-7278502D01*
G01X2770497Y-7273501D01*
G01X2747701Y-7273501D01*
G01X2747701Y-7310501D01*
G01X2714701Y-7310501D01*
G01X2714701Y-7273501D01*
G01X2690498Y-7273501D01*
G01X2685499Y-7278502D01*
G01X2685499Y-7358502D01*
G01X2690498Y-7363501D01*
G01X2770497Y-7363501D01*
G01X2775499Y-7358502D01*
G37*
G36*
G01X2685501Y-7119498D02*
G01X2685501Y-7199498D01*
G01X2690503Y-7204499D01*
G01X2713299Y-7204499D01*
G01X2713299Y-7167499D01*
G01X2746299Y-7167499D01*
G01X2746299Y-7204499D01*
G01X2770502Y-7204499D01*
G01X2775501Y-7199498D01*
G01X2775501Y-7119498D01*
G01X2770502Y-7114499D01*
G01X2690503Y-7114499D01*
G01X2685501Y-7119498D01*
G37*

G04 Pad Start*
G54D11*
G01X5147894Y-4055681D03*
G01X5147894Y-3335718D03*
G01X4427931Y-3335744D03*
G01X4427906Y-4055681D03*
G54D12*
G01X9513900Y-1568704D03*
G01X9513900Y-1758696D03*
G01X9713900Y-1663700D03*
G54D13*
G01X9477693Y-2330704D03*
G01X9477693Y-2520696D03*
G01X9724708Y-2425700D03*
G54D14*
G01X5289296Y-4421200D03*
G01X5099304Y-4421200D03*
G01X5194300Y-4621200D03*
G54D15*
G01X5685744Y-5364175D03*
G01X5650380Y-5399540D03*
G01X5615033Y-5434886D03*
G01X5579669Y-5470250D03*
G01X5544323Y-5505597D03*
G01X5508959Y-5540961D03*
G01X5473612Y-5576307D03*
G01X5438248Y-5611671D03*
G01X5402902Y-5647018D03*
G01X5367537Y-5682382D03*
G01X5332191Y-5717728D03*
G01X5296827Y-5753092D03*
G01X5261480Y-5788439D03*
G01X5226116Y-5823803D03*
G01X5190770Y-5859149D03*
G01X5155406Y-5894513D03*
G01X5120060Y-5929860D03*
G01X5084695Y-5965224D03*
G01X5049349Y-6000570D03*
G01X5013985Y-6035935D03*
G01X4978639Y-6071281D03*
G01X4943274Y-6106645D03*
G01X4907928Y-6141991D03*
G01X4872564Y-6177355D03*
G01X4837217Y-6212702D03*
G01X4801853Y-6248066D03*
G01X4766507Y-6283412D03*
G01X4731143Y-6318777D03*
G01X4695796Y-6354123D03*
G01X4660432Y-6389487D03*
G01X4625086Y-6424833D03*
G01X4589722Y-6460198D03*
G01X4554375Y-6495544D03*
G01X4519011Y-6530908D03*
G01X4483665Y-6566255D03*
G01X4448300Y-6601619D03*
G54D16*
G01X4448300Y-6891537D03*
G01X4483665Y-6926902D03*
G01X4519011Y-6962248D03*
G01X4554375Y-6997612D03*
G01X4589722Y-7032959D03*
G01X4625086Y-7068323D03*
G01X4660432Y-7103669D03*
G01X4695796Y-7139033D03*
G01X4731143Y-7174380D03*
G01X4766507Y-7209744D03*
G01X4801853Y-7245090D03*
G01X4837217Y-7280454D03*
G01X4872564Y-7315801D03*
G01X4907928Y-7351165D03*
G01X4943274Y-7386511D03*
G01X4978639Y-7421875D03*
G01X5013985Y-7457222D03*
G01X5049349Y-7492586D03*
G01X5084695Y-7527932D03*
G01X5120060Y-7563297D03*
G01X5155406Y-7598643D03*
G01X5190770Y-7634007D03*
G01X5226116Y-7669353D03*
G01X5261480Y-7704718D03*
G01X5296827Y-7740064D03*
G01X5332191Y-7775428D03*
G01X5367537Y-7810774D03*
G01X5402902Y-7846138D03*
G01X5438248Y-7881485D03*
G01X5473612Y-7916849D03*
G01X5508959Y-7952195D03*
G01X5544323Y-7987560D03*
G01X5579669Y-8022906D03*
G01X5615033Y-8058270D03*
G01X5650380Y-8093617D03*
G01X5685744Y-8128981D03*
G54D15*
G01X5975662Y-8128981D03*
G01X6011027Y-8093617D03*
G01X6046373Y-8058270D03*
G01X6081737Y-8022906D03*
G01X6117084Y-7987560D03*
G01X6152448Y-7952195D03*
G01X6187794Y-7916849D03*
G01X6223158Y-7881485D03*
G01X6258505Y-7846138D03*
G01X6293869Y-7810774D03*
G01X6329215Y-7775428D03*
G01X6364579Y-7740064D03*
G01X6399926Y-7704718D03*
G01X6435290Y-7669353D03*
G01X6470636Y-7634007D03*
G01X6506000Y-7598643D03*
G01X6541347Y-7563297D03*
G01X6576711Y-7527932D03*
G01X6612057Y-7492586D03*
G01X6647422Y-7457222D03*
G01X6682768Y-7421875D03*
G01X6718132Y-7386511D03*
G01X6753478Y-7351165D03*
G01X6788843Y-7315801D03*
G01X6824189Y-7280454D03*
G01X6859553Y-7245090D03*
G01X6894899Y-7209744D03*
G01X6930264Y-7174380D03*
G01X6965610Y-7139033D03*
G01X7000974Y-7103669D03*
G01X7036320Y-7068323D03*
G01X7071685Y-7032959D03*
G01X7107031Y-6997612D03*
G01X7142395Y-6962248D03*
G01X7177742Y-6926902D03*
G01X7213106Y-6891537D03*
G54D16*
G01X7213106Y-6601619D03*
G01X7177742Y-6566255D03*
G01X7142395Y-6530908D03*
G01X7107031Y-6495544D03*
G01X7071685Y-6460198D03*
G01X7036320Y-6424833D03*
G01X7000974Y-6389487D03*
G01X6965610Y-6354123D03*
G01X6930264Y-6318777D03*
G01X6894899Y-6283412D03*
G01X6859553Y-6248066D03*
G01X6824189Y-6212702D03*
G01X6788843Y-6177355D03*
G01X6753478Y-6141991D03*
G01X6718132Y-6106645D03*
G01X6682768Y-6071281D03*
G01X6647422Y-6035935D03*
G01X6612057Y-6000570D03*
G01X6576711Y-5965224D03*
G01X6541347Y-5929860D03*
G01X6506000Y-5894513D03*
G01X6470636Y-5859149D03*
G01X6435290Y-5823803D03*
G01X6399926Y-5788439D03*
G01X6364579Y-5753092D03*
G01X6329215Y-5717728D03*
G01X6293869Y-5682382D03*
G01X6258505Y-5647018D03*
G01X6223158Y-5611671D03*
G01X6187794Y-5576307D03*
G01X6152448Y-5540961D03*
G01X6117084Y-5505597D03*
G01X6081737Y-5470250D03*
G01X6046373Y-5434886D03*
G01X6011027Y-5399540D03*
G01X5975662Y-5364175D03*
G54D17*
G01X4349563Y-5769500D03*
G01X4193989Y-5613926D03*
G01X4073779Y-5734135D03*
G01X4229353Y-5889709D03*
G54D19*
G01X11424107Y-9835693D03*
G01X11004093Y-9835693D03*
G01X11424107Y-9620707D03*
G01X11004093Y-9620707D03*
G54D14*
G01X4440719Y-4829087D03*
G01X4630711Y-4829087D03*
G01X4535715Y-4629088D03*
G54D20*
G01X487473Y-5220000D03*
G01X487473Y-5347000D03*
G01X487473Y-5474000D03*
G01X487473Y-5601000D03*
G01X1023972Y-5220000D03*
G01X1023972Y-5347000D03*
G01X1023972Y-5474000D03*
G01X1023972Y-5601000D03*
G54D21*
G01X383591Y-4381500D03*
G01X383591Y-4508500D03*
G01X383591Y-4635500D03*
G01X383591Y-4762500D03*
G01X1089609Y-4381500D03*
G01X1089609Y-4508500D03*
G01X1089609Y-4635500D03*
G01X1089609Y-4762500D03*
G54D19*
G01X4134796Y-9496585D03*
G01X4554810Y-9496585D03*
G01X4134796Y-9711571D03*
G01X4554810Y-9711571D03*
G01X7322496Y-9509285D03*
G01X7742510Y-9509285D03*
G01X7322496Y-9724271D03*
G01X7742510Y-9724271D03*
G01X5709596Y-8315485D03*
G01X6129610Y-8315485D03*
G01X5709596Y-8530471D03*
G01X6129610Y-8530471D03*
G01X5709596Y-9394985D03*
G01X6129610Y-9394985D03*
G01X5709596Y-9609971D03*
G01X6129610Y-9609971D03*
G01X4744396Y-8861585D03*
G01X5164410Y-8861585D03*
G01X4744396Y-9076571D03*
G01X5164410Y-9076571D03*
G01X6674796Y-8861585D03*
G01X7094810Y-8861585D03*
G01X6674796Y-9076571D03*
G01X7094810Y-9076571D03*
G01X5709596Y-8861585D03*
G01X6129610Y-8861585D03*
G01X5709596Y-9076571D03*
G01X6129610Y-9076571D03*
G54D22*
G01X725503Y-3821097D03*
G01X825503Y-3821097D03*
G01X925502Y-3821097D03*
G01X925502Y-3621098D03*
G01X825503Y-3621098D03*
G01X725503Y-3621098D03*
G54D23*
G01X6348551Y-1412929D03*
G01X6348551Y-1539929D03*
G01X6348551Y-1666929D03*
G01X6348551Y-1793929D03*
G01X6902119Y-1412929D03*
G01X6902119Y-1539929D03*
G01X6902119Y-1666929D03*
G01X6902119Y-1793929D03*
G54D24*
G01X5962074Y-1786162D03*
G01X5962074Y-1659162D03*
G01X5962074Y-1532162D03*
G01X5962074Y-1405162D03*
G01X5421054Y-1786162D03*
G01X5421054Y-1659162D03*
G01X5421054Y-1532162D03*
G01X5421054Y-1405162D03*
G54D25*
G01X235407Y-933907D03*
G01X235407Y-513893D03*
G01X450393Y-933907D03*
G01X450393Y-513893D03*
G54D26*
G01X4656100Y-5313400D03*
G01X4843500Y-5126000D03*
G54D27*
G01X11144098Y-2459609D03*
G01X11144098Y-2569591D03*
G01X11284102Y-2569591D03*
G01X11284102Y-2459609D03*
G54D28*
G01X2015007Y-5769699D03*
G01X1794993Y-5769699D03*
G01X1794993Y-5939701D03*
G01X2015007Y-5939701D03*
G54D29*
G01X5502903Y-3973901D03*
G01X5802903Y-3973901D03*
G36*
G01X5747886Y-3609957D02*
G01X5747886Y-3795377D01*
G01X5747780Y-3799830D01*
G01X5747467Y-3804273D01*
G01X5746947Y-3808697D01*
G01X5746220Y-3813091D01*
G01X5745285Y-3817448D01*
G01X5744150Y-3821753D01*
G01X5742814Y-3826002D01*
G01X5741280Y-3830183D01*
G01X5739550Y-3834288D01*
G01X5737632Y-3838309D01*
G01X5735527Y-3842233D01*
G01X5733238Y-3846056D01*
G01X5730774Y-3849766D01*
G01X5728140Y-3853358D01*
G01X5725341Y-3856820D01*
G01X5722380Y-3860150D01*
G01X5719268Y-3863335D01*
G01X5716009Y-3866373D01*
G01X5712613Y-3869253D01*
G01X5709085Y-3871971D01*
G01X5705433Y-3874521D01*
G01X5701666Y-3876896D01*
G01X5697790Y-3879093D01*
G01X5693817Y-3881108D01*
G01X5685888Y-3882931D01*
G01X5685888Y-4052664D01*
G01X5619888Y-4052664D01*
G01X5619888Y-3882931D01*
G01X5611953Y-3881108D01*
G01X5607981Y-3879093D01*
G01X5604105Y-3876896D01*
G01X5600338Y-3874521D01*
G01X5596685Y-3871971D01*
G01X5593157Y-3869253D01*
G01X5589761Y-3866373D01*
G01X5586502Y-3863335D01*
G01X5583391Y-3860150D01*
G01X5580429Y-3856820D01*
G01X5577630Y-3853358D01*
G01X5574996Y-3849766D01*
G01X5572532Y-3846056D01*
G01X5570244Y-3842233D01*
G01X5568138Y-3838309D01*
G01X5566221Y-3834288D01*
G01X5564491Y-3830183D01*
G01X5562957Y-3826002D01*
G01X5561621Y-3821753D01*
G01X5560485Y-3817448D01*
G01X5559550Y-3813091D01*
G01X5558824Y-3808697D01*
G01X5558303Y-3804273D01*
G01X5557991Y-3799830D01*
G01X5557884Y-3795377D01*
G01X5557884Y-3609957D01*
G01X5557991Y-3605505D01*
G01X5558303Y-3601062D01*
G01X5558824Y-3596638D01*
G01X5559550Y-3592244D01*
G01X5560485Y-3587887D01*
G01X5561621Y-3583582D01*
G01X5562957Y-3579333D01*
G01X5564491Y-3575152D01*
G01X5566221Y-3571047D01*
G01X5568138Y-3567026D01*
G01X5570244Y-3563102D01*
G01X5572532Y-3559279D01*
G01X5574996Y-3555568D01*
G01X5577630Y-3551977D01*
G01X5580429Y-3548515D01*
G01X5583391Y-3545185D01*
G01X5586502Y-3542000D01*
G01X5589761Y-3538962D01*
G01X5593157Y-3536082D01*
G01X5596685Y-3533364D01*
G01X5600338Y-3530814D01*
G01X5604105Y-3528439D01*
G01X5607981Y-3526242D01*
G01X5611953Y-3524227D01*
G01X5616017Y-3522404D01*
G01X5620160Y-3520770D01*
G01X5624376Y-3519335D01*
G01X5628656Y-3518098D01*
G01X5632989Y-3517065D01*
G01X5637363Y-3516234D01*
G01X5641775Y-3515609D01*
G01X5646210Y-3515193D01*
G01X5650658Y-3514984D01*
G01X5655113Y-3514984D01*
G01X5659560Y-3515193D01*
G01X5663995Y-3515609D01*
G01X5668407Y-3516234D01*
G01X5672781Y-3517065D01*
G01X5677114Y-3518098D01*
G01X5681394Y-3519335D01*
G01X5685611Y-3520770D01*
G01X5689753Y-3522404D01*
G01X5693817Y-3524227D01*
G01X5697790Y-3526242D01*
G01X5701666Y-3528439D01*
G01X5705433Y-3530814D01*
G01X5709085Y-3533364D01*
G01X5712613Y-3536082D01*
G01X5716009Y-3538962D01*
G01X5719268Y-3542000D01*
G01X5722380Y-3545185D01*
G01X5725341Y-3548515D01*
G01X5728140Y-3551977D01*
G01X5730774Y-3555568D01*
G01X5733238Y-3559279D01*
G01X5735527Y-3563102D01*
G01X5737632Y-3567026D01*
G01X5739550Y-3571047D01*
G01X5741280Y-3575152D01*
G01X5742814Y-3579333D01*
G01X5744150Y-3583582D01*
G01X5745285Y-3587887D01*
G01X5746220Y-3592244D01*
G01X5746947Y-3596638D01*
G01X5747467Y-3601062D01*
G01X5747780Y-3605505D01*
G01X5747886Y-3609957D01*
G37*
G54D30*
G01X2322500Y-551713D03*
G01X2122500Y-551713D03*
G54D31*
G01X2557501Y18288D03*
G01X1887499Y18288D03*
G54D10*
G01X4241808Y-2819397D03*
G36*
G01X4356799Y-2829413D02*
G01X4406801Y-2829413D01*
G01X4406354Y-2835242D01*
G01X4405699Y-2841053D01*
G01X4404840Y-2846837D01*
G01X4403776Y-2852585D01*
G01X4402508Y-2858295D01*
G01X4401040Y-2863954D01*
G01X4399374Y-2869557D01*
G01X4397507Y-2875100D01*
G01X4395447Y-2880571D01*
G01X4393194Y-2885966D01*
G01X4390751Y-2891279D01*
G01X4388122Y-2896502D01*
G01X4385307Y-2901627D01*
G01X4382315Y-2906652D01*
G01X4379148Y-2911564D01*
G01X4375805Y-2916362D01*
G01X4372298Y-2921041D01*
G01X4368625Y-2925590D01*
G01X4364792Y-2930007D01*
G01X4360807Y-2934284D01*
G01X4356674Y-2938419D01*
G01X4352394Y-2942405D01*
G01X4347977Y-2946235D01*
G01X4343428Y-2949908D01*
G01X4338752Y-2953418D01*
G01X4333951Y-2956758D01*
G01X4329039Y-2959928D01*
G01X4324015Y-2962920D01*
G01X4318889Y-2965732D01*
G01X4313667Y-2968363D01*
G01X4308356Y-2970804D01*
G01X4302958Y-2973057D01*
G01X4297487Y-2975120D01*
G01X4291945Y-2976984D01*
G01X4286341Y-2978653D01*
G01X4280682Y-2980121D01*
G01X4274972Y-2981386D01*
G01X4269224Y-2982450D01*
G01X4263441Y-2983309D01*
G01X4257629Y-2983964D01*
G01X4251800Y-2984411D01*
G01X4251800Y-2934404D01*
G01X4256664Y-2933893D01*
G01X4261503Y-2933174D01*
G01X4266306Y-2932250D01*
G01X4271063Y-2931124D01*
G01X4275773Y-2929796D01*
G01X4280418Y-2928269D01*
G01X4284995Y-2926545D01*
G01X4289496Y-2924630D01*
G01X4293911Y-2922524D01*
G01X4298231Y-2920233D01*
G01X4302450Y-2917759D01*
G01X4306560Y-2915110D01*
G01X4310555Y-2912285D01*
G01X4314426Y-2909296D01*
G01X4318165Y-2906144D01*
G01X4321767Y-2902836D01*
G01X4325226Y-2899377D01*
G01X4328533Y-2895775D01*
G01X4331686Y-2892036D01*
G01X4334678Y-2888165D01*
G01X4337500Y-2884173D01*
G01X4340151Y-2880063D01*
G01X4342625Y-2875841D01*
G01X4344916Y-2871521D01*
G01X4347022Y-2867106D01*
G01X4348940Y-2862608D01*
G01X4350662Y-2858031D01*
G01X4352188Y-2853383D01*
G01X4353517Y-2848676D01*
G01X4354645Y-2843919D01*
G01X4355569Y-2839115D01*
G01X4356285Y-2834277D01*
G01X4356799Y-2829413D01*
G37*
G36*
G01X4251818Y-2704401D02*
G01X4251818Y-2654389D01*
G01X4257645Y-2654846D01*
G01X4263456Y-2655491D01*
G01X4269240Y-2656360D01*
G01X4274988Y-2657422D01*
G01X4280698Y-2658689D01*
G01X4286357Y-2660157D01*
G01X4291962Y-2661818D01*
G01X4297502Y-2663683D01*
G01X4302973Y-2665753D01*
G01X4308368Y-2668003D01*
G01X4313682Y-2670442D01*
G01X4318904Y-2673068D01*
G01X4324033Y-2675890D01*
G01X4329054Y-2678882D01*
G01X4333969Y-2682042D01*
G01X4338765Y-2685392D01*
G01X4343443Y-2688897D01*
G01X4347992Y-2692575D01*
G01X4352409Y-2696398D01*
G01X4356687Y-2700393D01*
G01X4360824Y-2704516D01*
G01X4364807Y-2708798D01*
G01X4368637Y-2713213D01*
G01X4372310Y-2717770D01*
G01X4375821Y-2722441D01*
G01X4379161Y-2727249D01*
G01X4382331Y-2732151D01*
G01X4385323Y-2737185D01*
G01X4388134Y-2742301D01*
G01X4390766Y-2747533D01*
G01X4393209Y-2752834D01*
G01X4395460Y-2758239D01*
G01X4397522Y-2763710D01*
G01X4399387Y-2769255D01*
G01X4401055Y-2774851D01*
G01X4402524Y-2780510D01*
G01X4403791Y-2786217D01*
G01X4404853Y-2791971D01*
G01X4405711Y-2797757D01*
G01X4406367Y-2803563D01*
G01X4406816Y-2809400D01*
G01X4356806Y-2809400D01*
G01X4356296Y-2804528D01*
G01X4355577Y-2799697D01*
G01X4354652Y-2794889D01*
G01X4353527Y-2790126D01*
G01X4352199Y-2785427D01*
G01X4350672Y-2780779D01*
G01X4348947Y-2776205D01*
G01X4347035Y-2771699D01*
G01X4344927Y-2767279D01*
G01X4342638Y-2762959D01*
G01X4340164Y-2758747D01*
G01X4337515Y-2754630D01*
G01X4334688Y-2750645D01*
G01X4331698Y-2746774D01*
G01X4328546Y-2743032D01*
G01X4325239Y-2739423D01*
G01X4321782Y-2735969D01*
G01X4318180Y-2732656D01*
G01X4314439Y-2729504D01*
G01X4310568Y-2726512D01*
G01X4306575Y-2723698D01*
G01X4302465Y-2721038D01*
G01X4298244Y-2718575D01*
G01X4293923Y-2716273D01*
G01X4289509Y-2714178D01*
G01X4285013Y-2712250D01*
G01X4280433Y-2710528D01*
G01X4275785Y-2709004D01*
G01X4271079Y-2707673D01*
G01X4266324Y-2706545D01*
G01X4261521Y-2705623D01*
G01X4256679Y-2704909D01*
G01X4251818Y-2704401D01*
G37*
G36*
G01X4126796Y-2809387D02*
G01X4076789Y-2809382D01*
G01X4077223Y-2803538D01*
G01X4077891Y-2797741D01*
G01X4078737Y-2791943D01*
G01X4079806Y-2786192D01*
G01X4081076Y-2780490D01*
G01X4082547Y-2774836D01*
G01X4084208Y-2769230D01*
G01X4086075Y-2763690D01*
G01X4088135Y-2758214D01*
G01X4090396Y-2752827D01*
G01X4092824Y-2747498D01*
G01X4095466Y-2742291D01*
G01X4098282Y-2737165D01*
G01X4101262Y-2732133D01*
G01X4104439Y-2727236D01*
G01X4107779Y-2722420D01*
G01X4111285Y-2717744D01*
G01X4114963Y-2713200D01*
G01X4118790Y-2708783D01*
G01X4122776Y-2704506D01*
G01X4126911Y-2700373D01*
G01X4131191Y-2696383D01*
G01X4135608Y-2692555D01*
G01X4140154Y-2688874D01*
G01X4144828Y-2685364D01*
G01X4149644Y-2682032D01*
G01X4154541Y-2678854D01*
G01X4159578Y-2675870D01*
G01X4164698Y-2673060D01*
G01X4169905Y-2670416D01*
G01X4175232Y-2667993D01*
G01X4180642Y-2665738D01*
G01X4186098Y-2663668D01*
G01X4191638Y-2661803D01*
G01X4197246Y-2660134D01*
G01X4202900Y-2658666D01*
G01X4208602Y-2657389D01*
G01X4214353Y-2656327D01*
G01X4220149Y-2655484D01*
G01X4225948Y-2654813D01*
G01X4231787Y-2654384D01*
G01X4231790Y-2704394D01*
G01X4226926Y-2704899D01*
G01X4222079Y-2705611D01*
G01X4217281Y-2706538D01*
G01X4212516Y-2707660D01*
G01X4207800Y-2708984D01*
G01X4203174Y-2710528D01*
G01X4198595Y-2712240D01*
G01X4194101Y-2714165D01*
G01X4189667Y-2716258D01*
G01X4185351Y-2718554D01*
G01X4181137Y-2721026D01*
G01X4177030Y-2723688D01*
G01X4173037Y-2726507D01*
G01X4169143Y-2729484D01*
G01X4165432Y-2732651D01*
G01X4161813Y-2735946D01*
G01X4158369Y-2739423D01*
G01X4155046Y-2743004D01*
G01X4151887Y-2746743D01*
G01X4148915Y-2750632D01*
G01X4146093Y-2754622D01*
G01X4143421Y-2758717D01*
G01X4140962Y-2762943D01*
G01X4138661Y-2767264D01*
G01X4136573Y-2771694D01*
G01X4134648Y-2776187D01*
G01X4132918Y-2780751D01*
G01X4131391Y-2785392D01*
G01X4130068Y-2790111D01*
G01X4128945Y-2794874D01*
G01X4128016Y-2799672D01*
G01X4127304Y-2804518D01*
G01X4126796Y-2809387D01*
G37*
G36*
G01X4231787Y-2934406D02*
G01X4231787Y-2984409D01*
G01X4225958Y-2983962D01*
G01X4220144Y-2983306D01*
G01X4214360Y-2982448D01*
G01X4208615Y-2981383D01*
G01X4202905Y-2980116D01*
G01X4197246Y-2978648D01*
G01X4191643Y-2976982D01*
G01X4186098Y-2975115D01*
G01X4180627Y-2973055D01*
G01X4175232Y-2970802D01*
G01X4169921Y-2968358D01*
G01X4164696Y-2965729D01*
G01X4159573Y-2962915D01*
G01X4154548Y-2959923D01*
G01X4149636Y-2956756D01*
G01X4144836Y-2953413D01*
G01X4140157Y-2949905D01*
G01X4135608Y-2946232D01*
G01X4131193Y-2942399D01*
G01X4126916Y-2938414D01*
G01X4122781Y-2934279D01*
G01X4118795Y-2930002D01*
G01X4114963Y-2925582D01*
G01X4111292Y-2921036D01*
G01X4107779Y-2916359D01*
G01X4104439Y-2911559D01*
G01X4101269Y-2906646D01*
G01X4098277Y-2901622D01*
G01X4095468Y-2896497D01*
G01X4092837Y-2891274D01*
G01X4090396Y-2885963D01*
G01X4088143Y-2880566D01*
G01X4086080Y-2875095D01*
G01X4084213Y-2869552D01*
G01X4082545Y-2863949D01*
G01X4081079Y-2858290D01*
G01X4079809Y-2852580D01*
G01X4078747Y-2846829D01*
G01X4077891Y-2841048D01*
G01X4077233Y-2835237D01*
G01X4076789Y-2829408D01*
G01X4126796Y-2829408D01*
G01X4127304Y-2834272D01*
G01X4128023Y-2839110D01*
G01X4128948Y-2843914D01*
G01X4130073Y-2848668D01*
G01X4131404Y-2853380D01*
G01X4132928Y-2858026D01*
G01X4134653Y-2862603D01*
G01X4136570Y-2867104D01*
G01X4138673Y-2871516D01*
G01X4140962Y-2875839D01*
G01X4143441Y-2880058D01*
G01X4146090Y-2884167D01*
G01X4148912Y-2888163D01*
G01X4151904Y-2892034D01*
G01X4155056Y-2895773D01*
G01X4158364Y-2899374D01*
G01X4161823Y-2902834D01*
G01X4165420Y-2906141D01*
G01X4169161Y-2909293D01*
G01X4173032Y-2912283D01*
G01X4177025Y-2915107D01*
G01X4181137Y-2917759D01*
G01X4185356Y-2920233D01*
G01X4189679Y-2922521D01*
G01X4194094Y-2924630D01*
G01X4198592Y-2926547D01*
G01X4203167Y-2928269D01*
G01X4207815Y-2929796D01*
G01X4212521Y-2931124D01*
G01X4217276Y-2932252D01*
G01X4222085Y-2933177D01*
G01X4226923Y-2933893D01*
G01X4231787Y-2934406D01*
G37*
G54D32*
G01X4077995Y-1362989D03*
G01X4077995Y-1428013D03*
G01X4077995Y-1493012D03*
G01X4077995Y-1558011D03*
G01X4507205Y-1362989D03*
G01X4507205Y-1428013D03*
G01X4507205Y-1493012D03*
G01X4507205Y-1558011D03*
G54D33*
G01X4489770Y-5905518D03*
G01X4390772Y-6004517D03*
G01X3984372Y-5572717D03*
G01X4083370Y-5473718D03*
G01X5040599Y-5208301D03*
G01X4941601Y-5307299D03*
G01X4763801Y-5485099D03*
G01X4862799Y-5386101D03*
G54D27*
G01X10919217Y-9020425D03*
G01X10919217Y-9160430D03*
G01X4307115Y-4646385D03*
G01X4307115Y-4506380D03*
G01X4764315Y-4773385D03*
G01X4764315Y-4913390D03*
G01X4307115Y-4773385D03*
G01X4307115Y-4913389D03*
G01X4764315Y-4646385D03*
G01X4764315Y-4506380D03*
G54D34*
G01X5256499Y-5358099D03*
G01X5157501Y-5259101D03*
G54D35*
G01X4097001Y-6594178D03*
G01X4237005Y-6594178D03*
G01X4084301Y-6949778D03*
G01X4224305Y-6949778D03*
G54D33*
G01X4687601Y-8152099D03*
G01X4786599Y-8053101D03*
G01X4979701Y-8431499D03*
G01X5078699Y-8332501D03*
G01X5271801Y-8710899D03*
G01X5370799Y-8611901D03*
G54D35*
G01X4097001Y-6771978D03*
G01X4237005Y-6771978D03*
G54D34*
G01X6704299Y-8075899D03*
G01X6605301Y-7976901D03*
G01X7021799Y-7745699D03*
G01X6922801Y-7646701D03*
G54D35*
G01X7626502Y-7010400D03*
G01X7486498Y-7010400D03*
G01X7296302Y-6032500D03*
G01X7156298Y-6032500D03*
G01X6953402Y-5638800D03*
G01X6813398Y-5638800D03*
G01X6686702Y-5181600D03*
G01X6546698Y-5181600D03*
G01X5583205Y-4155778D03*
G01X5443201Y-4155778D03*
G54D27*
G01X5462411Y-3428695D03*
G01X5462411Y-3568700D03*
G54D35*
G01X5760701Y-4155778D03*
G01X5900705Y-4155778D03*
G54D27*
G01X5848502Y-3428695D03*
G01X5848502Y-3568700D03*
G01X1238476Y-865858D03*
G01X1238476Y-1005863D03*
G54D35*
G01X10267883Y-2298142D03*
G01X10127878Y-2298142D03*
G01X11258702Y-2286000D03*
G01X11118698Y-2286000D03*
G01X10268102Y-2120900D03*
G01X10128098Y-2120900D03*
G54D27*
G01X1587500Y-5886602D03*
G01X1587500Y-5746598D03*
G54D35*
G01X1443271Y-6612174D03*
G01X1583276Y-6612174D03*
G54D27*
G01X2260600Y-5771998D03*
G01X2260600Y-5912002D03*
G01X2730500Y-6407607D03*
G01X2730500Y-6267602D03*
G01X2732002Y-6546698D03*
G01X2732002Y-6686702D03*
G01X2692400Y-5912002D03*
G01X2692400Y-5771998D03*
G01X2475872Y-5771998D03*
G01X2475872Y-5912002D03*
G54D35*
G01X3046620Y-1826932D03*
G01X3186625Y-1826932D03*
G01X3046620Y-2004732D03*
G01X3186625Y-2004732D03*
G01X3041498Y-2184400D03*
G01X3181502Y-2184400D03*
G01X3041498Y-2374900D03*
G01X3181502Y-2374900D03*
G54D27*
G01X3325793Y-2514190D03*
G01X3325793Y-2374185D03*
G01X3478193Y-2514190D03*
G01X3478193Y-2374185D03*
G01X3644900Y-2508402D03*
G01X3644900Y-2368398D03*
G54D35*
G01X3373872Y-1654708D03*
G01X3513877Y-1654708D03*
G01X3371698Y-1485900D03*
G01X3511702Y-1485900D03*
G01X3829202Y-1317520D03*
G01X3689198Y-1317520D03*
G01X3993998Y-2235200D03*
G01X4134002Y-2235200D03*
G54D27*
G01X1470533Y-5111907D03*
G01X1470533Y-5251912D03*
G01X1289130Y-5111907D03*
G01X1289130Y-5251912D03*
G54D35*
G01X1466798Y-4410777D03*
G01X1326794Y-4410777D03*
G01X1466799Y-4237388D03*
G01X1326794Y-4237388D03*
G54D36*
G01X4746033Y-9855538D03*
G01X4905952Y-9854852D03*
G01X4798236Y-3076616D03*
G01X4958155Y-3075930D03*
G01X6632685Y-9855538D03*
G01X6792603Y-9854852D03*
G01X5714779Y-9855538D03*
G01X5874672Y-9854852D03*
G01X9246610Y-832508D03*
G01X9246610Y-1002688D03*
G54D27*
G01X1092200Y-6406998D03*
G01X1092200Y-6547002D03*
G54D37*
G01X279403Y-6517996D03*
G01X533403Y-6517996D03*
G01X533403Y-5928004D03*
G01X279397Y-5930900D03*
G54D14*
G01X2600844Y-8202820D03*
G01X2410852Y-8202820D03*
G01X2505848Y-8402820D03*
G54D38*
G01X495300Y-8689797D03*
G01X495300Y-9064803D03*
G54D27*
G01X7651161Y-3605981D03*
G01X7651161Y-3745986D03*
G01X7486061Y-3605981D03*
G01X7486061Y-3745986D03*
G54D35*
G01X7251264Y-3701383D03*
G01X7111259Y-3701383D03*
G01X7136659Y-3891883D03*
G01X7276664Y-3891883D03*
G54D27*
G01X6571661Y-4063486D03*
G01X6571661Y-3923481D03*
G54D39*
G01X6222997Y-3472990D03*
G01X6222997Y-3893005D03*
G54D40*
G01X11515941Y-5105400D03*
G01X11750459Y-5105400D03*
G01X11528641Y-2654300D03*
G01X11763159Y-2654300D03*
G01X7336621Y-4069683D03*
G01X7102102Y-4069683D03*
G01X9483941Y-2120900D03*
G01X9718459Y-2120900D03*
G54D41*
G01X6602629Y-3540431D03*
G01X6922618Y-3540431D03*
G54D42*
G01X7149765Y-3503886D03*
G01X7244761Y-3503886D03*
G01X7339757Y-3503886D03*
G01X7339757Y-3263881D03*
G01X7244761Y-3263881D03*
G01X7149765Y-3263881D03*
G54D43*
G01X9271114Y-9483496D03*
G01X10821099Y-9483496D03*
G54D44*
G01X10731106Y-8523503D03*
G54D45*
G01X9270302Y-8523503D03*
G54D46*
G01X9390317Y-8423504D03*
G01X9500299Y-8423504D03*
G01X9610306Y-8423504D03*
G01X9720237Y-8423504D03*
G01X9830270Y-8423504D03*
G01X9940252Y-8423504D03*
G01X10050285Y-8423504D03*
G01X10160241Y-8423504D03*
G01X10270198Y-8423504D03*
G54D12*
G01X9488500Y-1136904D03*
G01X9488500Y-1326896D03*
G01X9688500Y-1231900D03*
G01X1074015Y-1036737D03*
G01X1074015Y-846745D03*
G01X874015Y-941741D03*
G54D47*
G01X5643182Y-2931897D03*
G01X5693169Y-2706903D03*
G01X5743181Y-2931897D03*
G01X5793169Y-2706903D03*
G01X5843181Y-2931897D03*
G01X5893168Y-2706903D03*
G01X5943181Y-2931897D03*
G01X5993168Y-2706903D03*
G01X6043181Y-2931897D03*
G01X6093168Y-2706903D03*
G01X6143181Y-2931897D03*
G01X6193168Y-2706903D03*
G54D48*
G01X5483187Y-2819400D03*
G01X6353213Y-2819400D03*
G54D49*
G01X2835402Y-180010D03*
G01X3565398Y-170002D03*
G01X2835402Y-470002D03*
G01X3565398Y-880008D03*
G01X2835402Y-1040003D03*
G01X3565398Y-1099998D03*
G54D27*
G01X2741944Y-7689698D03*
G01X2741944Y-7829702D03*
G01X2552700Y-7829702D03*
G01X2552700Y-7689698D03*
G54D50*
G01X7886700Y-2067611D03*
G01X8013700Y-2067611D03*
G01X8140700Y-2067611D03*
G01X8267700Y-2067611D03*
G01X8394700Y-2067611D03*
G01X8521700Y-2067611D03*
G01X8648700Y-2067611D03*
G01X8775700Y-2067611D03*
G01X7886700Y-1513789D03*
G01X8013700Y-1513789D03*
G01X8140700Y-1513789D03*
G01X8267700Y-1513789D03*
G01X8394700Y-1513789D03*
G01X8521700Y-1513789D03*
G01X8648700Y-1513789D03*
G01X8775700Y-1513789D03*
G54D35*
G01X7956702Y-2362200D03*
G01X7816698Y-2362200D03*
G01X8265736Y-2362200D03*
G01X8125731Y-2362200D03*
G01X8574769Y-2362200D03*
G01X8434764Y-2362200D03*
G01X8883802Y-2362200D03*
G01X8743798Y-2362200D03*
G54D27*
G01X7673755Y-1831471D03*
G01X7673755Y-1691466D03*
G01X5143500Y-1843477D03*
G01X5143500Y-1703472D03*
G01X7493052Y-1524000D03*
G01X7493052Y-1383995D03*
G54D51*
G01X9765297Y-7282401D03*
G01X9640303Y-7282401D03*
G54D52*
G01X10020287Y-6992409D03*
G01X9385313Y-6992409D03*
G54D53*
G01X10541000Y-8104988D03*
G01X10541000Y-7897012D03*
G54D54*
G01X9752813Y-7272604D03*
G01X9652813Y-7272604D03*
G54D55*
G01X9862795Y-7027596D03*
G01X9542805Y-7027596D03*
G54D35*
G01X4679798Y-1701800D03*
G01X4819802Y-1701800D03*
G54D27*
G01X4426407Y-1854200D03*
G01X4426407Y-1714195D03*
G54D35*
G01X4235615Y-2070555D03*
G01X4095610Y-2070555D03*
G01X4235615Y-1918155D03*
G01X4095610Y-1918155D03*
G54D12*
G01X2960700Y-1276604D03*
G01X2960700Y-1466596D03*
G01X3160700Y-1371600D03*
G04 Pad End*

M02*

