G04 Layer: TopSolderMaskLayer*
G04 EasyEDA Pro v2.2.40.8, 2026-04-30 17:25:34*
G04 Gerber Generator version 0.3*
G04 Scale: 100 percent, Rotated: No, Reflected: No*
G04 Dimensions in millimeters*
G04 Leading zeros omitted, absolute positions, 4 integers and 5 decimals*
G04 Panelize: V-CUT, Column: 1, Row: 1, Board Size: 119.883mm x 102.738mm, Panelized Board Size: 129.883mm x 102.738mm, Panelized Method: Only Board Outline*
G04 Generated by one-click*
%FSLAX45Y45*%
%MOMM*%
%AMRoundRect*1,1,$1,$2,$3*1,1,$1,$4,$5*1,1,$1,0-$2,0-$3*1,1,$1,0-$4,0-$5*20,1,$1,$2,$3,$4,$5,0*20,1,$1,$4,$5,0-$2,0-$3,0*20,1,$1,0-$2,0-$3,0-$4,0-$5,0*20,1,$1,0-$4,0-$5,$2,$3,0*4,1,4,$2,$3,$4,$5,0-$2,0-$3,0-$4,0-$5,$2,$3,0*%
%AMOval*1,1,$1,$2,$3*1,1,$1,$4,$5*20,1,$1,$2,$3,$4,$5,0*%
%ADD10C,2.0*%
%ADD11RoundRect,0.09801X-1.20202X-1.20202X-1.20202X1.20202*%
%ADD12RoundRect,0.0959X-0.75305X0.85305X0.75305X0.85305*%
%ADD13C,1.702*%
%ADD14RoundRect,0.09654X-0.85273X-0.85273X-0.85273X0.85273*%
%ADD15C,1.8017*%
%ADD16C,1.802*%
%ADD17RoundRect,0.09654X-0.85273X0.85273X0.85273X0.85273*%
%ADD18RoundRect,0.09681X-0.90259X-0.90259X-0.90259X0.90259*%
%ADD19C,1.902*%
%ADD20RoundRect,0.09473X-0.65343X1.25343X0.65343X1.25343*%
%ADD21RoundRect,0.09473X-0.90343X0.65343X0.90343X0.65343*%
%ADD22RoundRect,0.09598X-0.76501X-0.76501X-0.76501X0.76501*%
%ADD23C,1.626*%
%ADD24RoundRect,0.09049X-0.63076X0.35575X0.63076X0.35575*%
%ADD25RoundRect,0.08906X-0.54147X0.30647X0.54147X0.30647*%
%ADD26RoundRect,0.09049X-0.35575X-0.63076X-0.35575X0.63076*%
%ADD27C,1.602*%
%ADD28Oval,0.38201X-0.60811X0.60811X0.60811X-0.60811*%
%ADD29Oval,0.38201X-0.60811X-0.60811X0.60811X0.60811*%
%ADD30RoundRect,0.09459X0.07071X-0.92448X-0.92448X0.07071*%
%ADD31RoundRect,0.09049X-0.53076X0.35575X0.53076X0.35575*%
%ADD32RoundRect,0.0959X-0.75305X-0.75305X-0.75305X0.75305*%
%ADD33RoundRect,0.09615X-0.90292X-0.79032X-0.90292X0.79032*%
%ADD34O,1.8X3.69999*%
%ADD35O,3.69999X1.5*%
%ADD36O,1.967X0.732*%
%ADD37O,2.35201X0.732*%
%ADD38RoundRect,0.08573X-0.25715X-0.40715X-0.25715X0.40715*%
%ADD39O,2.13751X0.67599*%
%ADD40O,2.05221X0.6704*%
%ADD41RoundRect,0.09049X-0.35575X-0.53076X-0.35575X0.53076*%
%ADD42RoundRect,0.08669X-0.55667X-0.28168X-0.55667X0.28168*%
%ADD43RoundRect,0.08002X-0.56X-0.16X-0.56X0.16*%
%ADD44O,2.10002X1.20002*%
%ADD45O,1.90002X1.30002*%
%ADD46RoundRect,0.09432X-1.01306X0.19445X-0.19445X1.01306*%
%ADD47RoundRect,0.09164X-0.45518X0.40518X0.45518X0.40518*%
%ADD48RoundRect,0.09551X-0.70324X0.70324X0.70324X0.70324*%
%ADD49C,1.502*%
%ADD50O,0.3016X0.8016*%
%ADD51RoundRect,0.09816X-1.40172X-1.40172X-1.40172X1.40172*%
%ADD52O,0.8016X0.3016*%
%ADD53RoundRect,0.09459X-0.7037X0.6037X0.7037X0.6037*%
%ADD54RoundRect,0.09012X-0.34194X-0.79344X-0.34194X0.79344*%
%ADD55RoundRect,0.09615X-0.79032X0.90292X0.79032X0.90292*%
%ADD56RoundRect,0.09169X-0.50417X1.75417X0.50417X1.75417*%
%ADD57RoundRect,0.09414X-0.75294X1.75294X0.75294X1.75294*%
%ADD58C,1.1*%
%ADD59RoundRect,0.09618X-0.85271X0.85271X0.85271X0.85271*%
%ADD60RoundRect,0.076X-0.1128X0.4128X0.1128X0.4128*%
%ADD61RoundRect,0.076X-0.4128X-0.1128X-0.4128X0.1128*%
%ADD62O,1.794X0.46601*%
%ADD63C,0.222*%
%ADD64RoundRect,0.076X-0.3628X-0.1128X-0.3628X0.1128*%
%ADD65RoundRect,0.076X-0.1128X-0.3628X-0.1128X0.3628*%
%ADD66RoundRect,0.09804X-1.35178X-1.35178X-1.35178X1.35178*%
%ADD67C,0.302*%
%ADD68RoundRect,0.09164X-0.60837X0.03536X-0.03536X0.60837*%
%ADD69RoundRect,0.09164X-0.45518X-0.40518X-0.45518X0.40518*%
%ADD70RoundRect,0.09164X-0.03536X-0.60837X-0.60837X-0.03536*%
%ADD71RoundRect,0.09164X-0.40518X0.45518X0.40518X0.45518*%
%ADD72RoundRect,0.09138X-0.43711X-0.40835X-0.43711X0.40835*%
%ADD73RoundRect,0.09138X-0.40835X0.43711X0.40835X0.43711*%
%ADD74RoundRect,0.09164X-0.40518X-0.40518X-0.40518X0.40518*%
%ADD75RoundRect,0.09131X-0.43715X-0.40514X-0.43715X0.40514*%
%ADD76RoundRect,0.09131X-0.40514X0.43715X0.40514X0.43715*%
%ADD77RoundRect,0.09164X-0.40518X0.40518X0.40518X0.40518*%
%ADD78RoundRect,0.09258X-0.45471X0.75471X0.45471X0.75471*%
%ADD79RoundRect,0.09377X-0.70313X-0.77813X-0.70313X0.77813*%
%ADD80RoundRect,0.09623X-0.80288X0.80288X0.80288X0.80288*%
%ADD81RoundRect,0.09402X-0.55399X-1.40399X-0.55399X1.40399*%
%ADD82RoundRect,0.0911X-0.50545X0.38046X0.50545X0.38046*%
%ADD83RoundRect,0.09387X-0.57013X0.69237X0.57013X0.69237*%
%ADD84RoundRect,0.09623X-0.80288X1.75288X0.80288X1.75288*%
%ADD85RoundRect,0.08787X-0.27307X-0.40707X-0.27307X0.40707*%
%ADD86RoundRect,0.09459X-0.6037X1.1037X0.6037X1.1037*%
%ADD87RoundRect,0.0959X-0.80305X0.75305X0.80305X0.75305*%
%ADD88RoundRect,0.09459X-0.6037X0.7537X0.6037X0.7537*%
%ADD89RoundRect,0.09049X-0.35577X0.80575X0.35577X0.80575*%
%ADD90RoundRect,0.08335X-0.20834X0.63334X0.20834X0.63334*%
%ADD91RoundRect,0.09502X-0.9025X1.0025X0.9025X1.0025*%
%ADD92RoundRect,0.09623X-1.15288X0.80288X1.15288X0.80288*%
%ADD93RoundRect,0.09623X-0.80288X-0.80288X-0.80288X0.80288*%
%ADD94C,2.602*%
%ADD95O,0.67599X2.14*%
%ADD96RoundRect,0.09002X-0.405X0.805X0.405X0.805*%
%ADD97RoundRect,0.09568X-1.05217X1.50217X1.05217X1.50217*%
%ADD98RoundRect,0.08722X-0.25739X-0.39739X-0.25739X0.39739*%
%ADD99RoundRect,0.08571X-0.25714X0.70714X0.25714X0.70714*%
%ADD100RoundRect,0.09286X-0.60357X1.00357X0.60357X1.00357*%
%ADD101C,1.6768*%
%ADD102C,5.10199*%
%ADD103RoundRect,0.09615X-0.79032X0.79032X0.79032X0.79032*%
%ADD104C,1.102*%
G75*


G04 Panelize Start*
G54D10*
G01X-148146Y-9020046D03*
G01X12340146Y-8520046D03*
G01X-148146Y-746254D03*
G01X12340146Y-1246254D03*
G04 Panelize End*

G04 Pad Start*
G54D11*
G01X5147894Y-4055681D03*
G01X5147894Y-3335718D03*
G01X4427931Y-3335744D03*
G01X4427906Y-4055681D03*
G54D12*
G01X8534400Y-685800D03*
G54D13*
G01X8280400Y-685800D03*
G54D12*
G01X4546600Y-685800D03*
G54D13*
G01X4292600Y-685800D03*
G54D14*
G01X7290621Y-5037390D03*
G54D16*
G01X7290621Y-4783390D03*
G01X7290621Y-4529390D03*
G54D14*
G01X7544621Y-5037390D03*
G54D16*
G01X7544621Y-4783390D03*
G01X7544621Y-4529390D03*
G54D17*
G01X10388600Y-444500D03*
G54D16*
G01X10134600Y-444500D03*
G01X9880600Y-444500D03*
G01X9626600Y-444500D03*
G01X9372600Y-444500D03*
G54D17*
G01X10388600Y-190500D03*
G54D16*
G01X10134600Y-190500D03*
G01X9880600Y-190500D03*
G01X9626600Y-190500D03*
G01X9372600Y-190500D03*
G54D17*
G01X10388600Y66553D03*
G54D16*
G01X10134600Y66553D03*
G01X9880600Y66553D03*
G01X9626600Y66553D03*
G01X9372600Y66553D03*
G54D18*
G01X9677400Y-4343400D03*
G54D19*
G01X9931400Y-4343400D03*
G01X9677400Y-4597400D03*
G01X9931400Y-4597400D03*
G01X9677400Y-3581400D03*
G01X9931400Y-3581400D03*
G01X9677400Y-3835400D03*
G01X9931400Y-3835400D03*
G01X9677400Y-4089400D03*
G54D18*
G01X9931400Y-4089400D03*
G54D20*
G01X997876Y-2893512D03*
G01X1197875Y-2893512D03*
G01X1397875Y-2893512D03*
G01X1597874Y-2893512D03*
G01X1797874Y-2893512D03*
G01X1997874Y-2893512D03*
G01X2197873Y-2893512D03*
G01X2397873Y-2893512D03*
G54D21*
G01X2545879Y-2618633D03*
G01X2545726Y-2418633D03*
G01X2545777Y-2218634D03*
G01X2545777Y-2018634D03*
G01X2545777Y-1818635D03*
G01X2545853Y-1618635D03*
G54D20*
G01X2397873Y-1343528D03*
G01X2197848Y-1343528D03*
G01X1997848Y-1343528D03*
G01X1797849Y-1343528D03*
G01X1597849Y-1343528D03*
G01X1397849Y-1343528D03*
G01X1197850Y-1343528D03*
G01X997850Y-1343528D03*
G54D19*
G01X3519303Y-9680278D03*
G01X3265303Y-9680278D03*
G01X3519303Y-9426278D03*
G01X3265303Y-9426278D03*
G01X3519303Y-9172278D03*
G01X3265303Y-9172278D03*
G01X3519303Y-8918278D03*
G01X3265303Y-8918278D03*
G01X3519303Y-8664278D03*
G01X3265303Y-8664278D03*
G01X3519303Y-8410278D03*
G01X3265303Y-8410278D03*
G01X3519303Y-8156278D03*
G01X3265303Y-8156278D03*
G01X3519303Y-7902278D03*
G54D18*
G01X3265303Y-7902278D03*
G54D19*
G01X8677602Y-9680278D03*
G01X8423602Y-9680278D03*
G01X8677602Y-9426278D03*
G01X8423602Y-9426278D03*
G01X8677602Y-9172278D03*
G01X8423602Y-9172278D03*
G01X8677602Y-8918278D03*
G01X8423602Y-8918278D03*
G01X8677602Y-8664278D03*
G01X8423602Y-8664278D03*
G01X8677602Y-8410278D03*
G01X8423602Y-8410278D03*
G01X8677602Y-8156278D03*
G01X8423602Y-8156278D03*
G01X8677602Y-7902278D03*
G54D18*
G01X8423602Y-7902278D03*
G54D22*
G01X2311400Y-5524500D03*
G54D23*
G01X2057400Y-5524500D03*
G01X2311400Y-5270500D03*
G01X2057400Y-5270500D03*
G54D24*
G01X9513900Y-1568704D03*
G01X9513900Y-1758696D03*
G01X9713900Y-1663700D03*
G54D25*
G01X9477693Y-2330704D03*
G01X9477693Y-2520696D03*
G01X9724708Y-2425700D03*
G54D26*
G01X5289296Y-4421200D03*
G01X5099304Y-4421200D03*
G01X5194300Y-4621200D03*
G54D27*
G01X2136008Y-8788405D03*
G01X2436007Y-8788405D03*
G54D28*
G01X5685744Y-5364175D03*
G01X5650380Y-5399540D03*
G01X5615033Y-5434886D03*
G01X5579669Y-5470250D03*
G01X5544323Y-5505597D03*
G01X5508959Y-5540961D03*
G01X5473612Y-5576307D03*
G01X5438248Y-5611671D03*
G01X5402902Y-5647018D03*
G01X5367537Y-5682382D03*
G01X5332191Y-5717728D03*
G01X5296827Y-5753092D03*
G01X5261480Y-5788439D03*
G01X5226116Y-5823803D03*
G01X5190770Y-5859149D03*
G01X5155406Y-5894513D03*
G01X5120060Y-5929860D03*
G01X5084695Y-5965224D03*
G01X5049349Y-6000570D03*
G01X5013985Y-6035935D03*
G01X4978639Y-6071281D03*
G01X4943274Y-6106645D03*
G01X4907928Y-6141991D03*
G01X4872564Y-6177355D03*
G01X4837217Y-6212702D03*
G01X4801853Y-6248066D03*
G01X4766507Y-6283412D03*
G01X4731143Y-6318777D03*
G01X4695796Y-6354123D03*
G01X4660432Y-6389487D03*
G01X4625086Y-6424833D03*
G01X4589722Y-6460198D03*
G01X4554375Y-6495544D03*
G01X4519011Y-6530908D03*
G01X4483665Y-6566255D03*
G01X4448300Y-6601619D03*
G54D29*
G01X4448300Y-6891537D03*
G01X4483665Y-6926902D03*
G01X4519011Y-6962248D03*
G01X4554375Y-6997612D03*
G01X4589722Y-7032959D03*
G01X4625086Y-7068323D03*
G01X4660432Y-7103669D03*
G01X4695796Y-7139033D03*
G01X4731143Y-7174380D03*
G01X4766507Y-7209744D03*
G01X4801853Y-7245090D03*
G01X4837217Y-7280454D03*
G01X4872564Y-7315801D03*
G01X4907928Y-7351165D03*
G01X4943274Y-7386511D03*
G01X4978639Y-7421875D03*
G01X5013985Y-7457222D03*
G01X5049349Y-7492586D03*
G01X5084695Y-7527932D03*
G01X5120060Y-7563297D03*
G01X5155406Y-7598643D03*
G01X5190770Y-7634007D03*
G01X5226116Y-7669353D03*
G01X5261480Y-7704718D03*
G01X5296827Y-7740064D03*
G01X5332191Y-7775428D03*
G01X5367537Y-7810774D03*
G01X5402902Y-7846138D03*
G01X5438248Y-7881485D03*
G01X5473612Y-7916849D03*
G01X5508959Y-7952195D03*
G01X5544323Y-7987560D03*
G01X5579669Y-8022906D03*
G01X5615033Y-8058270D03*
G01X5650380Y-8093617D03*
G01X5685744Y-8128981D03*
G54D28*
G01X5975662Y-8128981D03*
G01X6011027Y-8093617D03*
G01X6046373Y-8058270D03*
G01X6081737Y-8022906D03*
G01X6117084Y-7987560D03*
G01X6152448Y-7952195D03*
G01X6187794Y-7916849D03*
G01X6223158Y-7881485D03*
G01X6258505Y-7846138D03*
G01X6293869Y-7810774D03*
G01X6329215Y-7775428D03*
G01X6364579Y-7740064D03*
G01X6399926Y-7704718D03*
G01X6435290Y-7669353D03*
G01X6470636Y-7634007D03*
G01X6506000Y-7598643D03*
G01X6541347Y-7563297D03*
G01X6576711Y-7527932D03*
G01X6612057Y-7492586D03*
G01X6647422Y-7457222D03*
G01X6682768Y-7421875D03*
G01X6718132Y-7386511D03*
G01X6753478Y-7351165D03*
G01X6788843Y-7315801D03*
G01X6824189Y-7280454D03*
G01X6859553Y-7245090D03*
G01X6894899Y-7209744D03*
G01X6930264Y-7174380D03*
G01X6965610Y-7139033D03*
G01X7000974Y-7103669D03*
G01X7036320Y-7068323D03*
G01X7071685Y-7032959D03*
G01X7107031Y-6997612D03*
G01X7142395Y-6962248D03*
G01X7177742Y-6926902D03*
G01X7213106Y-6891537D03*
G54D29*
G01X7213106Y-6601619D03*
G01X7177742Y-6566255D03*
G01X7142395Y-6530908D03*
G01X7107031Y-6495544D03*
G01X7071685Y-6460198D03*
G01X7036320Y-6424833D03*
G01X7000974Y-6389487D03*
G01X6965610Y-6354123D03*
G01X6930264Y-6318777D03*
G01X6894899Y-6283412D03*
G01X6859553Y-6248066D03*
G01X6824189Y-6212702D03*
G01X6788843Y-6177355D03*
G01X6753478Y-6141991D03*
G01X6718132Y-6106645D03*
G01X6682768Y-6071281D03*
G01X6647422Y-6035935D03*
G01X6612057Y-6000570D03*
G01X6576711Y-5965224D03*
G01X6541347Y-5929860D03*
G01X6506000Y-5894513D03*
G01X6470636Y-5859149D03*
G01X6435290Y-5823803D03*
G01X6399926Y-5788439D03*
G01X6364579Y-5753092D03*
G01X6329215Y-5717728D03*
G01X6293869Y-5682382D03*
G01X6258505Y-5647018D03*
G01X6223158Y-5611671D03*
G01X6187794Y-5576307D03*
G01X6152448Y-5540961D03*
G01X6117084Y-5505597D03*
G01X6081737Y-5470250D03*
G01X6046373Y-5434886D03*
G01X6011027Y-5399540D03*
G01X5975662Y-5364175D03*
G54D30*
G01X4349563Y-5769500D03*
G01X4193989Y-5613926D03*
G01X4073779Y-5734135D03*
G01X4229353Y-5889709D03*
G54D31*
G01X11424107Y-9835693D03*
G01X11004093Y-9835693D03*
G01X11424107Y-9620707D03*
G01X11004093Y-9620707D03*
G54D27*
G01X10998200Y-5765800D03*
G01X10744200Y-5765800D03*
G01X10998200Y-6019800D03*
G01X10744200Y-6019800D03*
G01X10998200Y-6273800D03*
G01X10744200Y-6273800D03*
G01X10998200Y-6527800D03*
G01X10744200Y-6527800D03*
G01X10998200Y-6781800D03*
G01X10744200Y-6781800D03*
G01X10998200Y-7035800D03*
G01X10744200Y-7035800D03*
G01X10998200Y-7289800D03*
G01X10744200Y-7289800D03*
G01X10998200Y-7543800D03*
G01X10744200Y-7543800D03*
G01X10998200Y-7797800D03*
G01X10744200Y-7797800D03*
G01X10998200Y-8051800D03*
G54D32*
G01X10744200Y-8051800D03*
G54D26*
G01X4440719Y-4829087D03*
G01X4630711Y-4829087D03*
G01X4535715Y-4629088D03*
G54D33*
G01X3265303Y-2822278D03*
G54D19*
G01X3519303Y-2822278D03*
G01X3265303Y-3076278D03*
G01X3519303Y-3076278D03*
G01X3265303Y-3330278D03*
G01X3519303Y-3330278D03*
G01X3265303Y-3584278D03*
G01X3519303Y-3584278D03*
G01X3265303Y-3838278D03*
G01X3519303Y-3838278D03*
G01X3265303Y-4092278D03*
G01X3519303Y-4092278D03*
G01X3265303Y-4346278D03*
G01X3519303Y-4346278D03*
G01X3265303Y-4600278D03*
G01X3519303Y-4600278D03*
G01X3265303Y-4854278D03*
G01X3519303Y-4854278D03*
G01X3265303Y-5108278D03*
G01X3519303Y-5108278D03*
G01X3265303Y-5362278D03*
G01X3519303Y-5362278D03*
G01X3265303Y-5616278D03*
G01X3519303Y-5616278D03*
G01X3265303Y-5870278D03*
G01X3519303Y-5870278D03*
G01X3265303Y-6124278D03*
G01X3519303Y-6124278D03*
G01X3265303Y-6378278D03*
G01X3519303Y-6378278D03*
G01X3265303Y-6632278D03*
G01X3519303Y-6632278D03*
G01X3265303Y-6886278D03*
G01X3519303Y-6886278D03*
G01X3265303Y-7140278D03*
G01X3519303Y-7140278D03*
G01X3265303Y-7394278D03*
G01X3519303Y-7394278D03*
G01X3265303Y-7648278D03*
G01X3519303Y-7648278D03*
G54D33*
G01X8421503Y-2822278D03*
G54D19*
G01X8675503Y-2822278D03*
G01X8421503Y-3076278D03*
G01X8675503Y-3076278D03*
G01X8421503Y-3330278D03*
G01X8675503Y-3330278D03*
G01X8421503Y-3584278D03*
G01X8675503Y-3584278D03*
G01X8421503Y-3838278D03*
G01X8675503Y-3838278D03*
G01X8421503Y-4092278D03*
G01X8675503Y-4092278D03*
G01X8421503Y-4346278D03*
G01X8675503Y-4346278D03*
G01X8421503Y-4600278D03*
G01X8675503Y-4600278D03*
G01X8421503Y-4854278D03*
G01X8675503Y-4854278D03*
G01X8421503Y-5108278D03*
G01X8675503Y-5108278D03*
G01X8421503Y-5362278D03*
G01X8675503Y-5362278D03*
G01X8421503Y-5616278D03*
G01X8675503Y-5616278D03*
G01X8421503Y-5870278D03*
G01X8675503Y-5870278D03*
G01X8421503Y-6124278D03*
G01X8675503Y-6124278D03*
G01X8421503Y-6378278D03*
G01X8675503Y-6378278D03*
G01X8421503Y-6632278D03*
G01X8675503Y-6632278D03*
G01X8421503Y-6886278D03*
G01X8675503Y-6886278D03*
G01X8421503Y-7140278D03*
G01X8675503Y-7140278D03*
G01X8421503Y-7394278D03*
G01X8675503Y-7394278D03*
G01X8421503Y-7648278D03*
G01X8675503Y-7648278D03*
G54D34*
G01X11313198Y-1436522D03*
G54D35*
G01X10983201Y-976478D03*
G54D34*
G01X10683202Y-1436472D03*
G54D36*
G01X487473Y-5220000D03*
G01X487473Y-5347000D03*
G01X487473Y-5474000D03*
G01X487473Y-5601000D03*
G01X1023972Y-5220000D03*
G01X1023972Y-5347000D03*
G01X1023972Y-5474000D03*
G01X1023972Y-5601000D03*
G54D37*
G01X383591Y-4381500D03*
G01X383591Y-4508500D03*
G01X383591Y-4635500D03*
G01X383591Y-4762500D03*
G01X1089609Y-4381500D03*
G01X1089609Y-4508500D03*
G01X1089609Y-4635500D03*
G01X1089609Y-4762500D03*
G54D31*
G01X4134796Y-9496585D03*
G01X4554810Y-9496585D03*
G01X4134796Y-9711571D03*
G01X4554810Y-9711571D03*
G01X7322496Y-9509285D03*
G01X7742510Y-9509285D03*
G01X7322496Y-9724271D03*
G01X7742510Y-9724271D03*
G01X5709596Y-8315485D03*
G01X6129610Y-8315485D03*
G01X5709596Y-8530471D03*
G01X6129610Y-8530471D03*
G01X5709596Y-9394985D03*
G01X6129610Y-9394985D03*
G01X5709596Y-9609971D03*
G01X6129610Y-9609971D03*
G01X4744396Y-8861585D03*
G01X5164410Y-8861585D03*
G01X4744396Y-9076571D03*
G01X5164410Y-9076571D03*
G01X6674796Y-8861585D03*
G01X7094810Y-8861585D03*
G01X6674796Y-9076571D03*
G01X7094810Y-9076571D03*
G01X5709596Y-8861585D03*
G01X6129610Y-8861585D03*
G01X5709596Y-9076571D03*
G01X6129610Y-9076571D03*
G54D14*
G01X2311400Y-5016500D03*
G54D16*
G01X2057400Y-5016500D03*
G01X2311400Y-4762500D03*
G01X2057400Y-4762500D03*
G01X2311400Y-4508500D03*
G01X2057400Y-4508500D03*
G01X2311400Y-4254500D03*
G01X2057400Y-4254500D03*
G54D38*
G01X725503Y-3821097D03*
G01X825503Y-3821097D03*
G01X925502Y-3821097D03*
G01X925502Y-3621098D03*
G01X825503Y-3621098D03*
G01X725503Y-3621098D03*
G54D39*
G01X6348551Y-1412929D03*
G01X6348551Y-1539929D03*
G01X6348551Y-1666929D03*
G01X6348551Y-1793929D03*
G01X6902119Y-1412929D03*
G01X6902119Y-1539929D03*
G01X6902119Y-1666929D03*
G01X6902119Y-1793929D03*
G54D40*
G01X5962074Y-1786162D03*
G01X5962074Y-1659162D03*
G01X5962074Y-1532162D03*
G01X5962074Y-1405162D03*
G01X5421054Y-1786162D03*
G01X5421054Y-1659162D03*
G01X5421054Y-1532162D03*
G01X5421054Y-1405162D03*
G54D41*
G01X235407Y-933907D03*
G01X235407Y-513893D03*
G01X450393Y-933907D03*
G01X450393Y-513893D03*
G54D42*
G01X11357597Y-4803102D03*
G01X11357597Y-4723092D03*
G54D43*
G01X11357597Y-4658093D03*
G01X11357597Y-4608081D03*
G01X11357597Y-4558093D03*
G01X11357597Y-4508106D03*
G01X11357597Y-4458094D03*
G01X11357597Y-4408106D03*
G01X11357597Y-4358094D03*
G01X11357597Y-4308081D03*
G54D42*
G01X11357597Y-4243083D03*
G01X11357597Y-4163098D03*
G54D44*
G01X11412588Y-4915598D03*
G01X11412588Y-4050601D03*
G54D45*
G01X11832603Y-4915598D03*
G01X11832603Y-4050601D03*
G54D42*
G01X11357597Y-3609302D03*
G01X11357597Y-3529292D03*
G54D43*
G01X11357597Y-3464293D03*
G01X11357597Y-3414281D03*
G01X11357597Y-3364293D03*
G01X11357597Y-3314306D03*
G01X11357597Y-3264294D03*
G01X11357597Y-3214306D03*
G01X11357597Y-3164294D03*
G01X11357597Y-3114281D03*
G54D42*
G01X11357597Y-3049283D03*
G01X11357597Y-2969298D03*
G54D44*
G01X11412588Y-3721798D03*
G01X11412588Y-2856801D03*
G54D45*
G01X11832603Y-3721798D03*
G01X11832603Y-2856801D03*
G54D46*
G01X4656100Y-5313400D03*
G01X4843500Y-5126000D03*
G54D47*
G01X11144098Y-2459609D03*
G01X11144098Y-2569591D03*
G01X11284102Y-2569591D03*
G01X11284102Y-2459609D03*
G54D17*
G01X11150600Y-8724900D03*
G54D16*
G01X11404600Y-8724900D03*
G01X11658600Y-8724900D03*
G01X11912600Y-8724900D03*
G54D48*
G01X995666Y-2880520D03*
G54D49*
G01X1195665Y-2880520D03*
G01X1395665Y-2880520D03*
G01X1595665Y-2880520D03*
G01X1795664Y-2880520D03*
G01X1995664Y-2880520D03*
G01X2195663Y-2880520D03*
G01X2395663Y-2880520D03*
G54D48*
G01X995666Y-1343820D03*
G54D49*
G01X1195665Y-1343820D03*
G01X1395665Y-1343820D03*
G01X1595665Y-1343820D03*
G01X1795664Y-1343820D03*
G01X1995664Y-1343820D03*
G01X2195663Y-1343820D03*
G01X2395663Y-1343820D03*
G54D17*
G01X1169725Y-9779752D03*
G54D16*
G01X1169725Y-9525752D03*
G01X1423725Y-9779752D03*
G01X1423725Y-9525752D03*
G01X1677725Y-9779752D03*
G01X1677725Y-9525752D03*
G01X1931725Y-9779752D03*
G01X1931725Y-9525752D03*
G01X2185725Y-9779752D03*
G01X2185725Y-9525752D03*
G01X2439725Y-9779752D03*
G01X2439725Y-9525752D03*
G01X2693725Y-9779752D03*
G01X2693725Y-9525752D03*
G54D50*
G01X2276735Y-6220336D03*
G01X2236730Y-6220336D03*
G01X2196725Y-6220336D03*
G01X2156720Y-6220336D03*
G01X2116740Y-6220336D03*
G01X2076735Y-6220336D03*
G01X2036730Y-6220336D03*
G01X1996725Y-6220336D03*
G01X1996725Y-6630343D03*
G01X2036730Y-6630343D03*
G01X2076735Y-6630343D03*
G01X2116740Y-6630343D03*
G01X2156720Y-6630343D03*
G01X2196725Y-6630343D03*
G01X2236730Y-6630343D03*
G01X2276735Y-6630343D03*
G54D51*
G01X2136730Y-6425340D03*
G54D52*
G01X2341733Y-6565345D03*
G01X2341733Y-6525365D03*
G01X2341733Y-6485360D03*
G01X2341733Y-6445355D03*
G01X2341733Y-6405350D03*
G01X2341733Y-6365345D03*
G01X2341733Y-6325365D03*
G01X2341733Y-6285360D03*
G01X1931726Y-6285360D03*
G01X1931726Y-6325365D03*
G01X1931726Y-6365345D03*
G01X1931726Y-6405350D03*
G01X1931726Y-6445355D03*
G01X1931726Y-6485360D03*
G01X1931726Y-6525365D03*
G01X1931726Y-6565345D03*
G54D53*
G01X2015007Y-5769699D03*
G01X1794993Y-5769699D03*
G01X1794993Y-5939701D03*
G01X2015007Y-5939701D03*
G54D54*
G01X5502903Y-3973901D03*
G01X5802903Y-3973901D03*
G36*
G01X5752780Y-3605385D02*
G01X5752886Y-3609838D01*
G01X5752888Y-3609957D01*
G01X5752888Y-3795377D01*
G01X5752886Y-3795497D01*
G01X5752780Y-3799950D01*
G01X5752769Y-3800181D01*
G01X5752456Y-3804623D01*
G01X5752434Y-3804857D01*
G01X5751914Y-3809282D01*
G01X5751881Y-3809513D01*
G01X5751154Y-3813907D01*
G01X5751110Y-3814141D01*
G01X5750175Y-3818497D01*
G01X5750121Y-3818723D01*
G01X5748986Y-3823028D01*
G01X5748921Y-3823253D01*
G01X5747585Y-3827502D01*
G01X5747509Y-3827725D01*
G01X5745975Y-3831906D01*
G01X5745889Y-3832125D01*
G01X5744159Y-3836230D01*
G01X5744064Y-3836441D01*
G01X5742147Y-3840462D01*
G01X5742039Y-3840673D01*
G01X5739934Y-3844597D01*
G01X5739818Y-3844802D01*
G01X5737529Y-3848624D01*
G01X5737405Y-3848822D01*
G01X5734941Y-3852533D01*
G01X5734807Y-3852724D01*
G01X5732173Y-3856316D01*
G01X5732030Y-3856502D01*
G01X5729230Y-3859964D01*
G01X5729078Y-3860144D01*
G01X5726117Y-3863474D01*
G01X5725957Y-3863645D01*
G01X5722846Y-3866830D01*
G01X5722678Y-3866993D01*
G01X5719420Y-3870031D01*
G01X5719244Y-3870187D01*
G01X5715848Y-3873067D01*
G01X5715665Y-3873215D01*
G01X5712137Y-3875933D01*
G01X5711948Y-3876072D01*
G01X5708296Y-3878622D01*
G01X5708100Y-3878752D01*
G01X5704333Y-3881127D01*
G01X5704132Y-3881247D01*
G01X5700256Y-3883444D01*
G01X5700052Y-3883554D01*
G01X5696079Y-3885568D01*
G01X5694938Y-3885982D01*
G01X5690889Y-3886913D01*
G01X5690889Y-4052664D01*
G02X5685888Y-4057665I-5001J0D01*
G01X5619888Y-4057665D01*
G02X5614887Y-4052664I0J5001D01*
G01X5614887Y-3886913D01*
G01X5610833Y-3885982D01*
G01X5609692Y-3885568D01*
G01X5605719Y-3883554D01*
G01X5605514Y-3883444D01*
G01X5601638Y-3881247D01*
G01X5601437Y-3881127D01*
G01X5597670Y-3878752D01*
G01X5597475Y-3878622D01*
G01X5593822Y-3876072D01*
G01X5593633Y-3875933D01*
G01X5590105Y-3873215D01*
G01X5589922Y-3873067D01*
G01X5586526Y-3870187D01*
G01X5586351Y-3870031D01*
G01X5583092Y-3866993D01*
G01X5582925Y-3866830D01*
G01X5579813Y-3863645D01*
G01X5579654Y-3863474D01*
G01X5576692Y-3860144D01*
G01X5576540Y-3859964D01*
G01X5573741Y-3856502D01*
G01X5573597Y-3856316D01*
G01X5570963Y-3852724D01*
G01X5570830Y-3852533D01*
G01X5568366Y-3848822D01*
G01X5568241Y-3848624D01*
G01X5565953Y-3844802D01*
G01X5565837Y-3844597D01*
G01X5563731Y-3840673D01*
G01X5563624Y-3840462D01*
G01X5561706Y-3836441D01*
G01X5561612Y-3836230D01*
G01X5559882Y-3832125D01*
G01X5559796Y-3831906D01*
G01X5558261Y-3827725D01*
G01X5558186Y-3827502D01*
G01X5556850Y-3823253D01*
G01X5556785Y-3823028D01*
G01X5555649Y-3818723D01*
G01X5555595Y-3818497D01*
G01X5554661Y-3814141D01*
G01X5554616Y-3813907D01*
G01X5553890Y-3809513D01*
G01X5553857Y-3809282D01*
G01X5553336Y-3804857D01*
G01X5553314Y-3804623D01*
G01X5553002Y-3800181D01*
G01X5552991Y-3799950D01*
G01X5552884Y-3795497D01*
G01X5552883Y-3795377D01*
G01X5552883Y-3609957D01*
G01X5552884Y-3609838D01*
G01X5552991Y-3605385D01*
G01X5553002Y-3605154D01*
G01X5553314Y-3600712D01*
G01X5553336Y-3600478D01*
G01X5553857Y-3596053D01*
G01X5553890Y-3595822D01*
G01X5554616Y-3591428D01*
G01X5554661Y-3591194D01*
G01X5555595Y-3586838D01*
G01X5555649Y-3586612D01*
G01X5556785Y-3582307D01*
G01X5556850Y-3582082D01*
G01X5558186Y-3577833D01*
G01X5558261Y-3577610D01*
G01X5559796Y-3573429D01*
G01X5559882Y-3573210D01*
G01X5561612Y-3569105D01*
G01X5561706Y-3568894D01*
G01X5563624Y-3564873D01*
G01X5563731Y-3564662D01*
G01X5565837Y-3560737D01*
G01X5565953Y-3560533D01*
G01X5568241Y-3556710D01*
G01X5568366Y-3556513D01*
G01X5570830Y-3552802D01*
G01X5570963Y-3552611D01*
G01X5573597Y-3549019D01*
G01X5573741Y-3548832D01*
G01X5576540Y-3545370D01*
G01X5576692Y-3545191D01*
G01X5579654Y-3541861D01*
G01X5579813Y-3541690D01*
G01X5582925Y-3538505D01*
G01X5583092Y-3538341D01*
G01X5586351Y-3535304D01*
G01X5586526Y-3535148D01*
G01X5589922Y-3532267D01*
G01X5590105Y-3532120D01*
G01X5593633Y-3529402D01*
G01X5593822Y-3529263D01*
G01X5597475Y-3526713D01*
G01X5597670Y-3526583D01*
G01X5601437Y-3524208D01*
G01X5601638Y-3524088D01*
G01X5605514Y-3521891D01*
G01X5605719Y-3521781D01*
G01X5609692Y-3519767D01*
G01X5609906Y-3519665D01*
G01X5613970Y-3517841D01*
G01X5614183Y-3517751D01*
G01X5618326Y-3516118D01*
G01X5618549Y-3516036D01*
G01X5622765Y-3514601D01*
G01X5622988Y-3514531D01*
G01X5627268Y-3513294D01*
G01X5627496Y-3513234D01*
G01X5631829Y-3512200D01*
G01X5632056Y-3512151D01*
G01X5636430Y-3511321D01*
G01X5636662Y-3511282D01*
G01X5641074Y-3510657D01*
G01X5641308Y-3510630D01*
G01X5645742Y-3510213D01*
G01X5645976Y-3510197D01*
G01X5650424Y-3509989D01*
G01X5650658Y-3509983D01*
G01X5655113Y-3509983D01*
G01X5655347Y-3509989D01*
G01X5659794Y-3510197D01*
G01X5660028Y-3510213D01*
G01X5664463Y-3510630D01*
G01X5664697Y-3510657D01*
G01X5669109Y-3511282D01*
G01X5669340Y-3511321D01*
G01X5673714Y-3512151D01*
G01X5673942Y-3512200D01*
G01X5678275Y-3513234D01*
G01X5678503Y-3513294D01*
G01X5682783Y-3514531D01*
G01X5683006Y-3514601D01*
G01X5687222Y-3516036D01*
G01X5687445Y-3516118D01*
G01X5691588Y-3517751D01*
G01X5691801Y-3517841D01*
G01X5695865Y-3519665D01*
G01X5696079Y-3519767D01*
G01X5700052Y-3521781D01*
G01X5700256Y-3521891D01*
G01X5704132Y-3524088D01*
G01X5704333Y-3524208D01*
G01X5708100Y-3526583D01*
G01X5708296Y-3526713D01*
G01X5711948Y-3529263D01*
G01X5712137Y-3529402D01*
G01X5715665Y-3532120D01*
G01X5715848Y-3532267D01*
G01X5719244Y-3535148D01*
G01X5719420Y-3535304D01*
G01X5722678Y-3538341D01*
G01X5722846Y-3538505D01*
G01X5725957Y-3541690D01*
G01X5726117Y-3541861D01*
G01X5729078Y-3545191D01*
G01X5729230Y-3545370D01*
G01X5732030Y-3548832D01*
G01X5732173Y-3549019D01*
G01X5734807Y-3552611D01*
G01X5734941Y-3552802D01*
G01X5737405Y-3556513D01*
G01X5737529Y-3556710D01*
G01X5739818Y-3560533D01*
G01X5739934Y-3560737D01*
G01X5742039Y-3564662D01*
G01X5742147Y-3564873D01*
G01X5744064Y-3568894D01*
G01X5744159Y-3569105D01*
G01X5745889Y-3573210D01*
G01X5745975Y-3573429D01*
G01X5747509Y-3577610D01*
G01X5747585Y-3577833D01*
G01X5748921Y-3582082D01*
G01X5748986Y-3582307D01*
G01X5750121Y-3586612D01*
G01X5750175Y-3586838D01*
G01X5751110Y-3591194D01*
G01X5751154Y-3591428D01*
G01X5751881Y-3595822D01*
G01X5751914Y-3596053D01*
G01X5752434Y-3600478D01*
G01X5752456Y-3600712D01*
G01X5752769Y-3605154D01*
G01X5752780Y-3605385D01*
G37*
G54D19*
G01X1143000Y50800D03*
G01X1397000Y50800D03*
G54D55*
G01X1651000Y50800D03*
G54D19*
G01X1143000Y-203200D03*
G01X1397000Y-203200D03*
G54D55*
G01X1651000Y-203200D03*
G54D56*
G01X2322500Y-551713D03*
G01X2122500Y-551713D03*
G54D57*
G01X2557501Y18288D03*
G01X1887499Y18288D03*
G54D58*
G01X4241808Y-2819397D03*
G36*
G01X4351324Y-2833648D02*
G01X4351826Y-2828888D01*
G02X4356799Y-2824413I4972J-525D01*
G01X4406801Y-2824413D01*
G02X4411786Y-2829795I0J-5000D01*
G01X4411339Y-2835624D01*
G01X4411322Y-2835802D01*
G01X4410667Y-2841614D01*
G01X4410644Y-2841788D01*
G01X4409786Y-2847571D01*
G01X4409756Y-2847747D01*
G01X4408692Y-2853495D01*
G01X4408657Y-2853669D01*
G01X4407390Y-2859379D01*
G01X4407348Y-2859551D01*
G01X4405880Y-2865210D01*
G01X4405833Y-2865379D01*
G01X4404167Y-2870983D01*
G01X4404112Y-2871153D01*
G01X4402245Y-2876696D01*
G01X4402186Y-2876861D01*
G01X4400126Y-2882333D01*
G01X4400061Y-2882498D01*
G01X4397808Y-2887893D01*
G01X4397737Y-2888055D01*
G01X4395293Y-2893368D01*
G01X4395217Y-2893528D01*
G01X4392588Y-2898750D01*
G01X4392505Y-2898908D01*
G01X4389690Y-2904034D01*
G01X4389603Y-2904186D01*
G01X4386611Y-2909210D01*
G01X4386518Y-2909361D01*
G01X4383350Y-2914273D01*
G01X4383251Y-2914422D01*
G01X4379908Y-2919220D01*
G01X4379806Y-2919361D01*
G01X4376298Y-2924040D01*
G01X4376188Y-2924182D01*
G01X4372515Y-2928731D01*
G01X4372401Y-2928867D01*
G01X4368568Y-2933284D01*
G01X4368450Y-2933415D01*
G01X4364465Y-2937693D01*
G01X4364343Y-2937819D01*
G01X4360211Y-2941954D01*
G01X4360081Y-2942079D01*
G01X4355801Y-2946064D01*
G01X4355670Y-2946182D01*
G01X4351253Y-2950012D01*
G01X4351118Y-2950125D01*
G01X4346569Y-2953798D01*
G01X4346430Y-2953906D01*
G01X4341754Y-2957417D01*
G01X4341607Y-2957522D01*
G01X4336807Y-2960862D01*
G01X4336662Y-2960959D01*
G01X4331750Y-2964129D01*
G01X4331597Y-2964224D01*
G01X4326573Y-2967216D01*
G01X4326419Y-2967304D01*
G01X4321294Y-2970116D01*
G01X4321139Y-2970197D01*
G01X4315917Y-2972829D01*
G01X4315755Y-2972907D01*
G01X4310444Y-2975347D01*
G01X4310282Y-2975418D01*
G01X4304884Y-2977671D01*
G01X4304722Y-2977736D01*
G01X4299251Y-2979798D01*
G01X4299081Y-2979859D01*
G01X4293539Y-2981723D01*
G01X4293372Y-2981776D01*
G01X4287769Y-2983445D01*
G01X4287597Y-2983493D01*
G01X4281938Y-2984961D01*
G01X4281764Y-2985003D01*
G01X4276054Y-2986268D01*
G01X4275883Y-2986302D01*
G01X4270135Y-2987367D01*
G01X4269959Y-2987396D01*
G01X4264175Y-2988255D01*
G01X4264001Y-2988277D01*
G01X4258190Y-2988933D01*
G01X4258012Y-2988949D01*
G01X4252182Y-2989396D01*
G02X4246800Y-2984411I-382J4985D01*
G01X4246800Y-2934404D01*
G02X4251278Y-2929431I5000J0D01*
G01X4256035Y-2928932D01*
G01X4260662Y-2928244D01*
G01X4265257Y-2927360D01*
G01X4269809Y-2926283D01*
G01X4274313Y-2925013D01*
G01X4278755Y-2923553D01*
G01X4283134Y-2921903D01*
G01X4287440Y-2920071D01*
G01X4291662Y-2918057D01*
G01X4295794Y-2915866D01*
G01X4299830Y-2913499D01*
G01X4303761Y-2910965D01*
G01X4307583Y-2908263D01*
G01X4311285Y-2905404D01*
G01X4314861Y-2902389D01*
G01X4318307Y-2899226D01*
G01X4321615Y-2895917D01*
G01X4324779Y-2892472D01*
G01X4327794Y-2888895D01*
G01X4330656Y-2885192D01*
G01X4333355Y-2881373D01*
G01X4335892Y-2877442D01*
G01X4338258Y-2873405D01*
G01X4340449Y-2869272D01*
G01X4342464Y-2865049D01*
G01X4344298Y-2860746D01*
G01X4345945Y-2856370D01*
G01X4347405Y-2851923D01*
G01X4348676Y-2847420D01*
G01X4349755Y-2842869D01*
G01X4350639Y-2838276D01*
G01X4351324Y-2833648D01*
G37*
G36*
G01X4256055Y-2709871D02*
G01X4251298Y-2709374D01*
G02X4246818Y-2704401I520J4973D01*
G01X4246818Y-2654389D01*
G02X4252209Y-2649404I5000J0D01*
G01X4258036Y-2649861D01*
G01X4258196Y-2649877D01*
G01X4264008Y-2650522D01*
G01X4264199Y-2650547D01*
G01X4269982Y-2651415D01*
G01X4270148Y-2651443D01*
G01X4275896Y-2652505D01*
G01X4276071Y-2652540D01*
G01X4281781Y-2653808D01*
G01X4281953Y-2653849D01*
G01X4287612Y-2655317D01*
G01X4287777Y-2655363D01*
G01X4293383Y-2657024D01*
G01X4293557Y-2657080D01*
G01X4299097Y-2658944D01*
G01X4299272Y-2659006D01*
G01X4304743Y-2661076D01*
G01X4304898Y-2661138D01*
G01X4310293Y-2663389D01*
G01X4310454Y-2663459D01*
G01X4315767Y-2665897D01*
G01X4315928Y-2665975D01*
G01X4321151Y-2668601D01*
G01X4321315Y-2668687D01*
G01X4326443Y-2671509D01*
G01X4326592Y-2671595D01*
G01X4331613Y-2674587D01*
G01X4331758Y-2674676D01*
G01X4336673Y-2677836D01*
G01X4336832Y-2677943D01*
G01X4341628Y-2681293D01*
G01X4341762Y-2681391D01*
G01X4346441Y-2684896D01*
G01X4346587Y-2685009D01*
G01X4351136Y-2688687D01*
G01X4351264Y-2688795D01*
G01X4355681Y-2692617D01*
G01X4355822Y-2692744D01*
G01X4360100Y-2696739D01*
G01X4360216Y-2696851D01*
G01X4364353Y-2700974D01*
G01X4364486Y-2701111D01*
G01X4368468Y-2705393D01*
G01X4368584Y-2705521D01*
G01X4372414Y-2709936D01*
G01X4372530Y-2710075D01*
G01X4376203Y-2714632D01*
G01X4376307Y-2714766D01*
G01X4379818Y-2719437D01*
G01X4379927Y-2719588D01*
G01X4383267Y-2724396D01*
G01X4383359Y-2724534D01*
G01X4386529Y-2729436D01*
G01X4386629Y-2729596D01*
G01X4389621Y-2734631D01*
G01X4389704Y-2734777D01*
G01X4392516Y-2739892D01*
G01X4392601Y-2740054D01*
G01X4395233Y-2745287D01*
G01X4395307Y-2745440D01*
G01X4397750Y-2750741D01*
G01X4397825Y-2750912D01*
G01X4400076Y-2756317D01*
G01X4400138Y-2756476D01*
G01X4402201Y-2761947D01*
G01X4402262Y-2762117D01*
G01X4404126Y-2767662D01*
G01X4404178Y-2767826D01*
G01X4405847Y-2773422D01*
G01X4405895Y-2773595D01*
G01X4407363Y-2779254D01*
G01X4407405Y-2779426D01*
G01X4408672Y-2785133D01*
G01X4408708Y-2785310D01*
G01X4409770Y-2791063D01*
G01X4409799Y-2791237D01*
G01X4410657Y-2797023D01*
G01X4410680Y-2797196D01*
G01X4411335Y-2803002D01*
G01X4411352Y-2803179D01*
G01X4411801Y-2809016D01*
G02X4406816Y-2814400I-4985J-384D01*
G01X4356806Y-2814400D01*
G02X4351833Y-2809921I0J5000D01*
G01X4351334Y-2805157D01*
G01X4350647Y-2800538D01*
G01X4349762Y-2795936D01*
G01X4348686Y-2791382D01*
G01X4347416Y-2786888D01*
G01X4345955Y-2782442D01*
G01X4344305Y-2778064D01*
G01X4342475Y-2773753D01*
G01X4340459Y-2769527D01*
G01X4338271Y-2765396D01*
G01X4335904Y-2761367D01*
G01X4333371Y-2757431D01*
G01X4330668Y-2753621D01*
G01X4327806Y-2749914D01*
G01X4324789Y-2746333D01*
G01X4321627Y-2742882D01*
G01X4318321Y-2739579D01*
G01X4314876Y-2736410D01*
G01X4311298Y-2733396D01*
G01X4307597Y-2730536D01*
G01X4303776Y-2727842D01*
G01X4299846Y-2725299D01*
G01X4295808Y-2722942D01*
G01X4291675Y-2720741D01*
G01X4287451Y-2718736D01*
G01X4283147Y-2716890D01*
G01X4278774Y-2715246D01*
G01X4274325Y-2713787D01*
G01X4269821Y-2712513D01*
G01X4265275Y-2711435D01*
G01X4260684Y-2710554D01*
G01X4256055Y-2709871D01*
G37*
G36*
G01X4132267Y-2805141D02*
G01X4131769Y-2809906D01*
G02X4126796Y-2814387I-4973J519D01*
G01X4076788Y-2814382D01*
G02X4071803Y-2809012I1J5000D01*
G01X4072237Y-2803167D01*
G01X4072256Y-2802965D01*
G01X4072924Y-2797169D01*
G01X4072944Y-2797020D01*
G01X4073789Y-2791221D01*
G01X4073821Y-2791029D01*
G01X4074891Y-2785278D01*
G01X4074926Y-2785105D01*
G01X4076196Y-2779403D01*
G01X4076237Y-2779231D01*
G01X4077708Y-2773577D01*
G01X4077753Y-2773415D01*
G01X4079414Y-2767809D01*
G01X4079470Y-2767633D01*
G01X4081337Y-2762093D01*
G01X4081395Y-2761930D01*
G01X4083455Y-2756454D01*
G01X4083525Y-2756279D01*
G01X4085785Y-2750892D01*
G01X4085846Y-2750753D01*
G01X4088274Y-2745424D01*
G01X4088365Y-2745236D01*
G01X4091007Y-2740029D01*
G01X4091084Y-2739883D01*
G01X4093900Y-2734757D01*
G01X4093980Y-2734617D01*
G01X4096959Y-2729586D01*
G01X4097067Y-2729412D01*
G01X4100245Y-2724515D01*
G01X4100331Y-2724387D01*
G01X4103671Y-2719571D01*
G01X4103779Y-2719421D01*
G01X4107284Y-2714745D01*
G01X4107398Y-2714598D01*
G01X4111076Y-2710054D01*
G01X4111184Y-2709926D01*
G01X4115012Y-2705509D01*
G01X4115132Y-2705375D01*
G01X4119117Y-2701097D01*
G01X4119241Y-2700969D01*
G01X4123376Y-2696836D01*
G01X4123501Y-2696716D01*
G01X4127781Y-2692726D01*
G01X4127916Y-2692604D01*
G01X4132333Y-2688776D01*
G01X4132462Y-2688669D01*
G01X4137008Y-2684988D01*
G01X4137152Y-2684877D01*
G01X4141825Y-2681366D01*
G01X4141983Y-2681253D01*
G01X4146799Y-2677920D01*
G01X4146922Y-2677837D01*
G01X4151819Y-2674660D01*
G01X4151992Y-2674553D01*
G01X4157029Y-2671568D01*
G01X4157173Y-2671486D01*
G01X4162293Y-2668677D01*
G01X4162434Y-2668602D01*
G01X4167641Y-2665958D01*
G01X4167835Y-2665865D01*
G01X4173161Y-2663442D01*
G01X4173308Y-2663378D01*
G01X4178718Y-2661123D01*
G01X4178868Y-2661063D01*
G01X4184324Y-2658993D01*
G01X4184503Y-2658929D01*
G01X4190043Y-2657064D01*
G01X4190212Y-2657011D01*
G01X4195820Y-2655342D01*
G01X4195989Y-2655295D01*
G01X4201643Y-2653827D01*
G01X4201807Y-2653787D01*
G01X4207509Y-2652510D01*
G01X4207694Y-2652472D01*
G01X4213445Y-2651410D01*
G01X4213633Y-2651379D01*
G01X4219429Y-2650536D01*
G01X4219575Y-2650517D01*
G01X4225374Y-2649846D01*
G01X4225581Y-2649827D01*
G01X4231421Y-2649397D01*
G02X4236787Y-2654384I367J-4987D01*
G01X4236790Y-2704394D01*
G02X4232307Y-2709367I-5000J-0D01*
G01X4227547Y-2709862D01*
G01X4222917Y-2710541D01*
G01X4218329Y-2711428D01*
G01X4213766Y-2712503D01*
G01X4209267Y-2713765D01*
G01X4204842Y-2715243D01*
G01X4200456Y-2716882D01*
G01X4196154Y-2718726D01*
G01X4191909Y-2720729D01*
G01X4187791Y-2722920D01*
G01X4183763Y-2725282D01*
G01X4179833Y-2727829D01*
G01X4175999Y-2730537D01*
G01X4172287Y-2733374D01*
G01X4168739Y-2736403D01*
G01X4165274Y-2739556D01*
G01X4161979Y-2742883D01*
G01X4158791Y-2746320D01*
G01X4155785Y-2749877D01*
G01X4152944Y-2753595D01*
G01X4150229Y-2757433D01*
G01X4147678Y-2761342D01*
G01X4145331Y-2765377D01*
G01X4143131Y-2769506D01*
G01X4141134Y-2773745D01*
G01X4139285Y-2778058D01*
G01X4137633Y-2782419D01*
G01X4136176Y-2786849D01*
G01X4134911Y-2791360D01*
G01X4133835Y-2795923D01*
G01X4132946Y-2800511D01*
G01X4132267Y-2805141D01*
G37*
G36*
G01X4227552Y-2928932D02*
G01X4232312Y-2929434D01*
G02X4236787Y-2934406I-525J-4972D01*
G01X4236787Y-2984409D01*
G02X4231405Y-2989394I-5000J0D01*
G01X4225576Y-2988947D01*
G01X4225398Y-2988930D01*
G01X4219584Y-2988275D01*
G01X4219410Y-2988252D01*
G01X4213626Y-2987393D01*
G01X4213450Y-2987364D01*
G01X4207704Y-2986300D01*
G01X4207531Y-2986265D01*
G01X4201821Y-2984997D01*
G01X4201649Y-2984956D01*
G01X4195990Y-2983488D01*
G01X4195821Y-2983440D01*
G01X4190217Y-2981774D01*
G01X4190047Y-2981720D01*
G01X4184502Y-2979853D01*
G01X4184336Y-2979794D01*
G01X4178865Y-2977734D01*
G01X4178700Y-2977669D01*
G01X4173305Y-2975416D01*
G01X4173142Y-2975344D01*
G01X4167831Y-2972901D01*
G01X4167673Y-2972825D01*
G01X4162448Y-2970196D01*
G01X4162288Y-2970112D01*
G01X4157165Y-2967297D01*
G01X4157014Y-2967211D01*
G01X4151990Y-2964219D01*
G01X4151839Y-2964125D01*
G01X4146927Y-2960958D01*
G01X4146779Y-2960859D01*
G01X4141978Y-2957516D01*
G01X4141836Y-2957413D01*
G01X4137158Y-2953906D01*
G01X4137016Y-2953796D01*
G01X4132467Y-2950123D01*
G01X4132330Y-2950008D01*
G01X4127915Y-2946175D01*
G01X4127785Y-2946058D01*
G01X4123507Y-2942072D01*
G01X4123380Y-2941950D01*
G01X4119245Y-2937815D01*
G01X4119122Y-2937688D01*
G01X4115137Y-2933410D01*
G01X4115018Y-2933278D01*
G01X4111185Y-2928858D01*
G01X4111072Y-2928723D01*
G01X4107402Y-2924176D01*
G01X4107295Y-2924039D01*
G01X4103782Y-2919363D01*
G01X4103675Y-2919215D01*
G01X4100335Y-2914414D01*
G01X4100238Y-2914270D01*
G01X4097068Y-2909357D01*
G01X4096974Y-2909205D01*
G01X4093981Y-2904181D01*
G01X4093893Y-2904025D01*
G01X4091083Y-2898900D01*
G01X4091003Y-2898747D01*
G01X4088371Y-2893524D01*
G01X4088293Y-2893362D01*
G01X4085853Y-2888051D01*
G01X4085782Y-2887889D01*
G01X4083529Y-2882492D01*
G01X4083464Y-2882329D01*
G01X4081402Y-2876858D01*
G01X4081342Y-2876691D01*
G01X4079475Y-2871148D01*
G01X4079421Y-2870979D01*
G01X4077753Y-2865376D01*
G01X4077704Y-2865203D01*
G01X4076239Y-2859543D01*
G01X4076198Y-2859376D01*
G01X4074928Y-2853666D01*
G01X4074892Y-2853488D01*
G01X4073830Y-2847737D01*
G01X4073801Y-2847562D01*
G01X4072945Y-2841781D01*
G01X4072923Y-2841611D01*
G01X4072265Y-2835799D01*
G01X4072248Y-2835617D01*
G01X4071803Y-2829788D01*
G02X4076789Y-2824408I4986J380D01*
G01X4126796Y-2824408D01*
G02X4131769Y-2828888I0J-5000D01*
G01X4132266Y-2833644D01*
G01X4132953Y-2838270D01*
G01X4133838Y-2842865D01*
G01X4134914Y-2847413D01*
G01X4136187Y-2851921D01*
G01X4137645Y-2856364D01*
G01X4139294Y-2860741D01*
G01X4141129Y-2865047D01*
G01X4143142Y-2869269D01*
G01X4145329Y-2873401D01*
G01X4147700Y-2877436D01*
G01X4150235Y-2881369D01*
G01X4152934Y-2885190D01*
G01X4155795Y-2888892D01*
G01X4158811Y-2892469D01*
G01X4161974Y-2895914D01*
G01X4165284Y-2899224D01*
G01X4168724Y-2902387D01*
G01X4172301Y-2905401D01*
G01X4176005Y-2908261D01*
G01X4179825Y-2910963D01*
G01X4183758Y-2913499D01*
G01X4187792Y-2915865D01*
G01X4191927Y-2918054D01*
G01X4196152Y-2920072D01*
G01X4200454Y-2921906D01*
G01X4204828Y-2923552D01*
G01X4209275Y-2925013D01*
G01X4213778Y-2926284D01*
G01X4218326Y-2927362D01*
G01X4222923Y-2928246D01*
G01X4227552Y-2928932D01*
G37*
G54D59*
G01X3568713Y-2044687D03*
G54D60*
G01X3648697Y-2194700D03*
G01X3608692Y-2194700D03*
G01X3568687Y-2194700D03*
G01X3528708Y-2194700D03*
G01X3488703Y-2194700D03*
G54D61*
G01X3418700Y-2124697D03*
G01X3418700Y-2084692D03*
G01X3418700Y-2044687D03*
G01X3418700Y-2004682D03*
G01X3418700Y-1964677D03*
G54D60*
G01X3488728Y-1894700D03*
G01X3528733Y-1894700D03*
G01X3568713Y-1894700D03*
G01X3608718Y-1894700D03*
G01X3648723Y-1894700D03*
G54D61*
G01X3718700Y-1964677D03*
G01X3718700Y-2004682D03*
G01X3718700Y-2044687D03*
G01X3718700Y-2084692D03*
G01X3718700Y-2124697D03*
G54D62*
G01X4077995Y-1362989D03*
G01X4077995Y-1428013D03*
G01X4077995Y-1493012D03*
G01X4077995Y-1558011D03*
G01X4507205Y-1362989D03*
G01X4507205Y-1428013D03*
G01X4507205Y-1493012D03*
G01X4507205Y-1558011D03*
G54D12*
G01X11059615Y-685800D03*
G54D13*
G01X10805615Y-685800D03*
G54D19*
G01X4522601Y-2415878D03*
G01X4776601Y-2415878D03*
G01X5030601Y-2415878D03*
G01X5284601Y-2415878D03*
G01X5538601Y-2415878D03*
G01X5792601Y-2415878D03*
G01X6046601Y-2415878D03*
G01X6300601Y-2415878D03*
G01X6554601Y-2415878D03*
G01X6808601Y-2415878D03*
G01X7062601Y-2415878D03*
G01X7316601Y-2415878D03*
G54D63*
G01X11582400Y-2133600D03*
G54D64*
G01X10509301Y-2253488D03*
G01X10509301Y-2293595D03*
G01X10509301Y-2333600D03*
G01X10509301Y-2373579D03*
G01X10509301Y-2213610D03*
G01X10509301Y-2173580D03*
G01X10509301Y-2133600D03*
G54D65*
G01X10589311Y-2453589D03*
G01X10629290Y-2453589D03*
G01X10669295Y-2453589D03*
G01X10709300Y-2453513D03*
G01X10749280Y-2453589D03*
G01X10789310Y-2453589D03*
G01X10829290Y-2453589D03*
G54D64*
G01X10909300Y-2373579D03*
G01X10909300Y-2333600D03*
G01X10909300Y-2293569D03*
G01X10909300Y-2253590D03*
G01X10909300Y-2213610D03*
G01X10909300Y-2173580D03*
G01X10909300Y-2133600D03*
G54D65*
G01X10829290Y-2053590D03*
G01X10789310Y-2053590D03*
G01X10749280Y-2053590D03*
G01X10709300Y-2053615D03*
G01X10669321Y-2053590D03*
G01X10629290Y-2053590D03*
G01X10589311Y-2053590D03*
G54D66*
G01X10709300Y-2253615D03*
G54D67*
G01X11562100Y-2215899D03*
G54D13*
G01X5538603Y-4562178D03*
G01X5792603Y-4562178D03*
G01X6046603Y-4562178D03*
G01X6300603Y-4562178D03*
G54D68*
G01X4489770Y-5905518D03*
G01X4390772Y-6004517D03*
G01X3984372Y-5572717D03*
G01X4083370Y-5473718D03*
G01X5040599Y-5208301D03*
G01X4941601Y-5307299D03*
G01X4763801Y-5485099D03*
G01X4862799Y-5386101D03*
G54D69*
G01X10919217Y-9020425D03*
G01X10919217Y-9160430D03*
G01X4307115Y-4646385D03*
G01X4307115Y-4506380D03*
G01X4764315Y-4773385D03*
G01X4764315Y-4913390D03*
G01X4307115Y-4773385D03*
G01X4307115Y-4913389D03*
G01X4764315Y-4646385D03*
G01X4764315Y-4506380D03*
G54D70*
G01X5256499Y-5358099D03*
G01X5157501Y-5259101D03*
G54D71*
G01X4097001Y-6594178D03*
G01X4237005Y-6594178D03*
G01X4084301Y-6949778D03*
G01X4224305Y-6949778D03*
G54D68*
G01X4687601Y-8152099D03*
G01X4786599Y-8053101D03*
G01X4979701Y-8431499D03*
G01X5078699Y-8332501D03*
G01X5271801Y-8710899D03*
G01X5370799Y-8611901D03*
G54D71*
G01X4097001Y-6771978D03*
G01X4237005Y-6771978D03*
G54D70*
G01X6704299Y-8075899D03*
G01X6605301Y-7976901D03*
G01X7021799Y-7745699D03*
G01X6922801Y-7646701D03*
G54D71*
G01X7626502Y-7010400D03*
G01X7486498Y-7010400D03*
G01X7296302Y-6032500D03*
G01X7156298Y-6032500D03*
G01X6953402Y-5638800D03*
G01X6813398Y-5638800D03*
G01X6686702Y-5181600D03*
G01X6546698Y-5181600D03*
G01X5583205Y-4155778D03*
G01X5443201Y-4155778D03*
G54D69*
G01X5462411Y-3428695D03*
G01X5462411Y-3568700D03*
G54D71*
G01X5760701Y-4155778D03*
G01X5900705Y-4155778D03*
G54D69*
G01X5848502Y-3428695D03*
G01X5848502Y-3568700D03*
G01X1238476Y-865858D03*
G01X1238476Y-1005863D03*
G54D71*
G01X10267883Y-2298142D03*
G01X10127878Y-2298142D03*
G01X11258702Y-2286000D03*
G01X11118698Y-2286000D03*
G01X10268102Y-2120900D03*
G01X10128098Y-2120900D03*
G54D69*
G01X1587500Y-5886602D03*
G01X1587500Y-5746598D03*
G54D71*
G01X1443271Y-6612174D03*
G01X1583276Y-6612174D03*
G54D69*
G01X2260600Y-5771998D03*
G01X2260600Y-5912002D03*
G01X2730500Y-6407607D03*
G01X2730500Y-6267602D03*
G01X2732002Y-6546698D03*
G01X2732002Y-6686702D03*
G01X2692400Y-5912002D03*
G01X2692400Y-5771998D03*
G01X2475872Y-5771998D03*
G01X2475872Y-5912002D03*
G54D71*
G01X3046620Y-1826932D03*
G01X3186625Y-1826932D03*
G01X3046620Y-2004732D03*
G01X3186625Y-2004732D03*
G01X3041498Y-2184400D03*
G01X3181502Y-2184400D03*
G01X3041498Y-2374900D03*
G01X3181502Y-2374900D03*
G54D69*
G01X3325793Y-2514190D03*
G01X3325793Y-2374185D03*
G01X3478193Y-2514190D03*
G01X3478193Y-2374185D03*
G01X3644900Y-2508402D03*
G01X3644900Y-2368398D03*
G54D71*
G01X3373872Y-1654708D03*
G01X3513877Y-1654708D03*
G01X3371698Y-1485900D03*
G01X3511702Y-1485900D03*
G01X3829202Y-1317520D03*
G01X3689198Y-1317520D03*
G01X3993998Y-2235200D03*
G01X4134002Y-2235200D03*
G54D69*
G01X1470533Y-5111907D03*
G01X1470533Y-5251912D03*
G01X1289130Y-5111907D03*
G01X1289130Y-5251912D03*
G54D71*
G01X1466798Y-4410777D03*
G01X1326794Y-4410777D03*
G01X1466799Y-4237388D03*
G01X1326794Y-4237388D03*
G54D72*
G01X10364201Y-6985864D03*
G01X10364201Y-7136536D03*
G01X10364201Y-7746136D03*
G01X10364201Y-7595464D03*
G01X10364201Y-8063636D03*
G01X10364201Y-7912964D03*
G01X10364201Y-7441336D03*
G01X10364201Y-7290664D03*
G01X6738351Y-4445864D03*
G01X6738351Y-4596536D03*
G01X6896100Y-4445864D03*
G01X6896100Y-4596536D03*
G01X11163300Y-4610964D03*
G01X11163300Y-4761636D03*
G01X11163300Y-4304436D03*
G01X11163300Y-4153764D03*
G01X11176000Y-3417164D03*
G01X11176000Y-3567836D03*
G01X11176000Y-3110636D03*
G01X11176000Y-2959964D03*
G54D73*
G01X9563964Y-1943100D03*
G01X9714636Y-1943100D03*
G54D72*
G01X9244945Y-2172564D03*
G01X9244945Y-2323236D03*
G01X9244945Y-1575664D03*
G01X9244945Y-1726336D03*
G01X10922000Y-8700364D03*
G01X10922000Y-8851036D03*
G01X1471534Y-5561536D03*
G01X1471534Y-5410863D03*
G01X1301322Y-5561536D03*
G01X1301322Y-5410863D03*
G01X2742199Y-8674964D03*
G01X2742199Y-8825636D03*
G01X6453003Y-9389042D03*
G01X6453003Y-9539714D03*
G01X5562600Y-8433664D03*
G01X5562600Y-8584336D03*
G01X6287903Y-9539714D03*
G01X6287903Y-9389042D03*
G01X5310003Y-9031714D03*
G01X5310003Y-8881042D03*
G01X7253103Y-9044414D03*
G01X7253103Y-8893742D03*
G01X6287903Y-9031714D03*
G01X6287903Y-8881042D03*
G54D73*
G01X6177686Y-9861022D03*
G01X6027014Y-9861022D03*
G01X5206136Y-9861022D03*
G01X5055464Y-9861022D03*
G01X7098436Y-9861022D03*
G01X6947764Y-9861022D03*
G01X5258339Y-3076278D03*
G01X5107667Y-3076278D03*
G54D72*
G01X6578600Y-4445864D03*
G01X6578600Y-4596536D03*
G01X7126014Y-1528093D03*
G01X7126014Y-1678766D03*
G54D73*
G01X7130888Y-1371219D03*
G01X7281561Y-1371219D03*
G01X7281561Y-1828419D03*
G01X7130888Y-1828419D03*
G01X240436Y-1092200D03*
G01X391109Y-1092200D03*
G01X710336Y-1092200D03*
G01X559664Y-1092200D03*
G54D72*
G01X1391877Y-873224D03*
G01X1391877Y-1023897D03*
G01X1556977Y-873224D03*
G01X1556977Y-1023897D03*
G01X1708376Y-873224D03*
G01X1708376Y-1023897D03*
G01X9245946Y-1326409D03*
G01X9245946Y-1175736D03*
G54D73*
G01X1586636Y-6214623D03*
G01X1435964Y-6214623D03*
G01X1586636Y-6076220D03*
G01X1435964Y-6076220D03*
G01X3821836Y-1625600D03*
G01X3671164Y-1625600D03*
G01X3821836Y-1485900D03*
G01X3671164Y-1485900D03*
G54D72*
G01X3853222Y-2511868D03*
G01X3853222Y-2361196D03*
G54D73*
G01X4139336Y-2514600D03*
G01X3988664Y-2514600D03*
G01X4144371Y-2374201D03*
G01X3993698Y-2374201D03*
G54D74*
G01X4746033Y-9855538D03*
G01X4905952Y-9854852D03*
G01X4798236Y-3076616D03*
G01X4958155Y-3075930D03*
G01X6632685Y-9855538D03*
G01X6792603Y-9854852D03*
G01X5714779Y-9855538D03*
G01X5874672Y-9854852D03*
G54D75*
G01X1466990Y-4902479D03*
G01X1466990Y-4762500D03*
G01X1327290Y-4774921D03*
G01X1327290Y-4914900D03*
G01X7285928Y-1529829D03*
G01X7285928Y-1669809D03*
G01X4980364Y-1703472D03*
G01X4980364Y-1843451D03*
G54D76*
G01X1326806Y-4584217D03*
G01X1466786Y-4584217D03*
G54D77*
G01X9246610Y-832508D03*
G01X9246610Y-1002688D03*
G54D69*
G01X1092200Y-6406998D03*
G01X1092200Y-6547002D03*
G54D78*
G01X279403Y-6517996D03*
G01X533403Y-6517996D03*
G01X533403Y-5928004D03*
G01X279397Y-5930900D03*
G54D26*
G01X2600844Y-8202820D03*
G01X2410852Y-8202820D03*
G01X2505848Y-8402820D03*
G54D72*
G01X1093201Y-5943600D03*
G01X1093201Y-5792927D03*
G54D73*
G01X2589936Y-8010401D03*
G01X2439264Y-8010401D03*
G54D72*
G01X2743200Y-8165236D03*
G01X2743200Y-8014564D03*
G01X1093201Y-6261694D03*
G01X1093201Y-6111022D03*
G01X2743200Y-8370164D03*
G01X2743200Y-8520836D03*
G54D79*
G01X495300Y-8689797D03*
G01X495300Y-9064803D03*
G54D80*
G01X5157603Y-4830378D03*
G54D13*
G01X5411603Y-4830378D03*
G01X5665603Y-4830378D03*
G01X5919601Y-4830378D03*
G01X6173601Y-4830378D03*
G01X6427601Y-4830378D03*
G01X6681601Y-4830378D03*
G54D72*
G01X5145464Y-1543998D03*
G01X5145464Y-1393325D03*
G54D69*
G01X7651161Y-3605981D03*
G01X7651161Y-3745986D03*
G01X7486061Y-3605981D03*
G01X7486061Y-3745986D03*
G54D71*
G01X7251264Y-3701383D03*
G01X7111259Y-3701383D03*
G01X7136659Y-3891883D03*
G01X7276664Y-3891883D03*
G54D69*
G01X6571661Y-4063486D03*
G01X6571661Y-3923481D03*
G54D81*
G01X6222997Y-3472990D03*
G01X6222997Y-3893005D03*
G54D82*
G01X11515941Y-5105400D03*
G01X11750459Y-5105400D03*
G01X11528641Y-2654300D03*
G01X11763159Y-2654300D03*
G01X7336621Y-4069683D03*
G01X7102102Y-4069683D03*
G01X9483941Y-2120900D03*
G01X9718459Y-2120900D03*
G54D83*
G01X7532700Y-3937000D03*
G01X7732700Y-3937000D03*
G54D84*
G01X6602629Y-3540431D03*
G01X6922618Y-3540431D03*
G54D72*
G01X7486061Y-3421120D03*
G01X7486061Y-3270447D03*
G01X7651161Y-3270447D03*
G01X7651161Y-3421120D03*
G54D73*
G01X6763025Y-4069683D03*
G01X6913698Y-4069683D03*
G01X6763889Y-3892747D03*
G01X6914561Y-3892747D03*
G54D85*
G01X7149765Y-3503886D03*
G01X7244761Y-3503886D03*
G01X7339757Y-3503886D03*
G01X7339757Y-3263881D03*
G01X7244761Y-3263881D03*
G01X7149765Y-3263881D03*
G54D86*
G01X9271114Y-9483496D03*
G01X10821099Y-9483496D03*
G54D87*
G01X10731106Y-8523503D03*
G54D88*
G01X9270302Y-8523503D03*
G54D89*
G01X9390317Y-8423504D03*
G01X9500299Y-8423504D03*
G01X9610306Y-8423504D03*
G01X9720237Y-8423504D03*
G01X9830270Y-8423504D03*
G01X9940252Y-8423504D03*
G01X10050285Y-8423504D03*
G01X10160241Y-8423504D03*
G01X10270198Y-8423504D03*
G54D24*
G01X9488500Y-1136904D03*
G01X9488500Y-1326896D03*
G01X9688500Y-1231900D03*
G01X1074015Y-1036737D03*
G01X1074015Y-846745D03*
G01X874015Y-941741D03*
G54D90*
G01X5643182Y-2931897D03*
G01X5693169Y-2706903D03*
G01X5743181Y-2931897D03*
G01X5793169Y-2706903D03*
G01X5843181Y-2931897D03*
G01X5893168Y-2706903D03*
G01X5943181Y-2931897D03*
G01X5993168Y-2706903D03*
G01X6043181Y-2931897D03*
G01X6093168Y-2706903D03*
G01X6143181Y-2931897D03*
G01X6193168Y-2706903D03*
G54D91*
G01X5483187Y-2819400D03*
G01X6353213Y-2819400D03*
G54D72*
G01X7886700Y-9525864D03*
G01X7886700Y-9676536D03*
G01X10180886Y-7912964D03*
G01X10180886Y-8063636D03*
G01X9998571Y-7912964D03*
G01X9998571Y-8063636D03*
G01X9816257Y-7912964D03*
G01X9816257Y-8063636D03*
G01X9633943Y-7912964D03*
G01X9633943Y-8063636D03*
G01X9451628Y-7912964D03*
G01X9451628Y-8063636D03*
G54D75*
G01X2732054Y-6991490D03*
G01X2732054Y-6851510D03*
G54D92*
G01X2835402Y-180010D03*
G01X3565398Y-170002D03*
G01X2835402Y-470002D03*
G01X3565398Y-880008D03*
G01X2835402Y-1040003D03*
G01X3565398Y-1099998D03*
G54D69*
G01X2741944Y-7689698D03*
G01X2741944Y-7829702D03*
G01X2552700Y-7829702D03*
G01X2552700Y-7689698D03*
G54D93*
G01X1870596Y-7263892D03*
G54D13*
G01X2124596Y-7390892D03*
G01X1870596Y-7517892D03*
G01X2124596Y-7644892D03*
G01X1870596Y-7771892D03*
G01X2124596Y-7898892D03*
G01X1870596Y-8025892D03*
G01X2124596Y-8152892D03*
G54D19*
G01X745604Y-7046392D03*
G01X745604Y-7300392D03*
G01X745604Y-8117408D03*
G01X745604Y-8371408D03*
G54D94*
G01X1540599Y-6934403D03*
G01X1540599Y-8483397D03*
G54D73*
G01X1439990Y-6451600D03*
G01X1590662Y-6451600D03*
G54D95*
G01X7886700Y-2067611D03*
G01X8013700Y-2067611D03*
G01X8140700Y-2067611D03*
G01X8267700Y-2067611D03*
G01X8394700Y-2067611D03*
G01X8521700Y-2067611D03*
G01X8648700Y-2067611D03*
G01X8775700Y-2067611D03*
G01X7886700Y-1513789D03*
G01X8013700Y-1513789D03*
G01X8140700Y-1513789D03*
G01X8267700Y-1513789D03*
G01X8394700Y-1513789D03*
G01X8521700Y-1513789D03*
G01X8648700Y-1513789D03*
G01X8775700Y-1513789D03*
G54D71*
G01X7956702Y-2362200D03*
G01X7816698Y-2362200D03*
G01X8265736Y-2362200D03*
G01X8125731Y-2362200D03*
G01X8574769Y-2362200D03*
G01X8434764Y-2362200D03*
G01X8883802Y-2362200D03*
G01X8743798Y-2362200D03*
G54D69*
G01X7673755Y-1831471D03*
G01X7673755Y-1691466D03*
G54D75*
G01X7493000Y-1691466D03*
G01X7493000Y-1831445D03*
G54D14*
G01X9931400Y-6629400D03*
G54D16*
G01X9677400Y-6629400D03*
G01X9931400Y-6375400D03*
G01X9677400Y-6375400D03*
G01X9931400Y-6121400D03*
G01X9677400Y-6121400D03*
G54D76*
G01X3066910Y-1625600D03*
G01X3206890Y-1625600D03*
G54D19*
G01X9677400Y-2819400D03*
G01X9931400Y-2819400D03*
G01X9677400Y-3073400D03*
G01X9931400Y-3073400D03*
G01X9677400Y-3327400D03*
G54D18*
G01X9931400Y-3327400D03*
G54D69*
G01X5143500Y-1843477D03*
G01X5143500Y-1703472D03*
G01X7493052Y-1524000D03*
G01X7493052Y-1383995D03*
G54D96*
G01X9765297Y-7282401D03*
G01X9640303Y-7282401D03*
G54D97*
G01X10020287Y-6992409D03*
G01X9385313Y-6992409D03*
G54D98*
G01X10541000Y-8104988D03*
G01X10541000Y-7897012D03*
G54D99*
G01X9752813Y-7272604D03*
G01X9652813Y-7272604D03*
G54D100*
G01X9862795Y-7027596D03*
G01X9542805Y-7027596D03*
G54D17*
G01X6413500Y-1168400D03*
G54D16*
G01X6159500Y-1168400D03*
G01X5905500Y-1168400D03*
G54D14*
G01X9931400Y-5867400D03*
G54D16*
G01X9677400Y-5867400D03*
G01X9931400Y-5613400D03*
G01X9677400Y-5613400D03*
G01X9931400Y-5359400D03*
G01X9677400Y-5359400D03*
G01X9931400Y-5105400D03*
G01X9677400Y-5105400D03*
G01X9931400Y-4851400D03*
G01X9677400Y-4851400D03*
G54D71*
G01X4679798Y-1701800D03*
G01X4819802Y-1701800D03*
G54D69*
G01X4426407Y-1854200D03*
G01X4426407Y-1714195D03*
G54D71*
G01X4235615Y-2070555D03*
G01X4095610Y-2070555D03*
G01X4235615Y-1918155D03*
G01X4095610Y-1918155D03*
G54D76*
G01X4082910Y-1739900D03*
G01X4222890Y-1739900D03*
G54D24*
G01X2960700Y-1276604D03*
G01X2960700Y-1466596D03*
G01X3160700Y-1371600D03*
G54D73*
G01X3517036Y-1320800D03*
G01X3366364Y-1320800D03*
G01X2793136Y-1270000D03*
G01X2642464Y-1270000D03*
G54D14*
G01X2311400Y-4000500D03*
G54D16*
G01X2057400Y-4000500D03*
G01X2311400Y-3746500D03*
G01X2057400Y-3746500D03*
G01X2311400Y-3492500D03*
G01X2057400Y-3492500D03*
G01X2311400Y-3238500D03*
G01X2057400Y-3238500D03*
G54D72*
G01X2730500Y-7314336D03*
G01X2730500Y-7163664D03*
G54D101*
G01X6413513Y-878599D03*
G54D102*
G01X7663498Y-736613D03*
G54D103*
G01X5861520Y-878599D03*
G54D101*
G01X6137516Y-878599D03*
G01X6689509Y-878599D03*
G01X6965506Y-878599D03*
G01X5999518Y-594601D03*
G01X6275515Y-594601D03*
G01X6551511Y-594601D03*
G01X6827507Y-594601D03*
G54D102*
G01X5163503Y-736613D03*
G54D104*
G01X12344400Y-1816100D03*
G01X12344400Y-7950200D03*
G01X-190500Y-7950200D03*
G01X-190500Y-1816100D03*
G04 Pad End*

M02*

