G04 Layer: DrillDrawingLayer*
G04 EasyEDA Pro v2.2.40.8, 2026-04-30 17:25:34*
G04 Gerber Generator version 0.3*
G04 Scale: 100 percent, Rotated: No, Reflected: No*
G04 Dimensions in millimeters*
G04 Leading zeros omitted, absolute positions, 4 integers and 5 decimals*
G04 Panelize: V-CUT, Column: 1, Row: 1, Board Size: 119.883mm x 102.738mm, Panelized Board Size: 129.883mm x 102.738mm, Panelized Method: Only Board Outline*
G04 Generated by one-click*
%FSLAX45Y45*%
%MOMM*%
%AMIconRect*4,1,4,0.2,-0.2,-0.2,-0.2,-0.2,0.2,0.2,0.2,0.2,-0.2,0*4,0,4,0.166667,-0.166667,0.166667,0.166667,-0.166667,0.166667,-0.166667,-0.166667,0.166667,-0.166667,0*%
%AMIconTriangle*4,1,3,-0.242567,0.171767,0.242567,0.171767,0,-0.2706,-0.242567,0.171767,0*4,0,3,-0.189767,0.1386,0,-0.1953,0.190167,0.1386,-0.189767,0.1386,0*%
%AMIconStar6*4,1,12,0.0862,0.1492,0.213233,0.123367,0.172367,0,0.213233,-0.1229,0.0862,-0.148733,0,-0.245767,-0.085767,-0.148733,-0.213267,-0.1229,-0.171933,0,-0.213267,0.1229,-0.085767,0.1492,0,0.245767,0.0862,0.1492,0*4,0,12,-0.000333,0.195333,-0.064333,0.122667,-0.169667,0.097667,-0.138333,-0.005333,-0.169667,-0.098,-0.064333,-0.122667,-0.000333,-0.195667,0.064333,-0.122667,0.169667,-0.098,0.138667,0.005,0.169667,0.098,0.064333,0.122333,-0.000333,0.195333,0*%
%AMIconStar4*4,1,8,-0.222667,0.222667,0,0.144667,0.222667,0.222667,0.144667,0,0.222667,-0.222667,0,-0.144667,-0.217433,-0.222667,-0.144667,0,-0.222667,0.222667,0*4,0,8,0.166667,-0.166667,0.108,0,0.166667,0.166667,0,0.108,-0.166667,0.166667,-0.108,0,-0.166667,-0.166667,0,-0.108,0.166667,-0.166667,0*%
%AMIconPlus*4,1,12,0.124,-0.2,-0.124,-0.2,-0.124,-0.124,-0.2,-0.124,-0.2,0.124,-0.124,0.124,-0.124,0.2,0.124,0.2,0.124,0.124,0.2,0.124,0.2,-0.124,0.124,-0.124,0.124,-0.2,0*4,0,12,0.090667,-0.166667,0.090667,-0.090667,0.166667,-0.090667,0.166667,0.090667,0.090667,0.090667,0.090667,0.166667,-0.090667,0.166667,-0.090667,0.090667,-0.166667,0.090667,-0.166667,-0.090667,-0.090667,-0.090667,-0.090667,-0.166667,0.090667,-0.166667,0*%
%AMIconX*4,1,16,0.2,-0.2,0.054533,-0.2,0,-0.145467,-0.054533,-0.2,-0.2,-0.2,-0.2,-0.054533,-0.145467,0,-0.2,0.054533,-0.2,0.2,-0.054533,0.2,0,0.145467,0.054533,0.2,0.2,0.2,0.2,0.054533,0.145467,0,0.2,-0.054533,0.2,-0.2,0*4,0,16,0.1668,-0.1664,0.1668,-0.068467,0.097933,0.000067,0.1668,0.068467,0.1668,0.1665,0.068467,0.1665,0,0.097933,-0.068467,0.1665,-0.1668,0.1665,-0.1668,0.068467,-0.097933,0.000067,-0.1668,-0.068467,-0.1668,-0.1664,-0.068467,-0.1664,0,-0.097933,0.068467,-0.1664,0.1668,-0.1664,0*%
%AMIconDiamond*4,1,4,0,-0.26,-0.26,0,0,0.26,0.26,0,0,-0.26,0*4,0,4,0,-0.203433,0.203433,0,0,0.2036,-0.203433,0,0,-0.203433,0*%
%AMIconRect2*4,1,6,0.2,-0.2,-0.2,-0.2,-0.2,0.2,-0.1668,0.1665,-0.166667,-0.166667,0.1668,-0.166667,0.2,-0.2,0*4,1,6,0.2,-0.2,0.1668,-0.166667,0.1668,0.1665,-0.1668,0.1665,-0.2,0.2,0.2,0.2,0.2,-0.2,0*4,1,6,0.133467,-0.133333,-0.133333,-0.133333,-0.133333,0.133467,-0.1,0.100133,-0.1,-0.1,0.100133,-0.1,0.133467,-0.133333,0*4,1,6,0.133467,-0.133333,0.100133,-0.1,0.100133,0.100133,-0.1,0.100133,-0.133333,0.133467,0.133467,0.133467,0.133467,-0.133333,0*%
%AMCharA*4,1,8,-0.122067,-0.1864,-0.1532,-0.174533,-0.015133,0.1864,0.016,0.1864,0.1532,-0.174533,0.122067,-0.1864,0.0764,-0.0662,-0.076133,-0.0662,-0.122067,-0.1864,0*4,0,3,-0.063333,-0.032867,0.063667,-0.032867,0.000333,0.1338,-0.063333,-0.032867,0*%
%AMCharB*4,1,17,-0.131133,-0.1894,-0.131133,0.1894,0.033533,0.1894,0.088067,0.172467,0.1114,0.151733,0.131133,0.114133,0.131,0.066467,0.114333,0.0338,0.094733,0.0128,0.086467,0.0084,0.094733,0.003867,0.114333,-0.017133,0.131,-0.0498,0.131133,-0.114133,0.1114,-0.151733,0.088067,-0.1726,0.033533,-0.1894,-0.131133,-0.1894,0*4,0,10,-0.0978,-0.156067,0.030867,-0.156067,0.073867,-0.142,0.085867,-0.130133,0.099533,-0.1028,0.099533,-0.0614,0.085867,-0.034533,0.073867,-0.0226,0.030867,-0.008667,-0.0978,-0.008667,-0.0978,-0.156067,0*4,0,10,-0.0978,0.024667,0.0308,0.024667,0.073867,0.039267,0.085867,0.051267,0.099533,0.078067,0.099533,0.102667,0.085867,0.130133,0.073867,0.142,0.030867,0.156067,-0.0978,0.156067,-0.0978,0.024667,0*%
%AMCharC*4,1,36,-0.027533,-0.1894,-0.071933,-0.1684,-0.1084,-0.130667,-0.125333,-0.096,-0.1428,-0.041333,-0.1428,0.041333,-0.1244,0.098,-0.105267,0.135067,-0.067533,0.171667,-0.027533,0.1894,0.038533,0.1894,0.083067,0.1684,0.119467,0.130667,0.1428,0.083,0.112867,0.0684,0.090867,0.113467,0.0614,0.142933,0.034733,0.156067,-0.0236,0.156067,-0.050333,0.142933,-0.079733,0.113467,-0.094067,0.084333,-0.109467,0.0386,-0.109467,-0.0386,-0.094067,-0.084333,-0.079733,-0.113467,-0.050333,-0.142867,-0.0236,-0.156067,0.034733,-0.156067,0.0614,-0.142867,0.090867,-0.113467,0.112867,-0.0684,0.1428,-0.083,0.119467,-0.130667,0.083067,-0.1684,0.038533,-0.1894,-0.027533,-0.1894,0*%
%AMCharD*4,1,12,-0.132,-0.1894,-0.132,0.1894,-0.000067,0.1894,0.054533,0.172467,0.0968,0.130933,0.1144,0.096067,0.132,0.041333,0.132,-0.041333,0.113467,-0.098267,0.093933,-0.134933,0.054533,-0.1726,-0.000067,-0.1894,-0.132,-0.1894,0*4,0,12,-0.098667,-0.156067,-0.002667,-0.156067,0.040333,-0.142133,0.068333,-0.113467,0.083267,-0.0842,0.098667,-0.0386,0.098667,0.0386,0.083267,0.0842,0.068333,0.113467,0.040333,0.142133,-0.002667,0.156067,-0.098667,0.156067,-0.098667,-0.156067,0*%
%AMCharE*4,1,12,-0.123667,-0.1894,-0.123667,0.1894,0.123667,0.1894,0.123667,0.156067,-0.090333,0.156067,-0.090333,0.024667,0.0416,0.024667,0.0416,-0.008667,-0.090333,-0.008667,-0.090333,-0.156067,0.123667,-0.156067,0.123667,-0.1894,-0.123667,-0.1894,0*%
%AMCharF*4,1,11,-0.123667,-0.1894,-0.123667,0.1894,-0.090333,0.1894,0.123667,0.1894,0.123667,0.156067,-0.090333,0.156067,-0.090333,0.024667,0.0416,0.024667,0.0416,-0.008667,-0.090333,-0.008667,-0.090333,-0.1894,-0.123667,-0.1894,0*%
%AMCharG*4,1,40,-0.027933,-0.1894,-0.072333,-0.1684,-0.1088,-0.130667,-0.125733,-0.096,-0.1424,-0.046667,-0.1424,0.046667,-0.1248,0.098,-0.105667,0.135067,-0.067933,0.171667,-0.027933,0.1894,0.038133,0.1894,0.082667,0.1684,0.119067,0.130667,0.1424,0.083,0.112467,0.0684,0.090467,0.113467,0.061,0.142933,0.034333,0.156067,-0.024,0.156067,-0.050733,0.142933,-0.080133,0.113467,-0.094467,0.084333,-0.1098,0.0386,-0.1098,-0.0386,-0.094467,-0.084333,-0.080133,-0.113467,-0.050733,-0.142867,-0.024,-0.156067,0.034333,-0.156067,0.061,-0.142867,0.090467,-0.113467,0.103467,-0.0868,0.103467,-0.058,0.021467,-0.058,0.021467,-0.024667,0.1368,-0.024667,0.1368,-0.090667,0.116,-0.135067,0.078067,-0.171667,0.038133,-0.1894,-0.027933,-0.1894,0*%
%AMCharH*4,1,12,-0.132,-0.1894,-0.132,0.1894,-0.098667,0.1894,-0.098667,0.024667,0.098667,0.024667,0.098667,0.1894,0.132,0.1894,0.132,-0.1894,0.098667,-0.1894,0.098667,-0.008667,-0.098667,-0.008667,-0.098667,-0.1894,-0.132,-0.1894,0*%
%AMCharI*4,1,4,-0.02,-0.1894,-0.02,0.1894,0.02,0.1894,0.02,-0.1894,-0.02,-0.1894,0*%
%AMCharJ*4,1,20,-0.0164,-0.1894,-0.056933,-0.171667,-0.077733,-0.151467,-0.099,-0.090667,-0.099,-0.040667,-0.065667,-0.040667,-0.065667,-0.087933,-0.051067,-0.1312,-0.039733,-0.142867,-0.012467,-0.156067,0.012533,-0.156067,0.039733,-0.142867,0.051067,-0.1312,0.065667,-0.087933,0.065667,0.1894,0.099,0.1894,0.099,-0.090667,0.077733,-0.151467,0.056933,-0.171667,0.016267,-0.1894,-0.0164,-0.1894,0*%
%AMCharK*4,1,12,0.1086,-0.196133,-0.038533,-0.001,-0.102067,-0.0644,-0.102067,-0.189533,-0.1354,-0.189533,-0.1354,0.189267,-0.102067,0.189267,-0.102067,-0.017267,0.111867,0.196133,0.1354,0.172467,-0.0146,0.022867,0.135133,-0.176133,0.1086,-0.196133,0*%
%AMCharL*4,1,6,-0.115333,-0.1894,-0.115333,0.1894,-0.082,0.1894,-0.082,-0.156067,0.115333,-0.156067,0.115333,-0.1894,-0.115333,-0.1894,0*%
%ADD10IconRect*%
%ADD11C,0.44X0.373333*%
%ADD12IconTriangle*%
%ADD13IconStar6*%
%ADD14IconStar4*%
%ADD15IconPlus*%
%ADD16IconX*%
%ADD17IconDiamond*%
%ADD18IconRect2*%
%ADD19CharA*%
%ADD20CharB*%
%ADD21CharC*%
%ADD22CharD*%
%ADD23CharE*%
%ADD24CharF*%
%ADD25CharG*%
%ADD26CharH*%
%ADD27CharI*%
%ADD28CharJ*%
%ADD29CharK*%
%ADD30CharL*%
G75*


G04 Drill Drawing Start*
G54D10*
G01X10983224Y-976516D03*
G54D11*
G01X10683217Y-1436482D03*
G01X11313178Y-1436543D03*
G54D12*
G01X1540601Y-6934401D03*
G01X1540601Y-8483399D03*
G54D13*
G01X5163503Y-736613D03*
G01X7663498Y-736613D03*
G54D14*
G01X4399616Y-7462172D03*
G01X7439590Y-7462172D03*
G54D15*
G01X9551099Y-9523501D03*
G01X10351097Y-9523501D03*
G54D16*
G01X3200400Y-880008D03*
G01X3200400Y-180010D03*
G54D17*
G01X1235596Y-7137400D03*
G01X1235596Y-8280400D03*
G54D18*
G01X2057400Y-5270500D03*
G01X2057400Y-5524500D03*
G01X2311400Y-5524500D03*
G01X2311400Y-5270500D03*
G54D19*
G01X11412596Y-4915593D03*
G01X11412596Y-3721793D03*
G01X11412598Y-4050591D03*
G01X11412598Y-2856791D03*
G54D20*
G01X11832603Y-4915598D03*
G01X11832603Y-4050601D03*
G01X11832603Y-3721798D03*
G01X11832603Y-2856801D03*
G54D21*
G01X-190500Y-7950200D03*
G01X-190500Y-1816100D03*
G01X12344400Y-7950200D03*
G01X12344400Y-1816100D03*
G54D22*
G01X11464608Y-4772088D03*
G01X11464608Y-4194086D03*
G01X11464608Y-3578288D03*
G01X11464608Y-3000286D03*
G54D23*
G01X368300Y-9702800D03*
G01X368300Y-88900D03*
G01X4399606Y-7792375D03*
G01X7439600Y-7792375D03*
G01X11811000Y-9702800D03*
G01X11811000Y-88900D03*
G54D24*
G01X995666Y-2880520D03*
G01X995666Y-1343820D03*
G01X1195665Y-2880520D03*
G01X1195665Y-1343820D03*
G01X1395665Y-2880520D03*
G01X1395665Y-1343820D03*
G01X1595665Y-2880520D03*
G01X1595665Y-1343820D03*
G01X1795664Y-2880520D03*
G01X1795664Y-1343820D03*
G01X1995664Y-2880520D03*
G01X1995664Y-1343820D03*
G01X2136000Y-8788400D03*
G01X2195663Y-2880520D03*
G01X2195663Y-1343820D03*
G01X2395663Y-2880520D03*
G01X2395663Y-1343820D03*
G01X2436000Y-8788400D03*
G54D25*
G01X1870596Y-8025905D03*
G01X1870596Y-7771905D03*
G01X1870596Y-7517905D03*
G01X1870596Y-7263900D03*
G01X2124596Y-8152905D03*
G01X2124596Y-7898905D03*
G01X2124596Y-7644905D03*
G01X2124596Y-7390905D03*
G01X5157603Y-4830378D03*
G01X5411603Y-4830378D03*
G01X5538603Y-4562178D03*
G01X5665603Y-4830378D03*
G01X5792603Y-4562178D03*
G01X5919601Y-4830378D03*
G01X6046603Y-4562178D03*
G01X6173601Y-4830378D03*
G01X6300603Y-4562178D03*
G01X6427601Y-4830378D03*
G01X6681601Y-4830378D03*
G54D26*
G01X5905500Y-1168400D03*
G01X6159500Y-1168400D03*
G01X6413500Y-1168400D03*
G01X10744200Y-8051800D03*
G01X10744200Y-7797800D03*
G01X10744200Y-7543800D03*
G01X10744200Y-7289803D03*
G01X10744200Y-7035803D03*
G01X10744200Y-6781803D03*
G01X10744200Y-6527803D03*
G01X10744200Y-6273803D03*
G01X10744200Y-6019805D03*
G01X10744200Y-5765805D03*
G01X10998200Y-8051800D03*
G01X10998200Y-7797800D03*
G01X10998200Y-7543800D03*
G01X10998200Y-7289803D03*
G01X10998200Y-7035803D03*
G01X10998200Y-6781803D03*
G01X10998200Y-6527803D03*
G01X10998200Y-6273803D03*
G01X10998200Y-6019805D03*
G01X10998200Y-5765805D03*
G54D27*
G01X4522601Y-2415878D03*
G01X4776601Y-2415878D03*
G01X5030601Y-2415878D03*
G01X5284601Y-2415878D03*
G01X5538601Y-2415878D03*
G01X5792601Y-2415878D03*
G01X6046601Y-2415878D03*
G01X6300601Y-2415878D03*
G01X6554601Y-2415878D03*
G01X6808601Y-2415878D03*
G01X7062601Y-2415878D03*
G01X7316601Y-2415878D03*
G01X9677400Y-4089400D03*
G01X9677400Y-3835400D03*
G01X9677400Y-3581400D03*
G01X9677400Y-3327400D03*
G01X9677400Y-3073400D03*
G01X9677400Y-2819400D03*
G01X9931400Y-4089400D03*
G01X9931400Y-3835400D03*
G01X9931400Y-3581400D03*
G01X9931400Y-3327400D03*
G01X9931400Y-3073400D03*
G01X9931400Y-2819400D03*
G54D28*
G01X1143000Y-203200D03*
G01X1143000Y50800D03*
G01X1397000Y-203200D03*
G01X1397000Y50800D03*
G01X1651000Y-203200D03*
G01X1651000Y50800D03*
G01X3265303Y-9680278D03*
G01X3265303Y-9426278D03*
G01X3265303Y-9172278D03*
G01X3265303Y-8918278D03*
G01X3265303Y-8664278D03*
G01X3265303Y-8410278D03*
G01X3265303Y-8156278D03*
G01X3265303Y-7902278D03*
G01X3519303Y-9680278D03*
G01X3519303Y-9426278D03*
G01X3519303Y-9172278D03*
G01X3519303Y-8918278D03*
G01X3519303Y-8664278D03*
G01X3519303Y-8410278D03*
G01X3519303Y-8156278D03*
G01X3519303Y-7902278D03*
G01X8423602Y-9680278D03*
G01X8423602Y-9426278D03*
G01X8423602Y-9172278D03*
G01X8423602Y-8918278D03*
G01X8423602Y-8664278D03*
G01X8423602Y-8410278D03*
G01X8423602Y-8156278D03*
G01X8423602Y-7902278D03*
G01X8677602Y-9680278D03*
G01X8677602Y-9426278D03*
G01X8677602Y-9172278D03*
G01X8677602Y-8918278D03*
G01X8677602Y-8664278D03*
G01X8677602Y-8410278D03*
G01X8677602Y-8156278D03*
G01X8677602Y-7902278D03*
G01X9677400Y-4597400D03*
G01X9677400Y-4343400D03*
G01X9931400Y-4597400D03*
G01X9931400Y-4343400D03*
G54D29*
G01X745602Y-8371408D03*
G01X745602Y-8117408D03*
G01X745602Y-7300392D03*
G01X745602Y-7046392D03*
G01X1169725Y-9779752D03*
G01X1169725Y-9525752D03*
G01X1423725Y-9779752D03*
G01X1423725Y-9525752D03*
G01X1677725Y-9779752D03*
G01X1677725Y-9525752D03*
G01X1931725Y-9779752D03*
G01X1931725Y-9525752D03*
G01X2057400Y-5016500D03*
G01X2057400Y-4762500D03*
G01X2057400Y-4508500D03*
G01X2057400Y-4254500D03*
G01X2057400Y-4000500D03*
G01X2057400Y-3746500D03*
G01X2057400Y-3492500D03*
G01X2057400Y-3238500D03*
G01X2185725Y-9779752D03*
G01X2185725Y-9525752D03*
G01X2311400Y-5016500D03*
G01X2311400Y-4762500D03*
G01X2311400Y-4508500D03*
G01X2311400Y-4000500D03*
G01X2311400Y-3746500D03*
G01X2311400Y-3492500D03*
G01X2311400Y-3238500D03*
G01X2311400Y-4254500D03*
G01X2439725Y-9779752D03*
G01X2439725Y-9525752D03*
G01X2693725Y-9779752D03*
G01X2693725Y-9525752D03*
G01X3265303Y-7648278D03*
G01X3265303Y-7394278D03*
G01X3265303Y-7140278D03*
G01X3265303Y-6886278D03*
G01X3265303Y-6632278D03*
G01X3265303Y-6378278D03*
G01X3265303Y-6124278D03*
G01X3265303Y-5870278D03*
G01X3265303Y-5616278D03*
G01X3265303Y-5362278D03*
G01X3265303Y-5108278D03*
G01X3265303Y-4854278D03*
G01X3265303Y-4600278D03*
G01X3265303Y-4346278D03*
G01X3265303Y-4092278D03*
G01X3265303Y-3838278D03*
G01X3265303Y-3584278D03*
G01X3265303Y-3330278D03*
G01X3265303Y-3076278D03*
G01X3265303Y-2822278D03*
G01X3519303Y-7648278D03*
G01X3519303Y-7394278D03*
G01X3519303Y-7140278D03*
G01X3519303Y-6886278D03*
G01X3519303Y-6632278D03*
G01X3519303Y-6378278D03*
G01X3519303Y-6124278D03*
G01X3519303Y-5870278D03*
G01X3519303Y-5616278D03*
G01X3519303Y-5362278D03*
G01X3519303Y-5108278D03*
G01X3519303Y-4854278D03*
G01X3519303Y-4600278D03*
G01X3519303Y-4346278D03*
G01X3519303Y-4092278D03*
G01X3519303Y-3838278D03*
G01X3519303Y-3584278D03*
G01X3519303Y-3330278D03*
G01X3519303Y-3076278D03*
G01X3519303Y-2822278D03*
G01X4292600Y-685800D03*
G01X4546600Y-685800D03*
G01X5861520Y-878599D03*
G01X5999518Y-594601D03*
G01X6137516Y-878599D03*
G01X6275515Y-594601D03*
G01X6413513Y-878599D03*
G01X6551511Y-594601D03*
G01X6689509Y-878599D03*
G01X6827507Y-594601D03*
G01X6965506Y-878599D03*
G01X7290621Y-5037390D03*
G01X7290621Y-4783390D03*
G01X7290621Y-4529390D03*
G01X7544621Y-5037390D03*
G01X7544621Y-4783390D03*
G01X7544621Y-4529390D03*
G01X8280400Y-685800D03*
G01X8421503Y-7648278D03*
G01X8421503Y-7394278D03*
G01X8421503Y-7140278D03*
G01X8421503Y-6886278D03*
G01X8421503Y-6632278D03*
G01X8421503Y-6378278D03*
G01X8421503Y-6124278D03*
G01X8421503Y-5870278D03*
G01X8421503Y-5616278D03*
G01X8421503Y-5362278D03*
G01X8421503Y-5108278D03*
G01X8421503Y-4854278D03*
G01X8421503Y-4600278D03*
G01X8421503Y-4346278D03*
G01X8421503Y-4092278D03*
G01X8421503Y-3838278D03*
G01X8421503Y-3584278D03*
G01X8421503Y-3330278D03*
G01X8421503Y-3076278D03*
G01X8421503Y-2822278D03*
G01X8534400Y-685800D03*
G01X8675503Y-7648278D03*
G01X8675503Y-7394278D03*
G01X8675503Y-7140278D03*
G01X8675503Y-6886278D03*
G01X8675503Y-6632278D03*
G01X8675503Y-6378278D03*
G01X8675503Y-6124278D03*
G01X8675503Y-5870278D03*
G01X8675503Y-5616278D03*
G01X8675503Y-5362278D03*
G01X8675503Y-5108278D03*
G01X8675503Y-4854278D03*
G01X8675503Y-4600278D03*
G01X8675503Y-4346278D03*
G01X8675503Y-4092278D03*
G01X8675503Y-3838278D03*
G01X8675503Y-3584278D03*
G01X8675503Y-3330278D03*
G01X8675503Y-3076278D03*
G01X8675503Y-2822278D03*
G01X9372600Y-444500D03*
G01X9372600Y-190500D03*
G01X9372600Y66553D03*
G01X9626600Y-444500D03*
G01X9626600Y-190500D03*
G01X9626600Y66553D03*
G01X9677400Y-6629400D03*
G01X9677400Y-6375400D03*
G01X9677400Y-6121400D03*
G01X9677400Y-5867400D03*
G01X9677400Y-5613400D03*
G01X9677400Y-5359400D03*
G01X9677400Y-5105400D03*
G01X9677400Y-4851400D03*
G01X9880600Y-444500D03*
G01X9880600Y-190500D03*
G01X9880600Y66553D03*
G01X9931400Y-6629400D03*
G01X9931400Y-6375400D03*
G01X9931400Y-6121400D03*
G01X9931400Y-5867400D03*
G01X9931400Y-5613400D03*
G01X9931400Y-5359400D03*
G01X9931400Y-5105400D03*
G01X9931400Y-4851400D03*
G01X10134600Y-444500D03*
G01X10134600Y-190500D03*
G01X10134600Y66553D03*
G01X10388600Y-444500D03*
G01X10388600Y-190500D03*
G01X10388600Y66553D03*
G01X10805615Y-685800D03*
G01X11059615Y-685800D03*
G01X11150600Y-8724900D03*
G01X11404600Y-8724900D03*
G01X11658600Y-8724900D03*
G01X11912600Y-8724900D03*
G54D30*
G01X174400Y-9533300D03*
G01X174400Y-9425600D03*
G01X174400Y-9317900D03*
G01X174400Y-9210200D03*
G01X174400Y-9102500D03*
G01X174400Y-8994800D03*
G01X174400Y-274501D03*
G01X180000Y-8886304D03*
G01X180000Y-8778603D03*
G01X180000Y-8670903D03*
G01X180000Y-8563203D03*
G01X180000Y-8455503D03*
G01X180000Y-8347803D03*
G01X180000Y-8240103D03*
G01X180000Y-8132403D03*
G01X180000Y-8024703D03*
G01X180000Y-7917003D03*
G01X180000Y-7809303D03*
G01X180000Y-7701603D03*
G01X180000Y-7593903D03*
G01X180000Y-7486203D03*
G01X180000Y-7378503D03*
G01X180000Y-7270803D03*
G01X180000Y-7163103D03*
G01X180000Y-7055402D03*
G01X180000Y-6947702D03*
G01X180000Y-6840002D03*
G01X180000Y-6732302D03*
G01X180000Y-6624602D03*
G01X180000Y-6516902D03*
G01X180000Y-6409202D03*
G01X180000Y-6301502D03*
G01X180000Y-6193802D03*
G01X180000Y-6086102D03*
G01X180000Y-5763002D03*
G01X180000Y-5655302D03*
G01X180000Y-5547602D03*
G01X180000Y-5439901D03*
G01X180000Y-5332201D03*
G01X180000Y-5224501D03*
G01X180000Y-5116801D03*
G01X180000Y-5009101D03*
G01X180000Y-3609000D03*
G01X180000Y-3501300D03*
G01X180000Y-3393600D03*
G01X282100Y156300D03*
G01X287700Y-4255201D03*
G01X287700Y-4147501D03*
G01X287700Y-4039801D03*
G01X287700Y-3393600D03*
G01X389800Y-920701D03*
G01X389800Y-813001D03*
G01X389800Y-705301D03*
G01X389800Y-597601D03*
G01X389800Y-489901D03*
G01X389800Y-382201D03*
G01X395401Y-6624602D03*
G01X395401Y-6516902D03*
G01X395401Y-6193802D03*
G01X395401Y-5547602D03*
G01X395401Y-3393600D03*
G01X450393Y-742863D03*
G01X497500Y-9317900D03*
G01X497500Y-9210200D03*
G01X497500Y-813001D03*
G01X497500Y-705301D03*
G01X497500Y-597601D03*
G01X497500Y-382201D03*
G01X497500Y-274501D03*
G01X497500Y156300D03*
G01X503101Y-5116801D03*
G01X605200Y-9856401D03*
G01X605200Y-9748701D03*
G01X605200Y-9641001D03*
G01X605200Y-9317900D03*
G01X605200Y-9210200D03*
G01X605200Y-274501D03*
G01X605200Y-166801D03*
G01X605200Y-59100D03*
G01X605200Y48600D03*
G01X605200Y156300D03*
G01X609600Y-5765800D03*
G01X610801Y-6624602D03*
G01X610801Y-6516902D03*
G01X610801Y-5547602D03*
G01X610801Y-5439901D03*
G01X610801Y-5116801D03*
G01X610801Y-4793701D03*
G01X610801Y-3609000D03*
G01X660400Y-8623300D03*
G01X660400Y-4737100D03*
G01X711200Y-5981700D03*
G01X712901Y-9856401D03*
G01X712901Y-9748701D03*
G01X712901Y-9641001D03*
G01X712901Y-9317900D03*
G01X712901Y-9210200D03*
G01X712901Y-8994800D03*
G01X712901Y-59100D03*
G01X712901Y156300D03*
G01X718501Y-7701603D03*
G01X718501Y-7486203D03*
G01X718501Y-6624602D03*
G01X718501Y-6516902D03*
G01X718501Y-4793701D03*
G01X820601Y-9856401D03*
G01X820601Y-9317900D03*
G01X820601Y-9210200D03*
G01X825500Y-4572000D03*
G01X826201Y-8778603D03*
G01X826201Y-4362901D03*
G01X876300Y-4851400D03*
G01X889000Y-4521200D03*
G01X895350Y-4692650D03*
G01X928301Y-9856401D03*
G01X928301Y-9748701D03*
G01X928301Y-9641001D03*
G01X928301Y-9317900D03*
G01X928301Y-9210200D03*
G01X933901Y-8886304D03*
G01X933901Y-8778603D03*
G01X933901Y-8563203D03*
G01X933901Y-8240103D03*
G01X933901Y-8132403D03*
G01X933901Y-8024703D03*
G01X933901Y-5978402D03*
G01X933901Y-5116801D03*
G01X939800Y-3721100D03*
G01X1028700Y-3644900D03*
G01X1035050Y-3778250D03*
G01X1036001Y-9210200D03*
G01X1036001Y-8994800D03*
G01X1036001Y-2643902D03*
G01X1036001Y-2536202D03*
G01X1036001Y-2428502D03*
G01X1036001Y-2320802D03*
G01X1036001Y-2213102D03*
G01X1036001Y-2105402D03*
G01X1036001Y-1997702D03*
G01X1036001Y-1890002D03*
G01X1036001Y-1782301D03*
G01X1036001Y-705301D03*
G01X1036001Y-597601D03*
G01X1036001Y-489901D03*
G01X1036001Y-382201D03*
G01X1041601Y-8886304D03*
G01X1041601Y-8778603D03*
G01X1041601Y-8455503D03*
G01X1041601Y-5116801D03*
G01X1041601Y-4255201D03*
G01X1041601Y-4147501D03*
G01X1143701Y-9210200D03*
G01X1143701Y-8994800D03*
G01X1143701Y-2536202D03*
G01X1143701Y-2428502D03*
G01X1143701Y-2320802D03*
G01X1143701Y-2213102D03*
G01X1143701Y-2105402D03*
G01X1143701Y-1997702D03*
G01X1143701Y-1890002D03*
G01X1143701Y-1782301D03*
G01X1149301Y-7701603D03*
G01X1149301Y-7378503D03*
G01X1149301Y-4255201D03*
G01X1149301Y-4147501D03*
G01X1193800Y-6032500D03*
G01X1239568Y-1125637D03*
G01X1251401Y-9317900D03*
G01X1251401Y-9210200D03*
G01X1251401Y-8994800D03*
G01X1251401Y-2536202D03*
G01X1251401Y-2428502D03*
G01X1251401Y-2320802D03*
G01X1251401Y-2213102D03*
G01X1251401Y-2105402D03*
G01X1251401Y-1997702D03*
G01X1251401Y-1890002D03*
G01X1251401Y-1782301D03*
G01X1251401Y-705301D03*
G01X1251401Y-597601D03*
G01X1251401Y-489901D03*
G01X1257001Y-8670903D03*
G01X1257001Y-8563203D03*
G01X1257001Y-7701603D03*
G01X1257001Y-7378503D03*
G01X1257001Y-5978402D03*
G01X1257001Y-4147501D03*
G01X1257001Y-4039801D03*
G01X1257001Y-3393600D03*
G01X1308100Y-5715000D03*
G01X1359101Y-8994800D03*
G01X1359101Y-705301D03*
G01X1364701Y-8886304D03*
G01X1364701Y-8778603D03*
G01X1364701Y-8670903D03*
G01X1364701Y-7701603D03*
G01X1364701Y-7378503D03*
G01X1364701Y-6947702D03*
G01X1364701Y-5978402D03*
G01X1364701Y-4147501D03*
G01X1364701Y-4039801D03*
G01X1364701Y-3393600D03*
G01X1460500Y-5867400D03*
G01X1466801Y-8994800D03*
G01X1466801Y-705301D03*
G01X1472401Y-8886304D03*
G01X1472401Y-8778603D03*
G01X1472401Y-3501300D03*
G01X1472401Y-3393600D03*
G01X1536700Y-4699000D03*
G01X1562100Y-3606800D03*
G01X1574501Y-9425600D03*
G01X1574501Y-9317900D03*
G01X1574501Y-9210200D03*
G01X1574501Y-8994800D03*
G01X1574501Y-2643902D03*
G01X1574501Y-2536202D03*
G01X1574501Y-2428502D03*
G01X1574501Y-2320802D03*
G01X1574501Y-2213102D03*
G01X1574501Y-2105402D03*
G01X1574501Y-1997702D03*
G01X1574501Y-1890002D03*
G01X1574501Y-1782301D03*
G01X1574501Y-1674601D03*
G01X1574501Y-705301D03*
G01X1574501Y-597601D03*
G01X1574501Y-489901D03*
G01X1580101Y-8886304D03*
G01X1580101Y-8778603D03*
G01X1580101Y-8670903D03*
G01X1580101Y-4470601D03*
G01X1580101Y-4362901D03*
G01X1580101Y-4255201D03*
G01X1580101Y-4147501D03*
G01X1580101Y-4039801D03*
G01X1580101Y-3932101D03*
G01X1580101Y-3824401D03*
G01X1580101Y-3501300D03*
G01X1580101Y-3393600D03*
G01X1580101Y-3285900D03*
G01X1580101Y-3178200D03*
G01X1600200Y-9080500D03*
G01X1676000Y-5003800D03*
G01X1676400Y-6616700D03*
G01X1676400Y-6540500D03*
G01X1676400Y-6201923D03*
G01X1682201Y-8994800D03*
G01X1682201Y-2643902D03*
G01X1682201Y-1674601D03*
G01X1682976Y-800100D03*
G01X1687801Y-5224501D03*
G01X1689100Y-9131300D03*
G01X1739900Y-7658100D03*
G01X1789901Y-2643902D03*
G01X1789901Y-1674601D03*
G01X1789901Y-813001D03*
G01X1789901Y-705301D03*
G01X1789901Y-597601D03*
G01X1789901Y-489901D03*
G01X1789901Y-166801D03*
G01X1790700Y-6858000D03*
G01X1790700Y-5435600D03*
G01X1795501Y-6624602D03*
G01X1795501Y-6516902D03*
G01X1892300Y-6197600D03*
G01X1892300Y-1051000D03*
G01X1897601Y-1674601D03*
G01X1903201Y-5224501D03*
G01X1993900Y-9080500D03*
G01X1993900Y-8089900D03*
G01X2005301Y-1674601D03*
G01X2005301Y-166801D03*
G01X2005301Y-59100D03*
G01X2005301Y48600D03*
G01X2005301Y156300D03*
G01X2010901Y-8778603D03*
G01X2010901Y-8670903D03*
G01X2010901Y-8563203D03*
G01X2010901Y-8455503D03*
G01X2010901Y-8347803D03*
G01X2038350Y-9128200D03*
G01X2057400Y-9271000D03*
G01X2108200Y-7175500D03*
G01X2108200Y-4127500D03*
G01X2113001Y-9210200D03*
G01X2113001Y-8994800D03*
G01X2113001Y-2428502D03*
G01X2113001Y-2320802D03*
G01X2113001Y-2213102D03*
G01X2113001Y-2105402D03*
G01X2113001Y-1997702D03*
G01X2113001Y-1890002D03*
G01X2113001Y-1782301D03*
G01X2113001Y-1674601D03*
G01X2113001Y156300D03*
G01X2118602Y-8670903D03*
G01X2118602Y-8563203D03*
G01X2118602Y-8455503D03*
G01X2118602Y-8347803D03*
G01X2136730Y-6425340D03*
G01X2159000Y-1079500D03*
G01X2220701Y156300D03*
G01X2226302Y-6947702D03*
G01X2328401Y156300D03*
G01X2334002Y-6840002D03*
G01X2334002Y-5978402D03*
G01X2334002Y-5870702D03*
G01X2362200Y-6184900D03*
G01X2374900Y-7467600D03*
G01X2374900Y-6899928D03*
G01X2374900Y-6680200D03*
G01X2425700Y-1016000D03*
G01X2436102Y-9102500D03*
G01X2436102Y-8994800D03*
G01X2436102Y-1136101D03*
G01X2436102Y-166801D03*
G01X2436102Y-59100D03*
G01X2436102Y48600D03*
G01X2436102Y156300D03*
G01X2438400Y-4152900D03*
G01X2441702Y-3393600D03*
G01X2441702Y-3285900D03*
G01X2451100Y-6184900D03*
G01X2476500Y-5613400D03*
G01X2540000Y-8572500D03*
G01X2540000Y-5562600D03*
G01X2543802Y-9210200D03*
G01X2543802Y-9102500D03*
G01X2543802Y-8994800D03*
G01X2543802Y-2967002D03*
G01X2543802Y-2859302D03*
G01X2543802Y-2751602D03*
G01X2549402Y-5763002D03*
G01X2596241Y-4381500D03*
G01X2599164Y-5816600D03*
G01X2603500Y-9271000D03*
G01X2603500Y-8407400D03*
G01X2641600Y-8864600D03*
G01X2651502Y-9102500D03*
G01X2651502Y-1136101D03*
G01X2651502Y-1028401D03*
G01X2651502Y-920701D03*
G01X2654300Y-7924800D03*
G01X2654300Y-7594600D03*
G01X2705100Y-5384800D03*
G01X2724950Y-4140200D03*
G01X2743200Y-8255000D03*
G01X2747250Y-4216400D03*
G01X2755900Y-7493000D03*
G01X2755900Y-7391400D03*
G01X2759202Y48600D03*
G01X2759202Y156300D03*
G01X2806700Y-1397000D03*
G01X2816448Y-6072431D03*
G01X2827729Y-6138471D03*
G01X2845652Y-9867048D03*
G01X2866902Y48600D03*
G01X2866902Y156300D03*
G01X2872502Y-4686001D03*
G01X2933700Y-2946400D03*
G01X2974602Y48600D03*
G01X2974602Y156300D03*
G01X2980202Y-3932101D03*
G01X2980202Y-3393600D03*
G01X3022600Y-3657600D03*
G01X3082302Y48600D03*
G01X3082302Y156300D03*
G01X3085041Y-2654300D03*
G01X3086100Y-1181100D03*
G01X3087902Y-4039801D03*
G01X3087902Y-3932101D03*
G01X3087902Y-3824401D03*
G01X3087902Y-3716700D03*
G01X3111500Y-2108200D03*
G01X3136900Y-1511300D03*
G01X3140099Y-9245600D03*
G01X3190002Y-1136101D03*
G01X3190002Y-1028401D03*
G01X3190002Y48600D03*
G01X3190002Y156300D03*
G01X3251200Y-1270000D03*
G01X3297702Y-1136101D03*
G01X3297702Y-1028401D03*
G01X3297702Y48600D03*
G01X3297702Y156300D03*
G01X3405402Y48600D03*
G01X3405402Y156300D03*
G01X3505200Y-1800300D03*
G01X3513102Y48600D03*
G01X3513102Y156300D03*
G01X3568713Y-2044687D03*
G01X3619500Y-1346200D03*
G01X3620802Y48600D03*
G01X3620802Y156300D03*
G01X3671703Y-3448218D03*
G01X3708400Y-2219400D03*
G01X3721100Y-9804400D03*
G01X3728502Y48600D03*
G01X3728502Y156300D03*
G01X3746500Y-2362200D03*
G01X3759200Y-1749500D03*
G01X3833677Y-1800150D03*
G01X3835400Y-9829800D03*
G01X3836202Y-1136101D03*
G01X3836202Y48600D03*
G01X3836202Y156300D03*
G01X3841803Y-8886304D03*
G01X3860800Y-2265600D03*
G01X3886200Y-5499100D03*
G01X3895800Y-2079700D03*
G01X3898900Y-1752600D03*
G01X3901869Y-1895400D03*
G01X3937000Y-5435600D03*
G01X3943902Y-8994800D03*
G01X3943902Y-2859302D03*
G01X3943902Y-2751602D03*
G01X3943902Y-1136101D03*
G01X3943902Y48600D03*
G01X3943902Y156300D03*
G01X3949503Y-8886304D03*
G01X3949503Y-8455503D03*
G01X3949503Y-3609000D03*
G01X3949503Y-3501300D03*
G01X3949503Y-3393600D03*
G01X3975100Y-6210300D03*
G01X3987800Y-1739900D03*
G01X4002309Y-1917700D03*
G01X4051603Y-1243801D03*
G01X4051603Y48600D03*
G01X4051603Y156300D03*
G01X4102100Y-7035800D03*
G01X4102100Y-6680200D03*
G01X4102100Y-2603500D03*
G01X4159303Y-705301D03*
G01X4159303Y-597601D03*
G01X4159303Y-489901D03*
G01X4159303Y48600D03*
G01X4159303Y156300D03*
G01X4178300Y-7048500D03*
G01X4241808Y-2819397D03*
G01X4267003Y-2536202D03*
G01X4267003Y-2428502D03*
G01X4267003Y-2320802D03*
G01X4267003Y-489901D03*
G01X4267003Y48600D03*
G01X4267003Y156300D03*
G01X4272603Y-5978402D03*
G01X4272603Y-5009101D03*
G01X4318000Y-6032500D03*
G01X4318000Y-1727200D03*
G01X4330700Y-9817100D03*
G01X4330700Y-8216900D03*
G01X4330700Y-1905000D03*
G01X4368800Y-6184900D03*
G01X4368800Y-2209800D03*
G01X4368800Y-1428013D03*
G01X4368800Y-1054100D03*
G01X4374703Y-489901D03*
G01X4374703Y48600D03*
G01X4374703Y156300D03*
G01X4380303Y-5116801D03*
G01X4380303Y-5009101D03*
G01X4380303Y-3716700D03*
G01X4380303Y-3609000D03*
G01X4380303Y-3501300D03*
G01X4394200Y-6832600D03*
G01X4457700Y-4445000D03*
G01X4478694Y-5003800D03*
G01X4482403Y-489901D03*
G01X4482403Y48600D03*
G01X4482403Y156300D03*
G01X4488003Y-5224501D03*
G01X4488003Y-5116801D03*
G01X4533900Y-8216900D03*
G01X4546600Y-4508500D03*
G01X4572000Y-1638300D03*
G01X4584700Y-8991600D03*
G01X4590103Y-920701D03*
G01X4590103Y-489901D03*
G01X4590103Y48600D03*
G01X4590103Y156300D03*
G01X4595703Y-8886304D03*
G01X4595703Y-5116801D03*
G01X4595703Y-5009101D03*
G01X4595703Y-4147501D03*
G01X4595703Y-4039801D03*
G01X4595703Y-3393600D03*
G01X4595703Y-3285900D03*
G01X4644378Y-6672526D03*
G01X4648200Y-2806700D03*
G01X4650179Y-4519221D03*
G01X4660900Y-4106481D03*
G01X4697803Y-9533300D03*
G01X4697803Y-489901D03*
G01X4697803Y48600D03*
G01X4697803Y156300D03*
G01X4699000Y-3073400D03*
G01X4703403Y-5009101D03*
G01X4703403Y-4039801D03*
G01X4703403Y-3393600D03*
G01X4703403Y-3285900D03*
G01X4775200Y-6842200D03*
G01X4775200Y-6540500D03*
G01X4805503Y-9533300D03*
G01X4805503Y-1566901D03*
G01X4805503Y-1459201D03*
G01X4805503Y-489901D03*
G01X4805503Y48600D03*
G01X4805503Y156300D03*
G01X4806950Y-7524750D03*
G01X4811103Y-6947702D03*
G01X4811103Y-4147501D03*
G01X4811103Y-4039801D03*
G01X4811103Y-3393600D03*
G01X4811103Y-3285900D03*
G01X4826000Y-6616700D03*
G01X4826000Y-2755900D03*
G01X4864100Y-6540500D03*
G01X4913203Y-9533300D03*
G01X4913203Y-1028401D03*
G01X4913203Y-920701D03*
G01X4913203Y-489901D03*
G01X4913203Y48600D03*
G01X4913203Y156300D03*
G01X4914900Y-8458200D03*
G01X4914900Y-2095500D03*
G01X4918803Y-6947702D03*
G01X4918803Y-6840002D03*
G01X4918803Y-4147501D03*
G01X4918803Y-4039801D03*
G01X4918803Y-3393600D03*
G01X4918803Y-3285900D03*
G01X4978400Y-6622576D03*
G01X4991100Y-7124700D03*
G01X5020903Y-1028401D03*
G01X5020903Y48600D03*
G01X5020903Y156300D03*
G01X5026503Y-6947702D03*
G01X5026503Y-6732302D03*
G01X5029200Y-9537700D03*
G01X5067300Y-7213600D03*
G01X5118100Y-6997700D03*
G01X5118100Y-5156200D03*
G01X5126622Y-2095500D03*
G01X5128603Y-9533300D03*
G01X5128603Y48600D03*
G01X5128603Y156300D03*
G01X5134203Y-6732302D03*
G01X5143500Y-5383499D03*
G01X5168900Y-7886700D03*
G01X5168900Y-6134100D03*
G01X5194300Y-2908300D03*
G01X5232400Y-1892300D03*
G01X5236303Y-9533300D03*
G01X5236303Y48600D03*
G01X5236303Y156300D03*
G01X5241903Y-7163103D03*
G01X5241903Y-7055402D03*
G01X5241903Y-6732302D03*
G01X5241903Y-3501300D03*
G01X5289296Y-4540504D03*
G01X5295900Y-4303079D03*
G01X5339901Y-2095500D03*
G01X5344003Y-9533300D03*
G01X5344003Y-1028401D03*
G01X5344003Y48600D03*
G01X5344003Y156300D03*
G01X5349603Y-8778603D03*
G01X5349603Y-7270803D03*
G01X5349603Y-6086102D03*
G01X5349603Y-5978402D03*
G01X5349603Y-4255201D03*
G01X5349603Y-3824401D03*
G01X5349603Y-3716700D03*
G01X5349603Y-3609000D03*
G01X5349603Y-3285900D03*
G01X5448300Y-7594600D03*
G01X5451703Y-1028401D03*
G01X5451703Y-920701D03*
G01X5451703Y-489901D03*
G01X5451703Y48600D03*
G01X5451703Y156300D03*
G01X5457304Y-8778603D03*
G01X5457304Y-7378503D03*
G01X5457304Y-6086102D03*
G01X5457304Y-5870702D03*
G01X5457304Y-3824401D03*
G01X5457304Y-3716700D03*
G01X5457304Y-3285900D03*
G01X5473700Y-9812650D03*
G01X5473700Y-9652000D03*
G01X5486400Y-4343400D03*
G01X5511800Y-8229600D03*
G01X5511800Y-3035300D03*
G01X5555403Y-2095500D03*
G01X5559403Y-9425600D03*
G01X5559403Y48600D03*
G01X5559403Y156300D03*
G01X5562600Y-9101588D03*
G01X5562600Y-4940300D03*
G01X5565004Y-7486203D03*
G01X5565004Y-6732302D03*
G01X5565004Y-6086102D03*
G01X5565004Y-5978402D03*
G01X5565004Y-5870702D03*
G01X5651500Y-5143500D03*
G01X5667103Y-1351501D03*
G01X5667103Y48600D03*
G01X5667103Y156300D03*
G01X5672704Y-7593903D03*
G01X5672704Y-6732302D03*
G01X5715000Y-7861300D03*
G01X5740400Y-6654800D03*
G01X5772150Y-5099050D03*
G01X5773125Y-2095500D03*
G01X5774804Y-1674601D03*
G01X5774804Y-1351501D03*
G01X5774804Y-597601D03*
G01X5774804Y-489901D03*
G01X5774804Y48600D03*
G01X5774804Y156300D03*
G01X5780404Y-7701603D03*
G01X5780404Y-6732302D03*
G01X5789500Y-5469632D03*
G01X5791200Y-5219700D03*
G01X5826151Y-5156200D03*
G01X5882504Y-9102500D03*
G01X5882504Y48600D03*
G01X5882504Y156300D03*
G01X5886602Y-3721100D03*
G01X5888104Y-8240103D03*
G01X5888104Y-7917003D03*
G01X5888104Y-7809303D03*
G01X5888104Y-6624602D03*
G01X5888104Y-4255201D03*
G01X5888104Y-4039801D03*
G01X5936233Y-9584571D03*
G01X5943600Y-3048000D03*
G01X5990204Y-9102500D03*
G01X5990204Y48600D03*
G01X5990204Y156300D03*
G01X5994400Y-2095500D03*
G01X5995804Y-7809303D03*
G01X5995804Y-6516902D03*
G01X5995804Y-4255201D03*
G01X5995804Y-4147501D03*
G01X5995804Y-4039801D03*
G01X5995804Y-3932101D03*
G01X6007100Y-8255000D03*
G01X6097904Y-705301D03*
G01X6097904Y48600D03*
G01X6097904Y156300D03*
G01X6103504Y-7701603D03*
G01X6103504Y-6409202D03*
G01X6103504Y-4255201D03*
G01X6103504Y-3609000D03*
G01X6103504Y-3501300D03*
G01X6103504Y-3393600D03*
G01X6103504Y-3285900D03*
G01X6144821Y-1932379D03*
G01X6205604Y48600D03*
G01X6205604Y156300D03*
G01X6210300Y-1963700D03*
G01X6211204Y-8778603D03*
G01X6211204Y-8670903D03*
G01X6211204Y-8563203D03*
G01X6211204Y-8455503D03*
G01X6211204Y-7593903D03*
G01X6211204Y-6086102D03*
G01X6211204Y-5978402D03*
G01X6211204Y-5870702D03*
G01X6211204Y-4255201D03*
G01X6211204Y-3285900D03*
G01X6222389Y-8966200D03*
G01X6237400Y-5207000D03*
G01X6309965Y-1883450D03*
G01X6313304Y48600D03*
G01X6313304Y156300D03*
G01X6318904Y-7486203D03*
G01X6318904Y-6086102D03*
G01X6318904Y-4255201D03*
G01X6326550Y-5437550D03*
G01X6337300Y-5992485D03*
G01X6348021Y-5154800D03*
G01X6350000Y-9842500D03*
G01X6421004Y-2967002D03*
G01X6421004Y-489901D03*
G01X6421004Y48600D03*
G01X6421004Y156300D03*
G01X6426200Y-2097200D03*
G01X6426604Y-7378503D03*
G01X6426604Y-6086102D03*
G01X6426604Y-4686001D03*
G01X6426604Y-4470601D03*
G01X6426604Y-4255201D03*
G01X6426604Y-3932101D03*
G01X6453579Y-5205021D03*
G01X6489700Y-1955800D03*
G01X6515100Y-8966200D03*
G01X6528704Y48600D03*
G01X6528704Y156300D03*
G01X6534304Y-7270803D03*
G01X6534304Y-6301502D03*
G01X6534304Y-6193802D03*
G01X6534304Y-4255201D03*
G01X6539229Y-2006600D03*
G01X6578600Y-7899400D03*
G01X6593066Y-2050599D03*
G01X6636404Y-9425600D03*
G01X6636404Y-705301D03*
G01X6636404Y48600D03*
G01X6636404Y156300D03*
G01X6642004Y-7163103D03*
G01X6642004Y-6301502D03*
G01X6642004Y-4255201D03*
G01X6642004Y-3932101D03*
G01X6642100Y-6413500D03*
G01X6686550Y-5657850D03*
G01X6743700Y-1892300D03*
G01X6744104Y-9425600D03*
G01X6744104Y-705301D03*
G01X6744104Y48600D03*
G01X6744104Y156300D03*
G01X6749704Y-8347803D03*
G01X6749704Y-8240103D03*
G01X6749704Y-8132403D03*
G01X6749704Y-7055402D03*
G01X6749704Y-6516902D03*
G01X6749704Y-6409202D03*
G01X6749704Y-3824401D03*
G01X6749704Y-3716700D03*
G01X6749704Y-3609000D03*
G01X6749704Y-3501300D03*
G01X6749704Y-3393600D03*
G01X6749704Y-3285900D03*
G01X6749704Y-3178200D03*
G01X6807200Y-8191500D03*
G01X6851804Y-9425600D03*
G01X6851804Y-813001D03*
G01X6851804Y48600D03*
G01X6851804Y156300D03*
G01X6857404Y-8347803D03*
G01X6857404Y-8240103D03*
G01X6857404Y-6947702D03*
G01X6857404Y-6516902D03*
G01X6908800Y-5178500D03*
G01X6921500Y-7531100D03*
G01X6946900Y-4826000D03*
G01X6959504Y-9425600D03*
G01X6959504Y-705301D03*
G01X6959504Y-489901D03*
G01X6959504Y48600D03*
G01X6959504Y156300D03*
G01X6965104Y-8347803D03*
G01X6965104Y-6840002D03*
G01X6965104Y-6732302D03*
G01X6965104Y-6624602D03*
G01X7010400Y-5168900D03*
G01X7023100Y-1828800D03*
G01X7048500Y-7810500D03*
G01X7048500Y-7670800D03*
G01X7048500Y-6019800D03*
G01X7048500Y-4254500D03*
G01X7061200Y-6807200D03*
G01X7061200Y-3492500D03*
G01X7067204Y-9425600D03*
G01X7067204Y48600D03*
G01X7067204Y156300D03*
G01X7072804Y-6732302D03*
G01X7073900Y-3594100D03*
G01X7073900Y-3409114D03*
G01X7124700Y-5613400D03*
G01X7150100Y-5118100D03*
G01X7174904Y48600D03*
G01X7174904Y156300D03*
G01X7175500Y-4254500D03*
G01X7180505Y-6732302D03*
G01X7188200Y-9855200D03*
G01X7188200Y-3390900D03*
G01X7282604Y-2967002D03*
G01X7282604Y48600D03*
G01X7282604Y156300D03*
G01X7288205Y-6840002D03*
G01X7288205Y-6732302D03*
G01X7288205Y-6624602D03*
G01X7340100Y-5613400D03*
G01X7340600Y-1943100D03*
G01X7366000Y-7086600D03*
G01X7390304Y-2967002D03*
G01X7390304Y-920701D03*
G01X7390304Y-489901D03*
G01X7390304Y48600D03*
G01X7390304Y156300D03*
G01X7395905Y-6840002D03*
G01X7395905Y-6732302D03*
G01X7395905Y-6624602D03*
G01X7395905Y-3178200D03*
G01X7442200Y-1295400D03*
G01X7447800Y-5613400D03*
G01X7454900Y-9817100D03*
G01X7454900Y-6032500D03*
G01X7498005Y48600D03*
G01X7498005Y156300D03*
G01X7503605Y-8024703D03*
G01X7503605Y-3178200D03*
G01X7505700Y-6477000D03*
G01X7543800Y-9512300D03*
G01X7553317Y-3771386D03*
G01X7555500Y-5613400D03*
G01X7563328Y-6039037D03*
G01X7568656Y-3345783D03*
G01X7594600Y-2159000D03*
G01X7605705Y48600D03*
G01X7605705Y156300D03*
G01X7607300Y-9207500D03*
G01X7607300Y-1447800D03*
G01X7611305Y-8132403D03*
G01X7611305Y-8024703D03*
G01X7611305Y-7917003D03*
G01X7611305Y-7593903D03*
G01X7611305Y-6840002D03*
G01X7611305Y-6732302D03*
G01X7611305Y-6624602D03*
G01X7611305Y-3824401D03*
G01X7611305Y-3178200D03*
G01X7620000Y-9652000D03*
G01X7620000Y-8902700D03*
G01X7625761Y-3505200D03*
G01X7658100Y-215900D03*
G01X7663200Y-5613400D03*
G01X7670800Y-1193800D03*
G01X7713405Y-9210200D03*
G01X7713405Y-2643902D03*
G01X7713405Y-2536202D03*
G01X7713405Y-2428502D03*
G01X7713405Y-2320802D03*
G01X7713405Y48600D03*
G01X7713405Y156300D03*
G01X7719005Y-7055402D03*
G01X7719005Y-6624602D03*
G01X7719005Y-3716700D03*
G01X7721600Y-4368800D03*
G01X7772400Y-7010400D03*
G01X7821105Y-9210200D03*
G01X7821105Y-2536202D03*
G01X7821105Y48600D03*
G01X7821105Y156300D03*
G01X7823200Y-4038410D03*
G01X7826705Y-7055402D03*
G01X7826705Y-6624602D03*
G01X7826705Y-6193802D03*
G01X7829418Y-1778000D03*
G01X7848301Y-3930055D03*
G01X7928805Y-9210200D03*
G01X7928805Y-920701D03*
G01X7928805Y48600D03*
G01X7928805Y156300D03*
G01X7931504Y-1778000D03*
G01X7934405Y-8240103D03*
G01X7934405Y-8132403D03*
G01X7934405Y-8024703D03*
G01X7934405Y-7917003D03*
G01X7934405Y-7809303D03*
G01X7934405Y-7701603D03*
G01X7934405Y-7593903D03*
G01X7934405Y-7486203D03*
G01X7934405Y-7378503D03*
G01X7934405Y-7055402D03*
G01X7934405Y-6624602D03*
G01X7934405Y-6193802D03*
G01X7934405Y-6086102D03*
G01X8036505Y-8994800D03*
G01X8036505Y-920701D03*
G01X8036505Y-813001D03*
G01X8036505Y-705301D03*
G01X8036505Y-597601D03*
G01X8036505Y48600D03*
G01X8036505Y156300D03*
G01X8042105Y-7055402D03*
G01X8042105Y-5978402D03*
G01X8139000Y-3543300D03*
G01X8140700Y-9753600D03*
G01X8143800Y-5978402D03*
G01X8144205Y-8994800D03*
G01X8144205Y-920701D03*
G01X8144205Y-813001D03*
G01X8144205Y-597601D03*
G01X8144205Y48600D03*
G01X8144205Y156300D03*
G01X8153400Y-9537700D03*
G01X8153400Y-9322247D03*
G01X8153400Y-8902700D03*
G01X8153400Y-3824840D03*
G01X8242300Y-9169400D03*
G01X8251905Y48600D03*
G01X8251905Y156300D03*
G01X8265560Y-2707000D03*
G01X8274050Y-9734550D03*
G01X8359605Y48600D03*
G01X8359605Y156300D03*
G01X8394700Y-1790700D03*
G01X8467305Y48600D03*
G01X8467305Y156300D03*
G01X8521700Y-1790700D03*
G01X8521700Y-1295400D03*
G01X8559800Y-2707000D03*
G01X8575005Y48600D03*
G01X8575005Y156300D03*
G01X8682705Y-1782301D03*
G01X8682705Y-1674601D03*
G01X8682705Y-1243801D03*
G01X8682705Y-1028401D03*
G01X8682705Y-920701D03*
G01X8682705Y-813001D03*
G01X8682705Y-705301D03*
G01X8682705Y-597601D03*
G01X8682705Y48600D03*
G01X8682705Y156300D03*
G01X8741999Y-2474397D03*
G01X8750300Y-8534400D03*
G01X8790405Y-1782301D03*
G01X8790405Y-1674601D03*
G01X8790405Y-1243801D03*
G01X8790405Y-1028401D03*
G01X8790405Y-920701D03*
G01X8790405Y-813001D03*
G01X8790405Y-705301D03*
G01X8790405Y-597601D03*
G01X8790405Y48600D03*
G01X8790405Y156300D03*
G01X8796006Y-5763002D03*
G01X8800601Y-8236713D03*
G01X8800601Y-8029612D03*
G01X8826500Y-8648700D03*
G01X8851900Y-7454900D03*
G01X8851900Y-5600700D03*
G01X8898105Y-1782301D03*
G01X8898105Y-1674601D03*
G01X8898105Y-1566901D03*
G01X8898105Y-1459201D03*
G01X8898105Y-1351501D03*
G01X8898105Y-1243801D03*
G01X8903706Y-6516902D03*
G01X8903706Y-6301502D03*
G01X8963100Y-2946400D03*
G01X9011406Y-7055402D03*
G01X9042400Y-7531100D03*
G01X9059384Y-2734784D03*
G01X9113506Y-1351501D03*
G01X9113506Y-1243801D03*
G01X9113506Y-1136101D03*
G01X9113506Y-1028401D03*
G01X9113506Y-920701D03*
G01X9113506Y-274501D03*
G01X9113506Y-59100D03*
G01X9118600Y-2527300D03*
G01X9119106Y-8563203D03*
G01X9119106Y-7055402D03*
G01X9119106Y-4470601D03*
G01X9121800Y-8346100D03*
G01X9121800Y-8238400D03*
G01X9121800Y-8023000D03*
G01X9131300Y-7531100D03*
G01X9140750Y-7645400D03*
G01X9144000Y-7442200D03*
G01X9172600Y-9907201D03*
G01X9220200Y-7454900D03*
G01X9220200Y-6515100D03*
G01X9221206Y-2859302D03*
G01X9221206Y-2751602D03*
G01X9221206Y-2428502D03*
G01X9221206Y-489901D03*
G01X9221206Y-382201D03*
G01X9221206Y-274501D03*
G01X9221206Y-166801D03*
G01X9221206Y-59100D03*
G01X9226806Y-7055402D03*
G01X9226806Y-6947702D03*
G01X9226806Y-6624602D03*
G01X9226806Y-6409202D03*
G01X9226806Y-6301502D03*
G01X9226806Y-6193802D03*
G01X9226806Y-5978402D03*
G01X9226806Y-4255201D03*
G01X9226806Y-4147501D03*
G01X9226806Y-4039801D03*
G01X9226806Y-3932101D03*
G01X9226806Y-3824401D03*
G01X9226806Y-3716700D03*
G01X9226806Y-3609000D03*
G01X9232900Y-8156278D03*
G01X9245600Y-7531100D03*
G01X9280300Y-9907201D03*
G01X9280300Y-9261000D03*
G01X9280300Y-9153300D03*
G01X9280300Y-9045600D03*
G01X9283700Y-1828800D03*
G01X9317429Y-7433871D03*
G01X9328906Y-2428502D03*
G01X9334500Y-5981700D03*
G01X9334500Y-4470400D03*
G01X9385300Y-1727200D03*
G01X9388000Y-9907201D03*
G01X9388000Y-9799501D03*
G01X9388000Y-9691801D03*
G01X9388000Y-9584100D03*
G01X9388000Y-9476400D03*
G01X9388000Y-9368700D03*
G01X9388000Y-9261000D03*
G01X9388000Y-9153300D03*
G01X9388000Y-9045600D03*
G01X9436100Y-5232400D03*
G01X9436100Y-2425700D03*
G01X9436606Y-1028401D03*
G01X9436606Y-920701D03*
G01X9442206Y-5978402D03*
G01X9442206Y-4470601D03*
G01X9449698Y-7985612D03*
G01X9488500Y-965200D03*
G01X9495700Y-9907201D03*
G01X9549906Y-5224501D03*
G01X9549906Y-5009101D03*
G01X9550400Y-8559800D03*
G01X9550400Y-6511509D03*
G01X9550400Y-1841500D03*
G01X9601200Y-2324100D03*
G01X9603400Y-9907201D03*
G01X9613900Y-1326896D03*
G01X9625000Y-914400D03*
G01X9625000Y-850900D03*
G01X9632819Y-7985612D03*
G01X9639300Y-1854200D03*
G01X9658100Y-8559800D03*
G01X9677400Y-8305800D03*
G01X9702800Y-1758696D03*
G01X9711100Y-9907201D03*
G01X9756801Y-7458101D03*
G01X9759706Y-1459201D03*
G01X9759706Y-1028401D03*
G01X9759706Y-920701D03*
G01X9759706Y-274501D03*
G01X9759706Y-166801D03*
G01X9759706Y-59100D03*
G01X9764321Y-6872679D03*
G01X9765306Y-7163103D03*
G01X9765306Y-7055402D03*
G01X9765800Y-8559800D03*
G01X9768279Y-7518301D03*
G01X9804400Y-2928264D03*
G01X9816638Y-7985612D03*
G01X9818801Y-9907201D03*
G01X9831779Y-6872679D03*
G01X9867406Y-2428502D03*
G01X9867406Y-1459201D03*
G01X9867406Y-1351501D03*
G01X9867406Y-1243801D03*
G01X9867406Y-1136101D03*
G01X9867406Y-1028401D03*
G01X9867900Y-2527300D03*
G01X9867900Y-1663700D03*
G01X9867900Y-914400D03*
G01X9873006Y-7270803D03*
G01X9873500Y-8559800D03*
G01X9926501Y-9907201D03*
G01X9980706Y-7270803D03*
G01X9981200Y-8559800D03*
G01X9994900Y-7985612D03*
G01X10034201Y-9907201D03*
G01X10071100Y-2514600D03*
G01X10082806Y-2967002D03*
G01X10082806Y-2751602D03*
G01X10083800Y-7275400D03*
G01X10083800Y-3708400D03*
G01X10096500Y-7518301D03*
G01X10134600Y-3987800D03*
G01X10140800Y-3352800D03*
G01X10141901Y-9907201D03*
G01X10147300Y-1854200D03*
G01X10162448Y-8739111D03*
G01X10180260Y-7985612D03*
G01X10188500Y-3405579D03*
G01X10190506Y-1674601D03*
G01X10190506Y-1566901D03*
G01X10190506Y-1459201D03*
G01X10190506Y-1351501D03*
G01X10190506Y-1243801D03*
G01X10190506Y-1136101D03*
G01X10190506Y-1028401D03*
G01X10190506Y-920701D03*
G01X10190506Y-813001D03*
G01X10198100Y-7708900D03*
G01X10198100Y-4150171D03*
G01X10210800Y-6070600D03*
G01X10236200Y-3352800D03*
G01X10249601Y-9907201D03*
G01X10251156Y-8191500D03*
G01X10261600Y-7810500D03*
G01X10267950Y-8566150D03*
G01X10277658Y-7912100D03*
G01X10287000Y-3403600D03*
G01X10298206Y-1782301D03*
G01X10298206Y-1674601D03*
G01X10298206Y-1566901D03*
G01X10298206Y-1459201D03*
G01X10298206Y-1351501D03*
G01X10298206Y-1243801D03*
G01X10298206Y-1136101D03*
G01X10298206Y-1028401D03*
G01X10298206Y-920701D03*
G01X10298206Y-813001D03*
G01X10303806Y-6193802D03*
G01X10303806Y-5224501D03*
G01X10325100Y-4800600D03*
G01X10325100Y-4584700D03*
G01X10327950Y-6896100D03*
G01X10337800Y-5943600D03*
G01X10337800Y-3352800D03*
G01X10357301Y-9907201D03*
G01X10363200Y-8191500D03*
G01X10363200Y-5600700D03*
G01X10388600Y-3403600D03*
G01X10388600Y-2006600D03*
G01X10405906Y-920701D03*
G01X10405906Y-813001D03*
G01X10411506Y-8563203D03*
G01X10411506Y-6624602D03*
G01X10414000Y-5016500D03*
G01X10439400Y-3352800D03*
G01X10452100Y-7912100D03*
G01X10464800Y-7645400D03*
G01X10464800Y-6897502D03*
G01X10464800Y-6248400D03*
G01X10465001Y-9907201D03*
G01X10466989Y-8191500D03*
G01X10477500Y-7289800D03*
G01X10490200Y-3403600D03*
G01X10515600Y-7708900D03*
G01X10519207Y-8563203D03*
G01X10519207Y-6624602D03*
G01X10541000Y-8407400D03*
G01X10541000Y-3352800D03*
G01X10566400Y-5816600D03*
G01X10572701Y-9907201D03*
G01X10579100Y-215900D03*
G01X10591800Y-7734300D03*
G01X10591800Y-3403600D03*
G01X10600032Y-2546200D03*
G01X10617200Y-7975600D03*
G01X10621306Y-1782301D03*
G01X10621306Y-1674601D03*
G01X10621306Y-597601D03*
G01X10621306Y-489901D03*
G01X10621306Y48600D03*
G01X10621306Y156300D03*
G01X10626907Y-5655302D03*
G01X10629900Y-8242300D03*
G01X10642600Y-3352800D03*
G01X10660761Y-2539471D03*
G01X10680401Y-9907201D03*
G01X10680700Y-8293100D03*
G01X10693400Y-3403600D03*
G01X10709300Y-2253615D03*
G01X10729006Y-1782301D03*
G01X10729006Y-1674601D03*
G01X10729006Y-489901D03*
G01X10729006Y48600D03*
G01X10729006Y156300D03*
G01X10734434Y-8242300D03*
G01X10788101Y-9907201D03*
G01X10836707Y-489901D03*
G01X10836707Y48600D03*
G01X10836707Y156300D03*
G01X10842307Y-8563203D03*
G01X10858500Y-3416300D03*
G01X10871200Y-7289800D03*
G01X10895801Y-9907201D03*
G01X10895801Y-9261000D03*
G01X10909300Y-3098800D03*
G01X10944407Y-1997702D03*
G01X10944407Y-489901D03*
G01X10944407Y48600D03*
G01X10944407Y156300D03*
G01X10985929Y-2615771D03*
G01X10998200Y-4521200D03*
G01X11001400Y-8296003D03*
G01X11001400Y-8188303D03*
G01X11001400Y-6142002D03*
G01X11001400Y-5388102D03*
G01X11001400Y-5280402D03*
G01X11001400Y-5172702D03*
G01X11001400Y-5065002D03*
G01X11001400Y-4849601D03*
G01X11001400Y-4634201D03*
G01X11001400Y-4418801D03*
G01X11001400Y-4311101D03*
G01X11001400Y-4095701D03*
G01X11001400Y-3880301D03*
G01X11001400Y-3772601D03*
G01X11001400Y-3664901D03*
G01X11003501Y-9907201D03*
G01X11010900Y-4968785D03*
G01X11010900Y-3987800D03*
G01X11049000Y-8242300D03*
G01X11052107Y-1997702D03*
G01X11052107Y-489901D03*
G01X11052107Y48600D03*
G01X11052107Y156300D03*
G01X11058600Y-2768600D03*
G01X11061700Y-2654300D03*
G01X11061700Y-2425700D03*
G01X11087100Y-5219700D03*
G01X11109100Y-6142002D03*
G01X11109100Y-4095701D03*
G01X11109100Y-3988001D03*
G01X11109100Y-3880301D03*
G01X11109100Y-3772601D03*
G01X11109100Y-3557201D03*
G01X11111201Y-9907201D03*
G01X11125200Y-7010400D03*
G01X11159807Y-2751602D03*
G01X11159807Y-1997702D03*
G01X11159807Y-813001D03*
G01X11159807Y-489901D03*
G01X11159807Y48600D03*
G01X11159807Y156300D03*
G01X11163300Y-6841307D03*
G01X11163300Y-6629400D03*
G01X11163300Y-5981700D03*
G01X11188700Y-2197100D03*
G01X11216800Y-3664901D03*
G01X11216800Y-2803300D03*
G01X11216800Y-2695600D03*
G01X11218901Y-9907201D03*
G01X11240942Y-4470400D03*
G01X11258700Y-4559300D03*
G01X11267507Y-2751602D03*
G01X11267507Y-1997702D03*
G01X11267507Y48600D03*
G01X11267507Y156300D03*
G01X11315700Y-5765800D03*
G01X11324500Y-8834504D03*
G01X11324500Y-8403704D03*
G01X11324500Y-8296003D03*
G01X11324500Y-8188303D03*
G01X11324500Y-8080603D03*
G01X11324500Y-7972903D03*
G01X11324500Y-5388102D03*
G01X11324500Y-5065002D03*
G01X11324500Y-3880301D03*
G01X11324500Y-2695600D03*
G01X11326601Y-9907201D03*
G01X11375207Y-2643902D03*
G01X11375207Y-2536202D03*
G01X11375207Y-2320802D03*
G01X11375207Y-2213102D03*
G01X11375207Y-1997702D03*
G01X11375207Y48600D03*
G01X11375207Y156300D03*
G01X11432200Y-8511404D03*
G01X11432200Y-8403704D03*
G01X11432200Y-8296003D03*
G01X11432200Y-8188303D03*
G01X11432200Y-8080603D03*
G01X11432200Y-7972903D03*
G01X11432200Y-7865203D03*
G01X11432200Y-7757503D03*
G01X11432200Y-7649803D03*
G01X11432200Y-7542103D03*
G01X11432200Y-7434403D03*
G01X11432200Y-7326703D03*
G01X11432200Y-7219003D03*
G01X11432200Y-7111303D03*
G01X11432200Y-7003603D03*
G01X11432200Y-6895903D03*
G01X11432200Y-6788203D03*
G01X11432200Y-6680503D03*
G01X11432200Y-6572802D03*
G01X11432200Y-5388102D03*
G01X11432200Y-3880301D03*
G01X11434301Y-9907201D03*
G01X11442700Y-3314306D03*
G01X11442700Y-3213100D03*
G01X11480800Y-697191D03*
G01X11480800Y-592264D03*
G01X11480800Y-481572D03*
G01X11480800Y-381000D03*
G01X11482907Y-2428502D03*
G01X11482907Y-2320802D03*
G01X11482907Y-1997702D03*
G01X11482907Y-1890002D03*
G01X11482907Y-1782301D03*
G01X11482907Y-1674601D03*
G01X11482907Y-1566901D03*
G01X11482907Y-1459201D03*
G01X11482907Y-1351501D03*
G01X11482907Y-1243801D03*
G01X11482907Y-1136101D03*
G01X11482907Y-1028401D03*
G01X11482907Y-920701D03*
G01X11482907Y-813001D03*
G01X11482907Y-274501D03*
G01X11482907Y-166801D03*
G01X11482907Y-59100D03*
G01X11482907Y48600D03*
G01X11482907Y156300D03*
G01X11493500Y-2209800D03*
G01X11539900Y-8834504D03*
G01X11539900Y-3880301D03*
G01X11542002Y-9907201D03*
G01X11649702Y-9907201D03*
G01X11806007Y-2967002D03*
G01X11863001Y-8511404D03*
G01X11863001Y-3880301D03*
G01X11913707Y-2967002D03*
G01X11913707Y-2643902D03*
G01X11970701Y-8511404D03*
G01X11970701Y-8403704D03*
G01X11970701Y-8296003D03*
G01X11970701Y-8188303D03*
G01X11970701Y-8080603D03*
G01X11970701Y-7972903D03*
G01X11970701Y-7865203D03*
G01X11970701Y-7757503D03*
G01X11970701Y-7649803D03*
G01X11970701Y-7542103D03*
G01X11970701Y-7434403D03*
G01X11970701Y-7326703D03*
G01X11970701Y-7219003D03*
G01X11970701Y-7111303D03*
G01X11970701Y-7003603D03*
G01X11970701Y-6895903D03*
G01X11970701Y-6788203D03*
G01X11970701Y-6680503D03*
G01X11970701Y-6572802D03*
G01X11970701Y-6465102D03*
G01X11970701Y-6357402D03*
G01X11970701Y-6249702D03*
G01X11970701Y-6142002D03*
G01X11970701Y-6034302D03*
G01X11970701Y-5926602D03*
G01X11970701Y-5818902D03*
G01X11970701Y-5711202D03*
G01X11970701Y-5603502D03*
G01X11970701Y-5495802D03*
G01X11970701Y-5388102D03*
G01X11970701Y-5280402D03*
G01X11970701Y-5172702D03*
G01X11970701Y-5065002D03*
G01X11970701Y-4741901D03*
G01X11970701Y-4634201D03*
G01X11970701Y-4526501D03*
G01X11970701Y-4418801D03*
G01X11970701Y-4311101D03*
G01X11970701Y-4203401D03*
G01X11970701Y-3880301D03*
G01X11970701Y-3557201D03*
G01X11970701Y-3449501D03*
G01X11970701Y-3341801D03*
G01X11970701Y-3234100D03*
G01X11970701Y-3126400D03*
G01X11970701Y-3018700D03*
G01X11972802Y-9476400D03*
G01X11972802Y-9368700D03*
G01X12021407Y-2967002D03*
G01X12021407Y-2859302D03*
G01X12021407Y-2751602D03*
G01X12021407Y-2643902D03*
G04 Drill Drawing End*

M02*

