G04 Layer: BoardOutlineLayer*
G04 EasyEDA Pro v2.2.40.8, 2026-04-30 17:25:34*
G04 Gerber Generator version 0.3*
G04 Scale: 100 percent, Rotated: No, Reflected: No*
G04 Dimensions in millimeters*
G04 Leading zeros omitted, absolute positions, 4 integers and 5 decimals*
G04 Panelize: V-CUT, Column: 1, Row: 1, Board Size: 119.883mm x 102.738mm, Panelized Board Size: 129.883mm x 102.738mm, Panelized Method: Only Board Outline*
G04 Generated by one-click*
%FSLAX45Y45*%
%MOMM*%
%ADD10C,0.254*%
%ADD11C,0.0254*%
%ADD12C,0.1*%
%ADD13C,0.5168*%
G75*


G04 Panelize Start*
G54D10*
G01X101854Y253746D02*
G01X101854Y-10020046D01*
G01X12090146Y253746D02*
G01X12090146Y-10020046D01*
G01X104394Y-7061D02*
G01X104394Y-9759239D01*
G01X12087606Y-7061D02*
G01X12087606Y-9759239D01*
G01X-398146Y-4883150D02*
G01X-398146Y-9920046D01*
G01X-398146Y-4883150D02*
G01X-398146Y153746D01*
G01X12590146Y-4883150D02*
G01X12590146Y-9920046D01*
G01X12590146Y-4883150D02*
G01X12590146Y153746D01*
G01X-398146Y-9920046D02*
G03X-298146Y-10020046I100000J0D01*
G01X-298146Y253746D02*
G03X-398146Y153746I0J-100000D01*
G01X12490146Y-10020046D02*
G03X12590146Y-9920046I0J100000D01*
G01X12590146Y153746D02*
G03X12490146Y253746I-100000J0D01*
G01X-298146Y-10020046D02*
G01X101854Y-10020046D01*
G01X-298146Y253746D02*
G01X101854Y253746D01*
G01X12490146Y-10020046D02*
G01X12090146Y-10020046D01*
G01X12490146Y253746D02*
G01X12090146Y253746D01*
G04 Panelize End*

G04 PolygonModel Start*

%SRX1Y1I119.88292J104.73792*%
G54D11*
G01X1261623Y-3644955D02*
G02X1221214Y-3624402I-0J50000D01*
G01X1075812Y-3479000D01*
G01X596533Y-3479000D01*
G01X446078Y-3629455D01*
G02X410723Y-3644100I-35355J35355D01*
G01X317500Y-3644100D01*
G02X267500Y-3594100I0J50000D01*
G02X317500Y-3544100I50000J0D01*
G01X390012Y-3544100D01*
G01X540467Y-3393645D01*
G02X575823Y-3379000I35356J-35355D01*
G01X1096523Y-3379000D01*
G02X1131878Y-3393645I-0J-50000D01*
G01X1283188Y-3544955D01*
G01X1404559Y-3544955D01*
G02X1454559Y-3594955I0J-50000D01*
G02X1404559Y-3644955I-50000J0D01*
G01X1261623Y-3644955D01*
%SR*%

%SRX1Y1I119.88292J104.73792*%
G01X571500Y-4051355D02*
G02X536145Y-4036710I0J50000D01*
G01X385689Y-3886255D01*
G01X316697Y-3886255D01*
G02X266697Y-3836255I0J50000D01*
G02X316697Y-3786255I50000J0D01*
G01X406400Y-3786255D01*
G02X441755Y-3800899I-0J-50000D01*
G01X592211Y-3951355D01*
G01X1071489Y-3951355D01*
G01X1216891Y-3805953D01*
G02X1257300Y-3785400I40409J-29448D01*
G01X1400236Y-3785400D01*
G02X1450236Y-3835400I-0J-50000D01*
G02X1400236Y-3885400I-50000J0D01*
G01X1278865Y-3885400D01*
G01X1127555Y-4036710D01*
G02X1092200Y-4051355I-35355J35355D01*
G01X571500Y-4051355D01*
%SR*%

G04 Rect Start*
G54D10*
G01X101600Y-9720300D02*
G01X101600Y-46000D01*
G02X401600Y254000I300000J0D01*
G01X11790400Y254000D01*
G02X12090400Y-46000I0J-300000D01*
G01X12090400Y-9720300D01*
G02X11790400Y-10020300I-300000J0D01*
G01X401600Y-10020300D01*
G02X101600Y-9720300I0J300000D01*
G04 Rect End*

G04 Circle Start*
G54D12*
G01X208300Y-9702800D02*
G03X528300Y-9702800I160000J0D01*
G03X208300Y-9702800I-160000J0D01*
G01X11651000Y-9702800D02*
G03X11971000Y-9702800I160000J0D01*
G03X11651000Y-9702800I-160000J0D01*
G01X11651000Y-88900D02*
G03X11971000Y-88900I160000J0D01*
G03X11651000Y-88900I-160000J0D01*
G01X208300Y-88900D02*
G03X528300Y-88900I160000J0D01*
G03X208300Y-88900I-160000J0D01*
G04 Circle End*

M02*

